%TF.GenerationSoftware,KiCad,Pcbnew,(6.0.7)*%
%TF.CreationDate,2022-08-15T12:54:09-04:00*%
%TF.ProjectId,2022_generic,32303232-5f67-4656-9e65-7269632e6b69,rev?*%
%TF.SameCoordinates,Original*%
%TF.FileFunction,Copper,L2,Bot*%
%TF.FilePolarity,Positive*%
%FSLAX46Y46*%
G04 Gerber Fmt 4.6, Leading zero omitted, Abs format (unit mm)*
G04 Created by KiCad (PCBNEW (6.0.7)) date 2022-08-15 12:54:09*
%MOMM*%
%LPD*%
G01*
G04 APERTURE LIST*
%TA.AperFunction,ComponentPad*%
%ADD10R,2.000000X2.000000*%
%TD*%
%TA.AperFunction,ComponentPad*%
%ADD11R,2.600000X2.600000*%
%TD*%
%TA.AperFunction,ComponentPad*%
%ADD12C,2.600000*%
%TD*%
%TA.AperFunction,WasherPad*%
%ADD13C,4.000000*%
%TD*%
%TA.AperFunction,ComponentPad*%
%ADD14C,1.800000*%
%TD*%
%TA.AperFunction,ComponentPad*%
%ADD15C,6.400000*%
%TD*%
%TA.AperFunction,ComponentPad*%
%ADD16C,1.600000*%
%TD*%
%TA.AperFunction,ComponentPad*%
%ADD17C,2.000000*%
%TD*%
%TA.AperFunction,ViaPad*%
%ADD18C,0.762000*%
%TD*%
G04 APERTURE END LIST*
D10*
X166370000Y-137922000D03*
D11*
X141470000Y-104180000D03*
D12*
X141470000Y-109180000D03*
D13*
X180422000Y-132014000D03*
X171622000Y-132014000D03*
D14*
X173522000Y-125014000D03*
X176022000Y-125014000D03*
X178522000Y-125014000D03*
D10*
X151130000Y-137922000D03*
D15*
X180848000Y-118110000D03*
D16*
X177292000Y-109249216D03*
X177292000Y-104249216D03*
D17*
X147268000Y-132116000D03*
X140768000Y-132116000D03*
X140768000Y-136616000D03*
X147268000Y-136616000D03*
D18*
X156210000Y-109728000D03*
X147828000Y-114554000D03*
X156286200Y-116001800D03*
%TA.AperFunction,Conductor*%
G36*
X180310018Y-97030000D02*
G01*
X180324851Y-97032310D01*
X180324855Y-97032310D01*
X180333724Y-97033691D01*
X180354183Y-97031016D01*
X180376008Y-97030072D01*
X180732937Y-97045656D01*
X180743886Y-97046614D01*
X181128379Y-97097233D01*
X181139205Y-97099142D01*
X181517822Y-97183080D01*
X181528439Y-97185925D01*
X181698702Y-97239608D01*
X181898302Y-97302542D01*
X181908615Y-97306295D01*
X182266932Y-97454715D01*
X182276876Y-97459353D01*
X182620867Y-97638423D01*
X182630387Y-97643919D01*
X182957468Y-97852292D01*
X182966472Y-97858597D01*
X183274138Y-98094678D01*
X183282558Y-98101743D01*
X183568483Y-98363744D01*
X183576256Y-98371517D01*
X183838257Y-98657442D01*
X183845322Y-98665862D01*
X184081403Y-98973528D01*
X184087708Y-98982532D01*
X184296081Y-99309613D01*
X184301577Y-99319133D01*
X184480643Y-99663115D01*
X184485289Y-99673077D01*
X184633702Y-100031377D01*
X184637461Y-100041706D01*
X184754075Y-100411561D01*
X184756920Y-100422178D01*
X184840858Y-100800795D01*
X184842767Y-100811621D01*
X184893386Y-101196114D01*
X184894344Y-101207064D01*
X184909603Y-101556552D01*
X184908223Y-101581429D01*
X184906309Y-101593724D01*
X184907473Y-101602626D01*
X184907473Y-101602628D01*
X184910436Y-101625283D01*
X184911500Y-101641621D01*
X184911500Y-134570633D01*
X184910000Y-134590018D01*
X184907690Y-134604851D01*
X184907690Y-134604855D01*
X184906309Y-134613724D01*
X184908984Y-134634183D01*
X184909928Y-134656012D01*
X184894344Y-135012936D01*
X184893386Y-135023886D01*
X184842767Y-135408379D01*
X184840858Y-135419205D01*
X184756920Y-135797822D01*
X184754075Y-135808439D01*
X184716051Y-135929037D01*
X184646885Y-136148406D01*
X184637461Y-136178294D01*
X184633705Y-136188615D01*
X184516578Y-136471385D01*
X184485289Y-136546923D01*
X184480647Y-136556876D01*
X184374764Y-136760276D01*
X184301577Y-136900867D01*
X184296081Y-136910387D01*
X184087708Y-137237468D01*
X184081403Y-137246472D01*
X183845322Y-137554138D01*
X183838257Y-137562558D01*
X183722233Y-137689177D01*
X183576256Y-137848483D01*
X183568483Y-137856256D01*
X183282558Y-138118257D01*
X183274138Y-138125322D01*
X182966472Y-138361403D01*
X182957468Y-138367708D01*
X182630387Y-138576081D01*
X182620868Y-138581576D01*
X182276876Y-138760647D01*
X182266932Y-138765285D01*
X181908615Y-138913705D01*
X181898302Y-138917458D01*
X181742073Y-138966717D01*
X181528439Y-139034075D01*
X181517822Y-139036920D01*
X181139205Y-139120858D01*
X181128378Y-139122767D01*
X180808375Y-139164896D01*
X180743886Y-139173386D01*
X180732937Y-139174344D01*
X180383446Y-139189603D01*
X180358571Y-139188223D01*
X180346276Y-139186309D01*
X180337374Y-139187473D01*
X180337372Y-139187473D01*
X180322323Y-139189441D01*
X180314714Y-139190436D01*
X180298379Y-139191500D01*
X167992353Y-139191500D01*
X167924232Y-139171498D01*
X167877739Y-139117842D01*
X167867635Y-139047568D01*
X167869295Y-139038852D01*
X167871745Y-139032316D01*
X167878500Y-138970134D01*
X167878500Y-136873866D01*
X167871745Y-136811684D01*
X167820615Y-136675295D01*
X167733261Y-136558739D01*
X167616705Y-136471385D01*
X167480316Y-136420255D01*
X167418134Y-136413500D01*
X165321866Y-136413500D01*
X165259684Y-136420255D01*
X165123295Y-136471385D01*
X165006739Y-136558739D01*
X164919385Y-136675295D01*
X164868255Y-136811684D01*
X164861500Y-136873866D01*
X164861500Y-138970134D01*
X164868255Y-139032316D01*
X164870173Y-139037431D01*
X164866529Y-139107251D01*
X164825084Y-139164896D01*
X164759054Y-139190983D01*
X164747647Y-139191500D01*
X152752353Y-139191500D01*
X152684232Y-139171498D01*
X152637739Y-139117842D01*
X152627635Y-139047568D01*
X152629295Y-139038852D01*
X152631745Y-139032316D01*
X152638500Y-138970134D01*
X152638500Y-136873866D01*
X152631745Y-136811684D01*
X152580615Y-136675295D01*
X152493261Y-136558739D01*
X152376705Y-136471385D01*
X152240316Y-136420255D01*
X152178134Y-136413500D01*
X150081866Y-136413500D01*
X150019684Y-136420255D01*
X149883295Y-136471385D01*
X149766739Y-136558739D01*
X149679385Y-136675295D01*
X149628255Y-136811684D01*
X149621500Y-136873866D01*
X149621500Y-138970134D01*
X149628255Y-139032316D01*
X149630173Y-139037431D01*
X149626529Y-139107251D01*
X149585084Y-139164896D01*
X149519054Y-139190983D01*
X149507647Y-139191500D01*
X139749367Y-139191500D01*
X139729982Y-139190000D01*
X139715149Y-139187690D01*
X139715145Y-139187690D01*
X139706276Y-139186309D01*
X139685817Y-139188984D01*
X139663992Y-139189928D01*
X139307063Y-139174344D01*
X139296114Y-139173386D01*
X139231626Y-139164896D01*
X138911622Y-139122767D01*
X138900795Y-139120858D01*
X138522178Y-139036920D01*
X138511561Y-139034075D01*
X138297927Y-138966717D01*
X138141698Y-138917458D01*
X138131385Y-138913705D01*
X137773068Y-138765285D01*
X137763124Y-138760647D01*
X137419132Y-138581576D01*
X137409613Y-138576081D01*
X137082532Y-138367708D01*
X137073528Y-138361403D01*
X136765862Y-138125322D01*
X136757442Y-138118257D01*
X136471517Y-137856256D01*
X136463744Y-137848483D01*
X136317768Y-137689177D01*
X136201743Y-137562558D01*
X136194678Y-137554138D01*
X135958597Y-137246472D01*
X135952292Y-137237468D01*
X135743919Y-136910387D01*
X135738423Y-136900867D01*
X135665236Y-136760276D01*
X135590131Y-136616000D01*
X139254835Y-136616000D01*
X139273465Y-136852711D01*
X139274619Y-136857518D01*
X139274620Y-136857524D01*
X139309640Y-137003391D01*
X139328895Y-137083594D01*
X139330788Y-137088165D01*
X139330789Y-137088167D01*
X139396361Y-137246472D01*
X139419760Y-137302963D01*
X139422346Y-137307183D01*
X139541241Y-137501202D01*
X139541245Y-137501208D01*
X139543824Y-137505416D01*
X139698031Y-137685969D01*
X139878584Y-137840176D01*
X139882792Y-137842755D01*
X139882798Y-137842759D01*
X139988237Y-137907372D01*
X140081037Y-137964240D01*
X140085607Y-137966133D01*
X140085611Y-137966135D01*
X140295833Y-138053211D01*
X140300406Y-138055105D01*
X140380609Y-138074360D01*
X140526476Y-138109380D01*
X140526482Y-138109381D01*
X140531289Y-138110535D01*
X140768000Y-138129165D01*
X141004711Y-138110535D01*
X141009518Y-138109381D01*
X141009524Y-138109380D01*
X141155391Y-138074360D01*
X141235594Y-138055105D01*
X141240167Y-138053211D01*
X141450389Y-137966135D01*
X141450393Y-137966133D01*
X141454963Y-137964240D01*
X141547763Y-137907372D01*
X141653202Y-137842759D01*
X141653208Y-137842755D01*
X141657416Y-137840176D01*
X141837969Y-137685969D01*
X141992176Y-137505416D01*
X141994755Y-137501208D01*
X141994759Y-137501202D01*
X142113654Y-137307183D01*
X142116240Y-137302963D01*
X142139640Y-137246472D01*
X142205211Y-137088167D01*
X142205212Y-137088165D01*
X142207105Y-137083594D01*
X142226360Y-137003391D01*
X142261380Y-136857524D01*
X142261381Y-136857518D01*
X142262535Y-136852711D01*
X142281165Y-136616000D01*
X145754835Y-136616000D01*
X145773465Y-136852711D01*
X145774619Y-136857518D01*
X145774620Y-136857524D01*
X145809640Y-137003391D01*
X145828895Y-137083594D01*
X145830788Y-137088165D01*
X145830789Y-137088167D01*
X145896361Y-137246472D01*
X145919760Y-137302963D01*
X145922346Y-137307183D01*
X146041241Y-137501202D01*
X146041245Y-137501208D01*
X146043824Y-137505416D01*
X146198031Y-137685969D01*
X146378584Y-137840176D01*
X146382792Y-137842755D01*
X146382798Y-137842759D01*
X146488237Y-137907372D01*
X146581037Y-137964240D01*
X146585607Y-137966133D01*
X146585611Y-137966135D01*
X146795833Y-138053211D01*
X146800406Y-138055105D01*
X146880609Y-138074360D01*
X147026476Y-138109380D01*
X147026482Y-138109381D01*
X147031289Y-138110535D01*
X147268000Y-138129165D01*
X147504711Y-138110535D01*
X147509518Y-138109381D01*
X147509524Y-138109380D01*
X147655391Y-138074360D01*
X147735594Y-138055105D01*
X147740167Y-138053211D01*
X147950389Y-137966135D01*
X147950393Y-137966133D01*
X147954963Y-137964240D01*
X148047763Y-137907372D01*
X148153202Y-137842759D01*
X148153208Y-137842755D01*
X148157416Y-137840176D01*
X148337969Y-137685969D01*
X148492176Y-137505416D01*
X148494755Y-137501208D01*
X148494759Y-137501202D01*
X148613654Y-137307183D01*
X148616240Y-137302963D01*
X148639640Y-137246472D01*
X148705211Y-137088167D01*
X148705212Y-137088165D01*
X148707105Y-137083594D01*
X148726360Y-137003391D01*
X148761380Y-136857524D01*
X148761381Y-136857518D01*
X148762535Y-136852711D01*
X148781165Y-136616000D01*
X148762535Y-136379289D01*
X148707105Y-136148406D01*
X148616240Y-135929037D01*
X148535831Y-135797822D01*
X148494759Y-135730798D01*
X148494755Y-135730792D01*
X148492176Y-135726584D01*
X148337969Y-135546031D01*
X148157416Y-135391824D01*
X148153208Y-135389245D01*
X148153202Y-135389241D01*
X147959183Y-135270346D01*
X147954963Y-135267760D01*
X147950393Y-135265867D01*
X147950389Y-135265865D01*
X147740167Y-135178789D01*
X147740165Y-135178788D01*
X147735594Y-135176895D01*
X147655391Y-135157640D01*
X147509524Y-135122620D01*
X147509518Y-135122619D01*
X147504711Y-135121465D01*
X147268000Y-135102835D01*
X147031289Y-135121465D01*
X147026482Y-135122619D01*
X147026476Y-135122620D01*
X146880609Y-135157640D01*
X146800406Y-135176895D01*
X146795835Y-135178788D01*
X146795833Y-135178789D01*
X146585611Y-135265865D01*
X146585607Y-135265867D01*
X146581037Y-135267760D01*
X146576817Y-135270346D01*
X146382798Y-135389241D01*
X146382792Y-135389245D01*
X146378584Y-135391824D01*
X146198031Y-135546031D01*
X146043824Y-135726584D01*
X146041245Y-135730792D01*
X146041241Y-135730798D01*
X146000169Y-135797822D01*
X145919760Y-135929037D01*
X145828895Y-136148406D01*
X145773465Y-136379289D01*
X145754835Y-136616000D01*
X142281165Y-136616000D01*
X142262535Y-136379289D01*
X142207105Y-136148406D01*
X142116240Y-135929037D01*
X142035831Y-135797822D01*
X141994759Y-135730798D01*
X141994755Y-135730792D01*
X141992176Y-135726584D01*
X141837969Y-135546031D01*
X141657416Y-135391824D01*
X141653208Y-135389245D01*
X141653202Y-135389241D01*
X141459183Y-135270346D01*
X141454963Y-135267760D01*
X141450393Y-135265867D01*
X141450389Y-135265865D01*
X141240167Y-135178789D01*
X141240165Y-135178788D01*
X141235594Y-135176895D01*
X141155391Y-135157640D01*
X141009524Y-135122620D01*
X141009518Y-135122619D01*
X141004711Y-135121465D01*
X140768000Y-135102835D01*
X140531289Y-135121465D01*
X140526482Y-135122619D01*
X140526476Y-135122620D01*
X140380609Y-135157640D01*
X140300406Y-135176895D01*
X140295835Y-135178788D01*
X140295833Y-135178789D01*
X140085611Y-135265865D01*
X140085607Y-135265867D01*
X140081037Y-135267760D01*
X140076817Y-135270346D01*
X139882798Y-135389241D01*
X139882792Y-135389245D01*
X139878584Y-135391824D01*
X139698031Y-135546031D01*
X139543824Y-135726584D01*
X139541245Y-135730792D01*
X139541241Y-135730798D01*
X139500169Y-135797822D01*
X139419760Y-135929037D01*
X139328895Y-136148406D01*
X139273465Y-136379289D01*
X139254835Y-136616000D01*
X135590131Y-136616000D01*
X135559353Y-136556876D01*
X135554711Y-136546923D01*
X135523423Y-136471385D01*
X135406295Y-136188615D01*
X135402539Y-136178294D01*
X135393116Y-136148406D01*
X135323949Y-135929037D01*
X135285925Y-135808439D01*
X135283080Y-135797822D01*
X135199142Y-135419205D01*
X135197233Y-135408379D01*
X135146614Y-135023886D01*
X135145656Y-135012936D01*
X135130561Y-134667208D01*
X135132188Y-134640805D01*
X135132769Y-134637352D01*
X135132770Y-134637345D01*
X135133576Y-134632552D01*
X135133729Y-134620000D01*
X135129773Y-134592376D01*
X135128500Y-134574514D01*
X135128500Y-132116000D01*
X139254835Y-132116000D01*
X139273465Y-132352711D01*
X139328895Y-132583594D01*
X139330788Y-132588165D01*
X139330789Y-132588167D01*
X139353439Y-132642848D01*
X139419760Y-132802963D01*
X139422346Y-132807183D01*
X139541241Y-133001202D01*
X139541245Y-133001208D01*
X139543824Y-133005416D01*
X139698031Y-133185969D01*
X139878584Y-133340176D01*
X139882792Y-133342755D01*
X139882798Y-133342759D01*
X140076817Y-133461654D01*
X140081037Y-133464240D01*
X140085607Y-133466133D01*
X140085611Y-133466135D01*
X140153915Y-133494427D01*
X140300406Y-133555105D01*
X140380609Y-133574360D01*
X140526476Y-133609380D01*
X140526482Y-133609381D01*
X140531289Y-133610535D01*
X140768000Y-133629165D01*
X141004711Y-133610535D01*
X141009518Y-133609381D01*
X141009524Y-133609380D01*
X141155391Y-133574360D01*
X141235594Y-133555105D01*
X141382085Y-133494427D01*
X141450389Y-133466135D01*
X141450393Y-133466133D01*
X141454963Y-133464240D01*
X141459183Y-133461654D01*
X141653202Y-133342759D01*
X141653208Y-133342755D01*
X141657416Y-133340176D01*
X141837969Y-133185969D01*
X141992176Y-133005416D01*
X141994755Y-133001208D01*
X141994759Y-133001202D01*
X142113654Y-132807183D01*
X142116240Y-132802963D01*
X142182562Y-132642848D01*
X142205211Y-132588167D01*
X142205212Y-132588165D01*
X142207105Y-132583594D01*
X142262535Y-132352711D01*
X142281165Y-132116000D01*
X145754835Y-132116000D01*
X145773465Y-132352711D01*
X145828895Y-132583594D01*
X145830788Y-132588165D01*
X145830789Y-132588167D01*
X145853439Y-132642848D01*
X145919760Y-132802963D01*
X145922346Y-132807183D01*
X146041241Y-133001202D01*
X146041245Y-133001208D01*
X146043824Y-133005416D01*
X146198031Y-133185969D01*
X146378584Y-133340176D01*
X146382792Y-133342755D01*
X146382798Y-133342759D01*
X146576817Y-133461654D01*
X146581037Y-133464240D01*
X146585607Y-133466133D01*
X146585611Y-133466135D01*
X146653915Y-133494427D01*
X146800406Y-133555105D01*
X146880609Y-133574360D01*
X147026476Y-133609380D01*
X147026482Y-133609381D01*
X147031289Y-133610535D01*
X147268000Y-133629165D01*
X147504711Y-133610535D01*
X147509518Y-133609381D01*
X147509524Y-133609380D01*
X147655391Y-133574360D01*
X147735594Y-133555105D01*
X147882085Y-133494427D01*
X147950389Y-133466135D01*
X147950393Y-133466133D01*
X147954963Y-133464240D01*
X147959183Y-133461654D01*
X148153202Y-133342759D01*
X148153208Y-133342755D01*
X148157416Y-133340176D01*
X148337969Y-133185969D01*
X148492176Y-133005416D01*
X148494755Y-133001208D01*
X148494759Y-133001202D01*
X148613654Y-132807183D01*
X148616240Y-132802963D01*
X148682562Y-132642848D01*
X148705211Y-132588167D01*
X148705212Y-132588165D01*
X148707105Y-132583594D01*
X148762535Y-132352711D01*
X148781165Y-132116000D01*
X148773137Y-132014000D01*
X169108540Y-132014000D01*
X169128359Y-132329020D01*
X169187505Y-132639072D01*
X169285044Y-132939266D01*
X169286731Y-132942852D01*
X169286733Y-132942856D01*
X169417750Y-133221283D01*
X169417754Y-133221290D01*
X169419438Y-133224869D01*
X169588568Y-133491375D01*
X169789767Y-133734582D01*
X170019860Y-133950654D01*
X170275221Y-134136184D01*
X170551821Y-134288247D01*
X170555490Y-134289700D01*
X170555495Y-134289702D01*
X170841628Y-134402990D01*
X170845298Y-134404443D01*
X171151025Y-134482940D01*
X171464179Y-134522500D01*
X171779821Y-134522500D01*
X172092975Y-134482940D01*
X172398702Y-134404443D01*
X172402372Y-134402990D01*
X172688505Y-134289702D01*
X172688510Y-134289700D01*
X172692179Y-134288247D01*
X172968779Y-134136184D01*
X173224140Y-133950654D01*
X173454233Y-133734582D01*
X173655432Y-133491375D01*
X173824562Y-133224869D01*
X173826246Y-133221290D01*
X173826250Y-133221283D01*
X173957267Y-132942856D01*
X173957269Y-132942852D01*
X173958956Y-132939266D01*
X174056495Y-132639072D01*
X174115641Y-132329020D01*
X174135460Y-132014000D01*
X177908540Y-132014000D01*
X177928359Y-132329020D01*
X177987505Y-132639072D01*
X178085044Y-132939266D01*
X178086731Y-132942852D01*
X178086733Y-132942856D01*
X178217750Y-133221283D01*
X178217754Y-133221290D01*
X178219438Y-133224869D01*
X178388568Y-133491375D01*
X178589767Y-133734582D01*
X178819860Y-133950654D01*
X179075221Y-134136184D01*
X179351821Y-134288247D01*
X179355490Y-134289700D01*
X179355495Y-134289702D01*
X179641628Y-134402990D01*
X179645298Y-134404443D01*
X179951025Y-134482940D01*
X180264179Y-134522500D01*
X180579821Y-134522500D01*
X180892975Y-134482940D01*
X181198702Y-134404443D01*
X181202372Y-134402990D01*
X181488505Y-134289702D01*
X181488510Y-134289700D01*
X181492179Y-134288247D01*
X181768779Y-134136184D01*
X182024140Y-133950654D01*
X182254233Y-133734582D01*
X182455432Y-133491375D01*
X182624562Y-133224869D01*
X182626246Y-133221290D01*
X182626250Y-133221283D01*
X182757267Y-132942856D01*
X182757269Y-132942852D01*
X182758956Y-132939266D01*
X182856495Y-132639072D01*
X182915641Y-132329020D01*
X182935460Y-132014000D01*
X182915641Y-131698980D01*
X182856495Y-131388928D01*
X182758956Y-131088734D01*
X182666298Y-130891824D01*
X182626250Y-130806717D01*
X182626246Y-130806710D01*
X182624562Y-130803131D01*
X182455432Y-130536625D01*
X182254233Y-130293418D01*
X182024140Y-130077346D01*
X181768779Y-129891816D01*
X181492179Y-129739753D01*
X181488510Y-129738300D01*
X181488505Y-129738298D01*
X181202372Y-129625010D01*
X181202371Y-129625010D01*
X181198702Y-129623557D01*
X180892975Y-129545060D01*
X180579821Y-129505500D01*
X180264179Y-129505500D01*
X179951025Y-129545060D01*
X179645298Y-129623557D01*
X179641629Y-129625010D01*
X179641628Y-129625010D01*
X179355495Y-129738298D01*
X179355490Y-129738300D01*
X179351821Y-129739753D01*
X179075221Y-129891816D01*
X178819860Y-130077346D01*
X178589767Y-130293418D01*
X178388568Y-130536625D01*
X178219438Y-130803131D01*
X178217754Y-130806710D01*
X178217750Y-130806717D01*
X178177702Y-130891824D01*
X178085044Y-131088734D01*
X177987505Y-131388928D01*
X177928359Y-131698980D01*
X177908540Y-132014000D01*
X174135460Y-132014000D01*
X174115641Y-131698980D01*
X174056495Y-131388928D01*
X173958956Y-131088734D01*
X173866298Y-130891824D01*
X173826250Y-130806717D01*
X173826246Y-130806710D01*
X173824562Y-130803131D01*
X173655432Y-130536625D01*
X173454233Y-130293418D01*
X173224140Y-130077346D01*
X172968779Y-129891816D01*
X172692179Y-129739753D01*
X172688510Y-129738300D01*
X172688505Y-129738298D01*
X172402372Y-129625010D01*
X172402371Y-129625010D01*
X172398702Y-129623557D01*
X172092975Y-129545060D01*
X171779821Y-129505500D01*
X171464179Y-129505500D01*
X171151025Y-129545060D01*
X170845298Y-129623557D01*
X170841629Y-129625010D01*
X170841628Y-129625010D01*
X170555495Y-129738298D01*
X170555490Y-129738300D01*
X170551821Y-129739753D01*
X170275221Y-129891816D01*
X170019860Y-130077346D01*
X169789767Y-130293418D01*
X169588568Y-130536625D01*
X169419438Y-130803131D01*
X169417754Y-130806710D01*
X169417750Y-130806717D01*
X169377702Y-130891824D01*
X169285044Y-131088734D01*
X169187505Y-131388928D01*
X169128359Y-131698980D01*
X169108540Y-132014000D01*
X148773137Y-132014000D01*
X148762535Y-131879289D01*
X148707105Y-131648406D01*
X148616240Y-131429037D01*
X148589347Y-131385152D01*
X148494759Y-131230798D01*
X148494755Y-131230792D01*
X148492176Y-131226584D01*
X148337969Y-131046031D01*
X148157416Y-130891824D01*
X148153208Y-130889245D01*
X148153202Y-130889241D01*
X147959183Y-130770346D01*
X147954963Y-130767760D01*
X147950393Y-130765867D01*
X147950389Y-130765865D01*
X147740167Y-130678789D01*
X147740165Y-130678788D01*
X147735594Y-130676895D01*
X147655391Y-130657640D01*
X147509524Y-130622620D01*
X147509518Y-130622619D01*
X147504711Y-130621465D01*
X147268000Y-130602835D01*
X147031289Y-130621465D01*
X147026482Y-130622619D01*
X147026476Y-130622620D01*
X146880609Y-130657640D01*
X146800406Y-130676895D01*
X146795835Y-130678788D01*
X146795833Y-130678789D01*
X146585611Y-130765865D01*
X146585607Y-130765867D01*
X146581037Y-130767760D01*
X146576817Y-130770346D01*
X146382798Y-130889241D01*
X146382792Y-130889245D01*
X146378584Y-130891824D01*
X146198031Y-131046031D01*
X146043824Y-131226584D01*
X146041245Y-131230792D01*
X146041241Y-131230798D01*
X145946653Y-131385152D01*
X145919760Y-131429037D01*
X145828895Y-131648406D01*
X145773465Y-131879289D01*
X145754835Y-132116000D01*
X142281165Y-132116000D01*
X142262535Y-131879289D01*
X142207105Y-131648406D01*
X142116240Y-131429037D01*
X142089347Y-131385152D01*
X141994759Y-131230798D01*
X141994755Y-131230792D01*
X141992176Y-131226584D01*
X141837969Y-131046031D01*
X141657416Y-130891824D01*
X141653208Y-130889245D01*
X141653202Y-130889241D01*
X141459183Y-130770346D01*
X141454963Y-130767760D01*
X141450393Y-130765867D01*
X141450389Y-130765865D01*
X141240167Y-130678789D01*
X141240165Y-130678788D01*
X141235594Y-130676895D01*
X141155391Y-130657640D01*
X141009524Y-130622620D01*
X141009518Y-130622619D01*
X141004711Y-130621465D01*
X140768000Y-130602835D01*
X140531289Y-130621465D01*
X140526482Y-130622619D01*
X140526476Y-130622620D01*
X140380609Y-130657640D01*
X140300406Y-130676895D01*
X140295835Y-130678788D01*
X140295833Y-130678789D01*
X140085611Y-130765865D01*
X140085607Y-130765867D01*
X140081037Y-130767760D01*
X140076817Y-130770346D01*
X139882798Y-130889241D01*
X139882792Y-130889245D01*
X139878584Y-130891824D01*
X139698031Y-131046031D01*
X139543824Y-131226584D01*
X139541245Y-131230792D01*
X139541241Y-131230798D01*
X139446653Y-131385152D01*
X139419760Y-131429037D01*
X139328895Y-131648406D01*
X139273465Y-131879289D01*
X139254835Y-132116000D01*
X135128500Y-132116000D01*
X135128500Y-126175406D01*
X172725423Y-126175406D01*
X172730704Y-126182461D01*
X172907080Y-126285527D01*
X172916363Y-126289974D01*
X173123003Y-126368883D01*
X173132901Y-126371759D01*
X173349653Y-126415857D01*
X173359883Y-126417076D01*
X173580914Y-126425182D01*
X173591223Y-126424714D01*
X173810623Y-126396608D01*
X173820688Y-126394468D01*
X174032557Y-126330905D01*
X174042152Y-126327144D01*
X174240778Y-126229838D01*
X174249636Y-126224559D01*
X174307097Y-126183572D01*
X174315497Y-126172874D01*
X174308510Y-126159721D01*
X173534811Y-125386021D01*
X173520868Y-125378408D01*
X173519034Y-125378539D01*
X173512420Y-125382790D01*
X172732180Y-126163031D01*
X172725423Y-126175406D01*
X135128500Y-126175406D01*
X135128500Y-124984638D01*
X172109893Y-124984638D01*
X172122627Y-125205468D01*
X172124061Y-125215670D01*
X172172685Y-125431439D01*
X172175773Y-125441292D01*
X172258986Y-125646220D01*
X172263634Y-125655421D01*
X172352097Y-125799781D01*
X172362553Y-125809242D01*
X172371331Y-125805458D01*
X173149979Y-125026811D01*
X173156356Y-125015132D01*
X173886408Y-125015132D01*
X173886539Y-125016966D01*
X173890790Y-125023580D01*
X174668307Y-125801096D01*
X174680313Y-125807652D01*
X174689244Y-125800829D01*
X174755519Y-125775370D01*
X174825037Y-125789783D01*
X174873165Y-125835117D01*
X174878800Y-125844311D01*
X174881501Y-125848719D01*
X175033147Y-126023784D01*
X175211349Y-126171730D01*
X175411322Y-126288584D01*
X175627694Y-126371209D01*
X175632760Y-126372240D01*
X175632761Y-126372240D01*
X175685846Y-126383040D01*
X175854656Y-126417385D01*
X175985324Y-126422176D01*
X176080949Y-126425683D01*
X176080953Y-126425683D01*
X176086113Y-126425872D01*
X176091233Y-126425216D01*
X176091235Y-126425216D01*
X176164291Y-126415857D01*
X176315847Y-126396442D01*
X176320795Y-126394957D01*
X176320802Y-126394956D01*
X176532747Y-126331369D01*
X176537690Y-126329886D01*
X176619161Y-126289974D01*
X176741049Y-126230262D01*
X176741052Y-126230260D01*
X176745684Y-126227991D01*
X176934243Y-126093494D01*
X177098303Y-125930005D01*
X177167370Y-125833888D01*
X177223365Y-125790240D01*
X177294068Y-125783794D01*
X177357033Y-125816597D01*
X177377128Y-125841584D01*
X177378799Y-125844311D01*
X177378802Y-125844315D01*
X177381501Y-125848719D01*
X177533147Y-126023784D01*
X177711349Y-126171730D01*
X177911322Y-126288584D01*
X178127694Y-126371209D01*
X178132760Y-126372240D01*
X178132761Y-126372240D01*
X178185846Y-126383040D01*
X178354656Y-126417385D01*
X178485324Y-126422176D01*
X178580949Y-126425683D01*
X178580953Y-126425683D01*
X178586113Y-126425872D01*
X178591233Y-126425216D01*
X178591235Y-126425216D01*
X178664291Y-126415857D01*
X178815847Y-126396442D01*
X178820795Y-126394957D01*
X178820802Y-126394956D01*
X179032747Y-126331369D01*
X179037690Y-126329886D01*
X179119161Y-126289974D01*
X179241049Y-126230262D01*
X179241052Y-126230260D01*
X179245684Y-126227991D01*
X179434243Y-126093494D01*
X179598303Y-125930005D01*
X179733458Y-125741917D01*
X179836078Y-125534280D01*
X179903408Y-125312671D01*
X179933640Y-125083041D01*
X179935327Y-125014000D01*
X179929032Y-124937434D01*
X179916773Y-124788318D01*
X179916772Y-124788312D01*
X179916349Y-124783167D01*
X179882797Y-124649592D01*
X179861184Y-124563544D01*
X179861183Y-124563540D01*
X179859925Y-124558533D01*
X179767570Y-124346131D01*
X179641764Y-124151665D01*
X179485887Y-123980358D01*
X179481836Y-123977159D01*
X179481832Y-123977155D01*
X179308177Y-123840011D01*
X179308172Y-123840008D01*
X179304123Y-123836810D01*
X179299607Y-123834317D01*
X179299604Y-123834315D01*
X179105879Y-123727373D01*
X179105875Y-123727371D01*
X179101355Y-123724876D01*
X179096486Y-123723152D01*
X179096482Y-123723150D01*
X178887903Y-123649288D01*
X178887899Y-123649287D01*
X178883028Y-123647562D01*
X178877935Y-123646655D01*
X178877932Y-123646654D01*
X178660095Y-123607851D01*
X178660089Y-123607850D01*
X178655006Y-123606945D01*
X178582096Y-123606054D01*
X178428581Y-123604179D01*
X178428579Y-123604179D01*
X178423411Y-123604116D01*
X178194464Y-123639150D01*
X177974314Y-123711106D01*
X177969726Y-123713494D01*
X177969722Y-123713496D01*
X177773461Y-123815663D01*
X177768872Y-123818052D01*
X177764739Y-123821155D01*
X177764736Y-123821157D01*
X177705284Y-123865795D01*
X177583655Y-123957117D01*
X177423639Y-124124564D01*
X177376836Y-124193174D01*
X177321927Y-124238175D01*
X177251402Y-124246346D01*
X177187655Y-124215092D01*
X177166959Y-124190609D01*
X177144577Y-124156013D01*
X177144574Y-124156009D01*
X177141764Y-124151665D01*
X176985887Y-123980358D01*
X176981836Y-123977159D01*
X176981832Y-123977155D01*
X176808177Y-123840011D01*
X176808172Y-123840008D01*
X176804123Y-123836810D01*
X176799607Y-123834317D01*
X176799604Y-123834315D01*
X176605879Y-123727373D01*
X176605875Y-123727371D01*
X176601355Y-123724876D01*
X176596486Y-123723152D01*
X176596482Y-123723150D01*
X176387903Y-123649288D01*
X176387899Y-123649287D01*
X176383028Y-123647562D01*
X176377935Y-123646655D01*
X176377932Y-123646654D01*
X176160095Y-123607851D01*
X176160089Y-123607850D01*
X176155006Y-123606945D01*
X176082096Y-123606054D01*
X175928581Y-123604179D01*
X175928579Y-123604179D01*
X175923411Y-123604116D01*
X175694464Y-123639150D01*
X175474314Y-123711106D01*
X175469726Y-123713494D01*
X175469722Y-123713496D01*
X175273461Y-123815663D01*
X175268872Y-123818052D01*
X175264739Y-123821155D01*
X175264736Y-123821157D01*
X175205284Y-123865795D01*
X175083655Y-123957117D01*
X174923639Y-124124564D01*
X174920730Y-124128829D01*
X174920724Y-124128837D01*
X174872199Y-124199972D01*
X174817288Y-124244975D01*
X174746763Y-124253146D01*
X174685884Y-124224439D01*
X174680538Y-124219835D01*
X174670973Y-124224238D01*
X173894021Y-125001189D01*
X173886408Y-125015132D01*
X173156356Y-125015132D01*
X173157592Y-125012868D01*
X173157461Y-125011034D01*
X173153210Y-125004420D01*
X172375862Y-124227073D01*
X172364330Y-124220776D01*
X172352048Y-124230399D01*
X172296467Y-124311877D01*
X172291379Y-124320833D01*
X172198252Y-124521459D01*
X172194689Y-124531146D01*
X172135581Y-124744280D01*
X172133650Y-124754400D01*
X172110145Y-124974349D01*
X172109893Y-124984638D01*
X135128500Y-124984638D01*
X135128500Y-123854711D01*
X172727508Y-123854711D01*
X172734251Y-123867040D01*
X173509189Y-124641979D01*
X173523132Y-124649592D01*
X173524966Y-124649461D01*
X173531580Y-124645210D01*
X174310994Y-123865795D01*
X174318011Y-123852944D01*
X174310237Y-123842274D01*
X174307902Y-123840430D01*
X174299320Y-123834729D01*
X174105678Y-123727833D01*
X174096272Y-123723606D01*
X173887772Y-123649772D01*
X173877809Y-123647140D01*
X173660047Y-123608350D01*
X173649796Y-123607381D01*
X173428616Y-123604679D01*
X173418332Y-123605399D01*
X173199693Y-123638855D01*
X173189666Y-123641244D01*
X172979426Y-123709961D01*
X172969916Y-123713958D01*
X172773725Y-123816089D01*
X172765007Y-123821578D01*
X172735961Y-123843386D01*
X172727508Y-123854711D01*
X135128500Y-123854711D01*
X135128500Y-118110000D01*
X177134411Y-118110000D01*
X177154754Y-118498176D01*
X177215562Y-118882099D01*
X177316167Y-119257562D01*
X177455468Y-119620453D01*
X177631938Y-119966794D01*
X177843643Y-120292793D01*
X178088266Y-120594876D01*
X178363124Y-120869734D01*
X178665207Y-121114357D01*
X178991205Y-121326062D01*
X178994139Y-121327557D01*
X178994146Y-121327561D01*
X179334607Y-121501034D01*
X179337547Y-121502532D01*
X179700438Y-121641833D01*
X180075901Y-121742438D01*
X180279793Y-121774732D01*
X180456576Y-121802732D01*
X180456584Y-121802733D01*
X180459824Y-121803246D01*
X180848000Y-121823589D01*
X181236176Y-121803246D01*
X181239416Y-121802733D01*
X181239424Y-121802732D01*
X181416207Y-121774732D01*
X181620099Y-121742438D01*
X181995562Y-121641833D01*
X182358453Y-121502532D01*
X182361393Y-121501034D01*
X182701854Y-121327561D01*
X182701861Y-121327557D01*
X182704795Y-121326062D01*
X183030793Y-121114357D01*
X183332876Y-120869734D01*
X183607734Y-120594876D01*
X183852357Y-120292793D01*
X184064062Y-119966794D01*
X184240532Y-119620453D01*
X184379833Y-119257562D01*
X184480438Y-118882099D01*
X184541246Y-118498176D01*
X184561589Y-118110000D01*
X184541246Y-117721824D01*
X184480438Y-117337901D01*
X184379833Y-116962438D01*
X184240532Y-116599547D01*
X184064062Y-116253206D01*
X183852357Y-115927207D01*
X183607734Y-115625124D01*
X183332876Y-115350266D01*
X183030793Y-115105643D01*
X182704795Y-114893938D01*
X182701861Y-114892443D01*
X182701854Y-114892439D01*
X182361393Y-114718966D01*
X182358453Y-114717468D01*
X181995562Y-114578167D01*
X181620099Y-114477562D01*
X181416207Y-114445268D01*
X181239424Y-114417268D01*
X181239416Y-114417267D01*
X181236176Y-114416754D01*
X180848000Y-114396411D01*
X180459824Y-114416754D01*
X180456584Y-114417267D01*
X180456576Y-114417268D01*
X180279793Y-114445268D01*
X180075901Y-114477562D01*
X179700438Y-114578167D01*
X179337547Y-114717468D01*
X179334607Y-114718966D01*
X178994147Y-114892439D01*
X178994140Y-114892443D01*
X178991206Y-114893938D01*
X178665207Y-115105643D01*
X178363124Y-115350266D01*
X178088266Y-115625124D01*
X177843643Y-115927207D01*
X177631938Y-116253206D01*
X177455468Y-116599547D01*
X177316167Y-116962438D01*
X177215562Y-117337901D01*
X177154754Y-117721824D01*
X177134411Y-118110000D01*
X135128500Y-118110000D01*
X135128500Y-110624906D01*
X140389839Y-110624906D01*
X140398553Y-110636427D01*
X140505452Y-110714809D01*
X140513351Y-110719745D01*
X140742905Y-110840519D01*
X140751454Y-110844236D01*
X140996327Y-110929749D01*
X141005336Y-110932163D01*
X141260166Y-110980544D01*
X141269423Y-110981598D01*
X141528607Y-110991783D01*
X141537921Y-110991457D01*
X141795753Y-110963220D01*
X141804930Y-110961519D01*
X142055758Y-110895481D01*
X142064574Y-110892445D01*
X142302880Y-110790062D01*
X142311167Y-110785748D01*
X142531718Y-110649266D01*
X142539268Y-110643780D01*
X142544559Y-110639301D01*
X142552997Y-110626497D01*
X142546935Y-110616145D01*
X141482812Y-109552022D01*
X141468868Y-109544408D01*
X141467035Y-109544539D01*
X141460420Y-109548790D01*
X140396497Y-110612713D01*
X140389839Y-110624906D01*
X135128500Y-110624906D01*
X135128500Y-109137211D01*
X139657775Y-109137211D01*
X139670220Y-109396288D01*
X139671356Y-109405543D01*
X139721961Y-109659945D01*
X139724449Y-109668917D01*
X139812095Y-109913033D01*
X139815895Y-109921568D01*
X139938658Y-110150042D01*
X139943666Y-110157904D01*
X140013720Y-110251716D01*
X140024979Y-110260165D01*
X140037397Y-110253393D01*
X141097978Y-109192812D01*
X141104356Y-109181132D01*
X141834408Y-109181132D01*
X141834539Y-109182965D01*
X141838790Y-109189580D01*
X142906094Y-110256884D01*
X142918474Y-110263644D01*
X142926815Y-110257400D01*
X143060832Y-110049048D01*
X143065275Y-110040864D01*
X143171807Y-109804370D01*
X143174997Y-109795605D01*
X143245402Y-109545972D01*
X143247262Y-109536830D01*
X143280187Y-109278019D01*
X143280668Y-109271733D01*
X143281258Y-109249216D01*
X175978502Y-109249216D01*
X175998457Y-109477303D01*
X176057716Y-109698459D01*
X176060039Y-109703440D01*
X176060039Y-109703441D01*
X176152151Y-109900978D01*
X176152154Y-109900983D01*
X176154477Y-109905965D01*
X176227902Y-110010827D01*
X176248935Y-110040864D01*
X176285802Y-110093516D01*
X176447700Y-110255414D01*
X176452208Y-110258571D01*
X176452211Y-110258573D01*
X176530389Y-110313314D01*
X176635251Y-110386739D01*
X176640233Y-110389062D01*
X176640238Y-110389065D01*
X176837775Y-110481177D01*
X176842757Y-110483500D01*
X176848065Y-110484922D01*
X176848067Y-110484923D01*
X177058598Y-110541335D01*
X177058600Y-110541335D01*
X177063913Y-110542759D01*
X177292000Y-110562714D01*
X177520087Y-110542759D01*
X177525400Y-110541335D01*
X177525402Y-110541335D01*
X177735933Y-110484923D01*
X177735935Y-110484922D01*
X177741243Y-110483500D01*
X177746225Y-110481177D01*
X177943762Y-110389065D01*
X177943767Y-110389062D01*
X177948749Y-110386739D01*
X178053611Y-110313314D01*
X178131789Y-110258573D01*
X178131792Y-110258571D01*
X178136300Y-110255414D01*
X178298198Y-110093516D01*
X178335066Y-110040864D01*
X178356098Y-110010827D01*
X178429523Y-109905965D01*
X178431846Y-109900983D01*
X178431849Y-109900978D01*
X178523961Y-109703441D01*
X178523961Y-109703440D01*
X178526284Y-109698459D01*
X178585543Y-109477303D01*
X178605498Y-109249216D01*
X178585543Y-109021129D01*
X178557551Y-108916663D01*
X178527707Y-108805283D01*
X178527706Y-108805281D01*
X178526284Y-108799973D01*
X178437344Y-108609239D01*
X178431849Y-108597454D01*
X178431846Y-108597449D01*
X178429523Y-108592467D01*
X178298198Y-108404916D01*
X178136300Y-108243018D01*
X178131792Y-108239861D01*
X178131789Y-108239859D01*
X178021274Y-108162476D01*
X177948749Y-108111693D01*
X177943767Y-108109370D01*
X177943762Y-108109367D01*
X177746225Y-108017255D01*
X177746224Y-108017255D01*
X177741243Y-108014932D01*
X177735935Y-108013510D01*
X177735933Y-108013509D01*
X177525402Y-107957097D01*
X177525400Y-107957097D01*
X177520087Y-107955673D01*
X177292000Y-107935718D01*
X177063913Y-107955673D01*
X177058600Y-107957097D01*
X177058598Y-107957097D01*
X176848067Y-108013509D01*
X176848065Y-108013510D01*
X176842757Y-108014932D01*
X176837776Y-108017255D01*
X176837775Y-108017255D01*
X176640238Y-108109367D01*
X176640233Y-108109370D01*
X176635251Y-108111693D01*
X176562726Y-108162476D01*
X176452211Y-108239859D01*
X176452208Y-108239861D01*
X176447700Y-108243018D01*
X176285802Y-108404916D01*
X176154477Y-108592467D01*
X176152154Y-108597449D01*
X176152151Y-108597454D01*
X176146656Y-108609239D01*
X176057716Y-108799973D01*
X176056294Y-108805281D01*
X176056293Y-108805283D01*
X176026449Y-108916663D01*
X175998457Y-109021129D01*
X175978502Y-109249216D01*
X143281258Y-109249216D01*
X143282987Y-109183160D01*
X143282836Y-109176851D01*
X143263501Y-108916663D01*
X143262125Y-108907457D01*
X143204878Y-108654467D01*
X143202154Y-108645556D01*
X143108143Y-108403806D01*
X143104132Y-108395397D01*
X142975422Y-108170202D01*
X142970211Y-108162476D01*
X142926996Y-108107658D01*
X142915071Y-108099187D01*
X142903537Y-108105673D01*
X141842022Y-109167188D01*
X141834408Y-109181132D01*
X141104356Y-109181132D01*
X141105592Y-109178868D01*
X141105461Y-109177035D01*
X141101210Y-109170420D01*
X140035816Y-108105026D01*
X140022507Y-108097758D01*
X140012472Y-108104878D01*
X139996937Y-108123556D01*
X139991531Y-108131135D01*
X139856965Y-108352891D01*
X139852736Y-108361192D01*
X139752432Y-108600389D01*
X139749471Y-108609239D01*
X139685628Y-108860625D01*
X139684006Y-108869822D01*
X139658020Y-109127885D01*
X139657775Y-109137211D01*
X135128500Y-109137211D01*
X135128500Y-107732689D01*
X140387102Y-107732689D01*
X140391675Y-107742465D01*
X141457188Y-108807978D01*
X141471132Y-108815592D01*
X141472965Y-108815461D01*
X141479580Y-108811210D01*
X142544349Y-107746441D01*
X142550733Y-107734751D01*
X142541321Y-107722641D01*
X142394045Y-107620471D01*
X142386010Y-107615738D01*
X142153376Y-107501016D01*
X142144743Y-107497528D01*
X141897703Y-107418450D01*
X141888643Y-107416274D01*
X141632630Y-107374580D01*
X141623343Y-107373768D01*
X141363992Y-107370373D01*
X141354681Y-107370943D01*
X141097682Y-107405919D01*
X141088546Y-107407860D01*
X140839543Y-107480439D01*
X140830800Y-107483707D01*
X140595252Y-107592296D01*
X140587097Y-107596816D01*
X140396240Y-107721947D01*
X140387102Y-107732689D01*
X135128500Y-107732689D01*
X135128500Y-105528134D01*
X139661500Y-105528134D01*
X139668255Y-105590316D01*
X139719385Y-105726705D01*
X139806739Y-105843261D01*
X139923295Y-105930615D01*
X140059684Y-105981745D01*
X140121866Y-105988500D01*
X142818134Y-105988500D01*
X142880316Y-105981745D01*
X143016705Y-105930615D01*
X143133261Y-105843261D01*
X143220615Y-105726705D01*
X143271745Y-105590316D01*
X143278500Y-105528134D01*
X143278500Y-104249216D01*
X175978502Y-104249216D01*
X175998457Y-104477303D01*
X176057716Y-104698459D01*
X176060039Y-104703440D01*
X176060039Y-104703441D01*
X176152151Y-104900978D01*
X176152154Y-104900983D01*
X176154477Y-104905965D01*
X176285802Y-105093516D01*
X176447700Y-105255414D01*
X176452208Y-105258571D01*
X176452211Y-105258573D01*
X176530389Y-105313314D01*
X176635251Y-105386739D01*
X176640233Y-105389062D01*
X176640238Y-105389065D01*
X176837775Y-105481177D01*
X176842757Y-105483500D01*
X176848065Y-105484922D01*
X176848067Y-105484923D01*
X177058598Y-105541335D01*
X177058600Y-105541335D01*
X177063913Y-105542759D01*
X177292000Y-105562714D01*
X177520087Y-105542759D01*
X177525400Y-105541335D01*
X177525402Y-105541335D01*
X177735933Y-105484923D01*
X177735935Y-105484922D01*
X177741243Y-105483500D01*
X177746225Y-105481177D01*
X177943762Y-105389065D01*
X177943767Y-105389062D01*
X177948749Y-105386739D01*
X178053611Y-105313314D01*
X178131789Y-105258573D01*
X178131792Y-105258571D01*
X178136300Y-105255414D01*
X178298198Y-105093516D01*
X178429523Y-104905965D01*
X178431846Y-104900983D01*
X178431849Y-104900978D01*
X178523961Y-104703441D01*
X178523961Y-104703440D01*
X178526284Y-104698459D01*
X178585543Y-104477303D01*
X178605498Y-104249216D01*
X178585543Y-104021129D01*
X178526284Y-103799973D01*
X178523961Y-103794991D01*
X178431849Y-103597454D01*
X178431846Y-103597449D01*
X178429523Y-103592467D01*
X178298198Y-103404916D01*
X178136300Y-103243018D01*
X178131792Y-103239861D01*
X178131789Y-103239859D01*
X178053611Y-103185118D01*
X177948749Y-103111693D01*
X177943767Y-103109370D01*
X177943762Y-103109367D01*
X177746225Y-103017255D01*
X177746224Y-103017255D01*
X177741243Y-103014932D01*
X177735935Y-103013510D01*
X177735933Y-103013509D01*
X177525402Y-102957097D01*
X177525400Y-102957097D01*
X177520087Y-102955673D01*
X177292000Y-102935718D01*
X177063913Y-102955673D01*
X177058600Y-102957097D01*
X177058598Y-102957097D01*
X176848067Y-103013509D01*
X176848065Y-103013510D01*
X176842757Y-103014932D01*
X176837776Y-103017255D01*
X176837775Y-103017255D01*
X176640238Y-103109367D01*
X176640233Y-103109370D01*
X176635251Y-103111693D01*
X176530389Y-103185118D01*
X176452211Y-103239859D01*
X176452208Y-103239861D01*
X176447700Y-103243018D01*
X176285802Y-103404916D01*
X176154477Y-103592467D01*
X176152154Y-103597449D01*
X176152151Y-103597454D01*
X176060039Y-103794991D01*
X176057716Y-103799973D01*
X175998457Y-104021129D01*
X175978502Y-104249216D01*
X143278500Y-104249216D01*
X143278500Y-102831866D01*
X143271745Y-102769684D01*
X143220615Y-102633295D01*
X143133261Y-102516739D01*
X143016705Y-102429385D01*
X142880316Y-102378255D01*
X142818134Y-102371500D01*
X140121866Y-102371500D01*
X140059684Y-102378255D01*
X139923295Y-102429385D01*
X139806739Y-102516739D01*
X139719385Y-102633295D01*
X139668255Y-102769684D01*
X139661500Y-102831866D01*
X139661500Y-105528134D01*
X135128500Y-105528134D01*
X135128500Y-101653250D01*
X135130246Y-101632345D01*
X135132770Y-101617344D01*
X135132770Y-101617341D01*
X135133576Y-101612552D01*
X135133729Y-101600000D01*
X135133039Y-101595184D01*
X135133039Y-101595178D01*
X135131387Y-101583644D01*
X135130234Y-101560284D01*
X135145656Y-101207064D01*
X135146614Y-101196114D01*
X135197233Y-100811621D01*
X135199142Y-100800795D01*
X135283080Y-100422178D01*
X135285925Y-100411561D01*
X135402539Y-100041706D01*
X135406298Y-100031377D01*
X135554711Y-99673077D01*
X135559357Y-99663115D01*
X135738423Y-99319133D01*
X135743919Y-99309613D01*
X135952292Y-98982532D01*
X135958597Y-98973528D01*
X136194678Y-98665862D01*
X136201743Y-98657442D01*
X136463744Y-98371517D01*
X136471517Y-98363744D01*
X136757442Y-98101743D01*
X136765862Y-98094678D01*
X137073528Y-97858597D01*
X137082532Y-97852292D01*
X137409613Y-97643919D01*
X137419133Y-97638423D01*
X137763124Y-97459353D01*
X137773068Y-97454715D01*
X138131385Y-97306295D01*
X138141698Y-97302542D01*
X138341298Y-97239608D01*
X138511561Y-97185925D01*
X138522178Y-97183080D01*
X138900795Y-97099142D01*
X138911621Y-97097233D01*
X139296114Y-97046614D01*
X139307063Y-97045656D01*
X139656554Y-97030397D01*
X139681429Y-97031777D01*
X139693724Y-97033691D01*
X139702626Y-97032527D01*
X139702628Y-97032527D01*
X139721399Y-97030072D01*
X139725286Y-97029564D01*
X139741621Y-97028500D01*
X180290633Y-97028500D01*
X180310018Y-97030000D01*
G37*
%TD.AperFunction*%
M02*
