%TF.GenerationSoftware,KiCad,Pcbnew,(6.0.7)*%
%TF.CreationDate,2022-08-15T12:54:55-04:00*%
%TF.ProjectId,2022_generic,32303232-5f67-4656-9e65-7269632e6b69,rev?*%
%TF.SameCoordinates,Original*%
%TF.FileFunction,Drillmap*%
%TF.FilePolarity,Positive*%
%FSLAX45Y45*%
G04 Gerber Fmt 4.5, Leading zero omitted, Abs format (unit mm)*
G04 Created by KiCad (PCBNEW (6.0.7)) date 2022-08-15 12:54:55*
%MOMM*%
%LPD*%
G01*
G04 APERTURE LIST*
%ADD10C,0.100000*%
%ADD11C,0.200000*%
%ADD12C,0.038100*%
%ADD13C,0.080000*%
%ADD14C,0.110000*%
%ADD15C,0.130000*%
%ADD16C,0.320000*%
G04 APERTURE END LIST*
D10*
X18034000Y-13970000D02*
G75*
G03*
X18542000Y-13462000I0J508000D01*
G01*
X18542000Y-10160000D02*
G75*
G03*
X18034000Y-9652000I-508000J0D01*
G01*
X18542000Y-10160000D02*
X18542000Y-13462000D01*
X18034000Y-13970000D02*
X13970000Y-13970000D01*
X13970000Y-9652000D02*
G75*
G03*
X13462000Y-10160000I0J-508000D01*
G01*
X13970000Y-9652000D02*
X18034000Y-9652000D01*
X13462000Y-13462000D02*
X13462000Y-10160000D01*
X13462000Y-13462000D02*
G75*
G03*
X13970000Y-13970000I508000J0D01*
G01*
D11*
D12*
X14763750Y-11436350D02*
X14801850Y-11474450D01*
X14801850Y-11436350D02*
X14763750Y-11474450D01*
X15601950Y-10953750D02*
X15640050Y-10991850D01*
X15640050Y-10953750D02*
X15601950Y-10991850D01*
X15609570Y-11581130D02*
X15647670Y-11619230D01*
X15647670Y-11581130D02*
X15609570Y-11619230D01*
D13*
X17769200Y-10424922D02*
G75*
G03*
X17769200Y-10424922I-40000J0D01*
G01*
X17769200Y-10924922D02*
G75*
G03*
X17769200Y-10924922I-40000J0D01*
G01*
D10*
X15113000Y-13742200D02*
X15113000Y-13842200D01*
X15063000Y-13792200D02*
X15163000Y-13792200D01*
X16637000Y-13742200D02*
X16637000Y-13842200D01*
X16587000Y-13792200D02*
X16687000Y-13792200D01*
X17352200Y-12451400D02*
X17352200Y-12551400D01*
X17302200Y-12501400D02*
X17402200Y-12501400D01*
X17602200Y-12451400D02*
X17602200Y-12551400D01*
X17552200Y-12501400D02*
X17652200Y-12501400D01*
X17852200Y-12451400D02*
X17852200Y-12551400D01*
X17802200Y-12501400D02*
X17902200Y-12501400D01*
D14*
X14115691Y-13250491D02*
X14115691Y-13172709D01*
X14037909Y-13172709D01*
X14037909Y-13250491D01*
X14115691Y-13250491D01*
X14115691Y-13700491D02*
X14115691Y-13622709D01*
X14037909Y-13622709D01*
X14037909Y-13700491D01*
X14115691Y-13700491D01*
X14765691Y-13250491D02*
X14765691Y-13172709D01*
X14687909Y-13172709D01*
X14687909Y-13250491D01*
X14765691Y-13250491D01*
X14765691Y-13700491D02*
X14765691Y-13622709D01*
X14687909Y-13622709D01*
X14687909Y-13700491D01*
X14765691Y-13700491D01*
D15*
X14147000Y-10483000D02*
X14212000Y-10418000D01*
X14147000Y-10353000D01*
X14082000Y-10418000D01*
X14147000Y-10483000D01*
X14147000Y-10983000D02*
X14212000Y-10918000D01*
X14147000Y-10853000D01*
X14082000Y-10918000D01*
X14147000Y-10983000D01*
D16*
X17924800Y-11651000D02*
X18244800Y-11971000D01*
X18244800Y-11651000D02*
X17924800Y-11971000D01*
X18244800Y-11811000D02*
G75*
G03*
X18244800Y-11811000I-160000J0D01*
G01*
D11*
X13714619Y-14285476D02*
X13714619Y-14085476D01*
X13762238Y-14085476D01*
X13790809Y-14095000D01*
X13809857Y-14114048D01*
X13819381Y-14133095D01*
X13828905Y-14171190D01*
X13828905Y-14199762D01*
X13819381Y-14237857D01*
X13809857Y-14256905D01*
X13790809Y-14275952D01*
X13762238Y-14285476D01*
X13714619Y-14285476D01*
X13914619Y-14285476D02*
X13914619Y-14152143D01*
X13914619Y-14190238D02*
X13924143Y-14171190D01*
X13933667Y-14161667D01*
X13952714Y-14152143D01*
X13971762Y-14152143D01*
X14038428Y-14285476D02*
X14038428Y-14152143D01*
X14038428Y-14085476D02*
X14028905Y-14095000D01*
X14038428Y-14104524D01*
X14047952Y-14095000D01*
X14038428Y-14085476D01*
X14038428Y-14104524D01*
X14162238Y-14285476D02*
X14143190Y-14275952D01*
X14133667Y-14256905D01*
X14133667Y-14085476D01*
X14267000Y-14285476D02*
X14247952Y-14275952D01*
X14238428Y-14256905D01*
X14238428Y-14085476D01*
X14495571Y-14285476D02*
X14495571Y-14085476D01*
X14562238Y-14228333D01*
X14628905Y-14085476D01*
X14628905Y-14285476D01*
X14809857Y-14285476D02*
X14809857Y-14180714D01*
X14800333Y-14161667D01*
X14781286Y-14152143D01*
X14743190Y-14152143D01*
X14724143Y-14161667D01*
X14809857Y-14275952D02*
X14790809Y-14285476D01*
X14743190Y-14285476D01*
X14724143Y-14275952D01*
X14714619Y-14256905D01*
X14714619Y-14237857D01*
X14724143Y-14218809D01*
X14743190Y-14209286D01*
X14790809Y-14209286D01*
X14809857Y-14199762D01*
X14905095Y-14152143D02*
X14905095Y-14352143D01*
X14905095Y-14161667D02*
X14924143Y-14152143D01*
X14962238Y-14152143D01*
X14981286Y-14161667D01*
X14990809Y-14171190D01*
X15000333Y-14190238D01*
X15000333Y-14247381D01*
X14990809Y-14266428D01*
X14981286Y-14275952D01*
X14962238Y-14285476D01*
X14924143Y-14285476D01*
X14905095Y-14275952D01*
X15086048Y-14266428D02*
X15095571Y-14275952D01*
X15086048Y-14285476D01*
X15076524Y-14275952D01*
X15086048Y-14266428D01*
X15086048Y-14285476D01*
X15086048Y-14161667D02*
X15095571Y-14171190D01*
X15086048Y-14180714D01*
X15076524Y-14171190D01*
X15086048Y-14161667D01*
X15086048Y-14180714D01*
D12*
X13418900Y-14595950D02*
X13457000Y-14634050D01*
X13457000Y-14595950D02*
X13418900Y-14634050D01*
D11*
X13752714Y-14505476D02*
X13771762Y-14505476D01*
X13790809Y-14515000D01*
X13800333Y-14524524D01*
X13809857Y-14543571D01*
X13819381Y-14581667D01*
X13819381Y-14629286D01*
X13809857Y-14667381D01*
X13800333Y-14686428D01*
X13790809Y-14695952D01*
X13771762Y-14705476D01*
X13752714Y-14705476D01*
X13733667Y-14695952D01*
X13724143Y-14686428D01*
X13714619Y-14667381D01*
X13705095Y-14629286D01*
X13705095Y-14581667D01*
X13714619Y-14543571D01*
X13724143Y-14524524D01*
X13733667Y-14515000D01*
X13752714Y-14505476D01*
X13905095Y-14686428D02*
X13914619Y-14695952D01*
X13905095Y-14705476D01*
X13895571Y-14695952D01*
X13905095Y-14686428D01*
X13905095Y-14705476D01*
X13981286Y-14505476D02*
X14105095Y-14505476D01*
X14038428Y-14581667D01*
X14067000Y-14581667D01*
X14086048Y-14591190D01*
X14095571Y-14600714D01*
X14105095Y-14619762D01*
X14105095Y-14667381D01*
X14095571Y-14686428D01*
X14086048Y-14695952D01*
X14067000Y-14705476D01*
X14009857Y-14705476D01*
X13990809Y-14695952D01*
X13981286Y-14686428D01*
X14219381Y-14591190D02*
X14200333Y-14581667D01*
X14190809Y-14572143D01*
X14181286Y-14553095D01*
X14181286Y-14543571D01*
X14190809Y-14524524D01*
X14200333Y-14515000D01*
X14219381Y-14505476D01*
X14257476Y-14505476D01*
X14276524Y-14515000D01*
X14286048Y-14524524D01*
X14295571Y-14543571D01*
X14295571Y-14553095D01*
X14286048Y-14572143D01*
X14276524Y-14581667D01*
X14257476Y-14591190D01*
X14219381Y-14591190D01*
X14200333Y-14600714D01*
X14190809Y-14610238D01*
X14181286Y-14629286D01*
X14181286Y-14667381D01*
X14190809Y-14686428D01*
X14200333Y-14695952D01*
X14219381Y-14705476D01*
X14257476Y-14705476D01*
X14276524Y-14695952D01*
X14286048Y-14686428D01*
X14295571Y-14667381D01*
X14295571Y-14629286D01*
X14286048Y-14610238D01*
X14276524Y-14600714D01*
X14257476Y-14591190D01*
X14486048Y-14705476D02*
X14371762Y-14705476D01*
X14428905Y-14705476D02*
X14428905Y-14505476D01*
X14409857Y-14534048D01*
X14390809Y-14553095D01*
X14371762Y-14562619D01*
X14571762Y-14705476D02*
X14571762Y-14572143D01*
X14571762Y-14591190D02*
X14581286Y-14581667D01*
X14600333Y-14572143D01*
X14628905Y-14572143D01*
X14647952Y-14581667D01*
X14657476Y-14600714D01*
X14657476Y-14705476D01*
X14657476Y-14600714D02*
X14667000Y-14581667D01*
X14686048Y-14572143D01*
X14714619Y-14572143D01*
X14733667Y-14581667D01*
X14743190Y-14600714D01*
X14743190Y-14705476D01*
X14838428Y-14705476D02*
X14838428Y-14572143D01*
X14838428Y-14591190D02*
X14847952Y-14581667D01*
X14867000Y-14572143D01*
X14895571Y-14572143D01*
X14914619Y-14581667D01*
X14924143Y-14600714D01*
X14924143Y-14705476D01*
X14924143Y-14600714D02*
X14933667Y-14581667D01*
X14952714Y-14572143D01*
X14981286Y-14572143D01*
X15000333Y-14581667D01*
X15009857Y-14600714D01*
X15009857Y-14705476D01*
X15400333Y-14495952D02*
X15228905Y-14753095D01*
X15657476Y-14505476D02*
X15676524Y-14505476D01*
X15695571Y-14515000D01*
X15705095Y-14524524D01*
X15714619Y-14543571D01*
X15724143Y-14581667D01*
X15724143Y-14629286D01*
X15714619Y-14667381D01*
X15705095Y-14686428D01*
X15695571Y-14695952D01*
X15676524Y-14705476D01*
X15657476Y-14705476D01*
X15638428Y-14695952D01*
X15628905Y-14686428D01*
X15619381Y-14667381D01*
X15609857Y-14629286D01*
X15609857Y-14581667D01*
X15619381Y-14543571D01*
X15628905Y-14524524D01*
X15638428Y-14515000D01*
X15657476Y-14505476D01*
X15809857Y-14686428D02*
X15819381Y-14695952D01*
X15809857Y-14705476D01*
X15800333Y-14695952D01*
X15809857Y-14686428D01*
X15809857Y-14705476D01*
X15943190Y-14505476D02*
X15962238Y-14505476D01*
X15981286Y-14515000D01*
X15990809Y-14524524D01*
X16000333Y-14543571D01*
X16009857Y-14581667D01*
X16009857Y-14629286D01*
X16000333Y-14667381D01*
X15990809Y-14686428D01*
X15981286Y-14695952D01*
X15962238Y-14705476D01*
X15943190Y-14705476D01*
X15924143Y-14695952D01*
X15914619Y-14686428D01*
X15905095Y-14667381D01*
X15895571Y-14629286D01*
X15895571Y-14581667D01*
X15905095Y-14543571D01*
X15914619Y-14524524D01*
X15924143Y-14515000D01*
X15943190Y-14505476D01*
X16200333Y-14705476D02*
X16086048Y-14705476D01*
X16143190Y-14705476D02*
X16143190Y-14505476D01*
X16124143Y-14534048D01*
X16105095Y-14553095D01*
X16086048Y-14562619D01*
X16381286Y-14505476D02*
X16286048Y-14505476D01*
X16276524Y-14600714D01*
X16286048Y-14591190D01*
X16305095Y-14581667D01*
X16352714Y-14581667D01*
X16371762Y-14591190D01*
X16381286Y-14600714D01*
X16390809Y-14619762D01*
X16390809Y-14667381D01*
X16381286Y-14686428D01*
X16371762Y-14695952D01*
X16352714Y-14705476D01*
X16305095Y-14705476D01*
X16286048Y-14695952D01*
X16276524Y-14686428D01*
X16514619Y-14505476D02*
X16533667Y-14505476D01*
X16552714Y-14515000D01*
X16562238Y-14524524D01*
X16571762Y-14543571D01*
X16581286Y-14581667D01*
X16581286Y-14629286D01*
X16571762Y-14667381D01*
X16562238Y-14686428D01*
X16552714Y-14695952D01*
X16533667Y-14705476D01*
X16514619Y-14705476D01*
X16495571Y-14695952D01*
X16486048Y-14686428D01*
X16476524Y-14667381D01*
X16467000Y-14629286D01*
X16467000Y-14581667D01*
X16476524Y-14543571D01*
X16486048Y-14524524D01*
X16495571Y-14515000D01*
X16514619Y-14505476D01*
X16657476Y-14505476D02*
X16657476Y-14543571D01*
X16733667Y-14505476D02*
X16733667Y-14543571D01*
X17028905Y-14781667D02*
X17019381Y-14772143D01*
X17000333Y-14743571D01*
X16990810Y-14724524D01*
X16981286Y-14695952D01*
X16971762Y-14648333D01*
X16971762Y-14610238D01*
X16981286Y-14562619D01*
X16990810Y-14534048D01*
X17000333Y-14515000D01*
X17019381Y-14486428D01*
X17028905Y-14476905D01*
X17086048Y-14505476D02*
X17209857Y-14505476D01*
X17143190Y-14581667D01*
X17171762Y-14581667D01*
X17190810Y-14591190D01*
X17200333Y-14600714D01*
X17209857Y-14619762D01*
X17209857Y-14667381D01*
X17200333Y-14686428D01*
X17190810Y-14695952D01*
X17171762Y-14705476D01*
X17114619Y-14705476D01*
X17095571Y-14695952D01*
X17086048Y-14686428D01*
X17447952Y-14705476D02*
X17447952Y-14505476D01*
X17533667Y-14705476D02*
X17533667Y-14600714D01*
X17524143Y-14581667D01*
X17505095Y-14572143D01*
X17476524Y-14572143D01*
X17457476Y-14581667D01*
X17447952Y-14591190D01*
X17657476Y-14705476D02*
X17638429Y-14695952D01*
X17628905Y-14686428D01*
X17619381Y-14667381D01*
X17619381Y-14610238D01*
X17628905Y-14591190D01*
X17638429Y-14581667D01*
X17657476Y-14572143D01*
X17686048Y-14572143D01*
X17705095Y-14581667D01*
X17714619Y-14591190D01*
X17724143Y-14610238D01*
X17724143Y-14667381D01*
X17714619Y-14686428D01*
X17705095Y-14695952D01*
X17686048Y-14705476D01*
X17657476Y-14705476D01*
X17838429Y-14705476D02*
X17819381Y-14695952D01*
X17809857Y-14676905D01*
X17809857Y-14505476D01*
X17990810Y-14695952D02*
X17971762Y-14705476D01*
X17933667Y-14705476D01*
X17914619Y-14695952D01*
X17905095Y-14676905D01*
X17905095Y-14600714D01*
X17914619Y-14581667D01*
X17933667Y-14572143D01*
X17971762Y-14572143D01*
X17990810Y-14581667D01*
X18000333Y-14600714D01*
X18000333Y-14619762D01*
X17905095Y-14638809D01*
X18076524Y-14695952D02*
X18095571Y-14705476D01*
X18133667Y-14705476D01*
X18152714Y-14695952D01*
X18162238Y-14676905D01*
X18162238Y-14667381D01*
X18152714Y-14648333D01*
X18133667Y-14638809D01*
X18105095Y-14638809D01*
X18086048Y-14629286D01*
X18076524Y-14610238D01*
X18076524Y-14600714D01*
X18086048Y-14581667D01*
X18105095Y-14572143D01*
X18133667Y-14572143D01*
X18152714Y-14581667D01*
X18228905Y-14781667D02*
X18238429Y-14772143D01*
X18257476Y-14743571D01*
X18267000Y-14724524D01*
X18276524Y-14695952D01*
X18286048Y-14648333D01*
X18286048Y-14610238D01*
X18276524Y-14562619D01*
X18267000Y-14534048D01*
X18257476Y-14515000D01*
X18238429Y-14486428D01*
X18228905Y-14476905D01*
D13*
X13457000Y-14879000D02*
G75*
G03*
X13457000Y-14879000I-40000J0D01*
G01*
D11*
X13752714Y-14769476D02*
X13771762Y-14769476D01*
X13790809Y-14779000D01*
X13800333Y-14788524D01*
X13809857Y-14807571D01*
X13819381Y-14845667D01*
X13819381Y-14893286D01*
X13809857Y-14931381D01*
X13800333Y-14950428D01*
X13790809Y-14959952D01*
X13771762Y-14969476D01*
X13752714Y-14969476D01*
X13733667Y-14959952D01*
X13724143Y-14950428D01*
X13714619Y-14931381D01*
X13705095Y-14893286D01*
X13705095Y-14845667D01*
X13714619Y-14807571D01*
X13724143Y-14788524D01*
X13733667Y-14779000D01*
X13752714Y-14769476D01*
X13905095Y-14950428D02*
X13914619Y-14959952D01*
X13905095Y-14969476D01*
X13895571Y-14959952D01*
X13905095Y-14950428D01*
X13905095Y-14969476D01*
X14028905Y-14855190D02*
X14009857Y-14845667D01*
X14000333Y-14836143D01*
X13990809Y-14817095D01*
X13990809Y-14807571D01*
X14000333Y-14788524D01*
X14009857Y-14779000D01*
X14028905Y-14769476D01*
X14067000Y-14769476D01*
X14086048Y-14779000D01*
X14095571Y-14788524D01*
X14105095Y-14807571D01*
X14105095Y-14817095D01*
X14095571Y-14836143D01*
X14086048Y-14845667D01*
X14067000Y-14855190D01*
X14028905Y-14855190D01*
X14009857Y-14864714D01*
X14000333Y-14874238D01*
X13990809Y-14893286D01*
X13990809Y-14931381D01*
X14000333Y-14950428D01*
X14009857Y-14959952D01*
X14028905Y-14969476D01*
X14067000Y-14969476D01*
X14086048Y-14959952D01*
X14095571Y-14950428D01*
X14105095Y-14931381D01*
X14105095Y-14893286D01*
X14095571Y-14874238D01*
X14086048Y-14864714D01*
X14067000Y-14855190D01*
X14228905Y-14769476D02*
X14247952Y-14769476D01*
X14267000Y-14779000D01*
X14276524Y-14788524D01*
X14286048Y-14807571D01*
X14295571Y-14845667D01*
X14295571Y-14893286D01*
X14286048Y-14931381D01*
X14276524Y-14950428D01*
X14267000Y-14959952D01*
X14247952Y-14969476D01*
X14228905Y-14969476D01*
X14209857Y-14959952D01*
X14200333Y-14950428D01*
X14190809Y-14931381D01*
X14181286Y-14893286D01*
X14181286Y-14845667D01*
X14190809Y-14807571D01*
X14200333Y-14788524D01*
X14209857Y-14779000D01*
X14228905Y-14769476D01*
X14419381Y-14769476D02*
X14438428Y-14769476D01*
X14457476Y-14779000D01*
X14467000Y-14788524D01*
X14476524Y-14807571D01*
X14486048Y-14845667D01*
X14486048Y-14893286D01*
X14476524Y-14931381D01*
X14467000Y-14950428D01*
X14457476Y-14959952D01*
X14438428Y-14969476D01*
X14419381Y-14969476D01*
X14400333Y-14959952D01*
X14390809Y-14950428D01*
X14381286Y-14931381D01*
X14371762Y-14893286D01*
X14371762Y-14845667D01*
X14381286Y-14807571D01*
X14390809Y-14788524D01*
X14400333Y-14779000D01*
X14419381Y-14769476D01*
X14571762Y-14969476D02*
X14571762Y-14836143D01*
X14571762Y-14855190D02*
X14581286Y-14845667D01*
X14600333Y-14836143D01*
X14628905Y-14836143D01*
X14647952Y-14845667D01*
X14657476Y-14864714D01*
X14657476Y-14969476D01*
X14657476Y-14864714D02*
X14667000Y-14845667D01*
X14686048Y-14836143D01*
X14714619Y-14836143D01*
X14733667Y-14845667D01*
X14743190Y-14864714D01*
X14743190Y-14969476D01*
X14838428Y-14969476D02*
X14838428Y-14836143D01*
X14838428Y-14855190D02*
X14847952Y-14845667D01*
X14867000Y-14836143D01*
X14895571Y-14836143D01*
X14914619Y-14845667D01*
X14924143Y-14864714D01*
X14924143Y-14969476D01*
X14924143Y-14864714D02*
X14933667Y-14845667D01*
X14952714Y-14836143D01*
X14981286Y-14836143D01*
X15000333Y-14845667D01*
X15009857Y-14864714D01*
X15009857Y-14969476D01*
X15400333Y-14759952D02*
X15228905Y-15017095D01*
X15657476Y-14769476D02*
X15676524Y-14769476D01*
X15695571Y-14779000D01*
X15705095Y-14788524D01*
X15714619Y-14807571D01*
X15724143Y-14845667D01*
X15724143Y-14893286D01*
X15714619Y-14931381D01*
X15705095Y-14950428D01*
X15695571Y-14959952D01*
X15676524Y-14969476D01*
X15657476Y-14969476D01*
X15638428Y-14959952D01*
X15628905Y-14950428D01*
X15619381Y-14931381D01*
X15609857Y-14893286D01*
X15609857Y-14845667D01*
X15619381Y-14807571D01*
X15628905Y-14788524D01*
X15638428Y-14779000D01*
X15657476Y-14769476D01*
X15809857Y-14950428D02*
X15819381Y-14959952D01*
X15809857Y-14969476D01*
X15800333Y-14959952D01*
X15809857Y-14950428D01*
X15809857Y-14969476D01*
X15943190Y-14769476D02*
X15962238Y-14769476D01*
X15981286Y-14779000D01*
X15990809Y-14788524D01*
X16000333Y-14807571D01*
X16009857Y-14845667D01*
X16009857Y-14893286D01*
X16000333Y-14931381D01*
X15990809Y-14950428D01*
X15981286Y-14959952D01*
X15962238Y-14969476D01*
X15943190Y-14969476D01*
X15924143Y-14959952D01*
X15914619Y-14950428D01*
X15905095Y-14931381D01*
X15895571Y-14893286D01*
X15895571Y-14845667D01*
X15905095Y-14807571D01*
X15914619Y-14788524D01*
X15924143Y-14779000D01*
X15943190Y-14769476D01*
X16076524Y-14769476D02*
X16200333Y-14769476D01*
X16133667Y-14845667D01*
X16162238Y-14845667D01*
X16181286Y-14855190D01*
X16190809Y-14864714D01*
X16200333Y-14883762D01*
X16200333Y-14931381D01*
X16190809Y-14950428D01*
X16181286Y-14959952D01*
X16162238Y-14969476D01*
X16105095Y-14969476D01*
X16086048Y-14959952D01*
X16076524Y-14950428D01*
X16390809Y-14969476D02*
X16276524Y-14969476D01*
X16333667Y-14969476D02*
X16333667Y-14769476D01*
X16314619Y-14798048D01*
X16295571Y-14817095D01*
X16276524Y-14826619D01*
X16571762Y-14769476D02*
X16476524Y-14769476D01*
X16467000Y-14864714D01*
X16476524Y-14855190D01*
X16495571Y-14845667D01*
X16543190Y-14845667D01*
X16562238Y-14855190D01*
X16571762Y-14864714D01*
X16581286Y-14883762D01*
X16581286Y-14931381D01*
X16571762Y-14950428D01*
X16562238Y-14959952D01*
X16543190Y-14969476D01*
X16495571Y-14969476D01*
X16476524Y-14959952D01*
X16467000Y-14950428D01*
X16657476Y-14769476D02*
X16657476Y-14807571D01*
X16733667Y-14769476D02*
X16733667Y-14807571D01*
X17028905Y-15045667D02*
X17019381Y-15036143D01*
X17000333Y-15007571D01*
X16990810Y-14988524D01*
X16981286Y-14959952D01*
X16971762Y-14912333D01*
X16971762Y-14874238D01*
X16981286Y-14826619D01*
X16990810Y-14798048D01*
X17000333Y-14779000D01*
X17019381Y-14750428D01*
X17028905Y-14740905D01*
X17095571Y-14788524D02*
X17105095Y-14779000D01*
X17124143Y-14769476D01*
X17171762Y-14769476D01*
X17190810Y-14779000D01*
X17200333Y-14788524D01*
X17209857Y-14807571D01*
X17209857Y-14826619D01*
X17200333Y-14855190D01*
X17086048Y-14969476D01*
X17209857Y-14969476D01*
X17447952Y-14969476D02*
X17447952Y-14769476D01*
X17533667Y-14969476D02*
X17533667Y-14864714D01*
X17524143Y-14845667D01*
X17505095Y-14836143D01*
X17476524Y-14836143D01*
X17457476Y-14845667D01*
X17447952Y-14855190D01*
X17657476Y-14969476D02*
X17638429Y-14959952D01*
X17628905Y-14950428D01*
X17619381Y-14931381D01*
X17619381Y-14874238D01*
X17628905Y-14855190D01*
X17638429Y-14845667D01*
X17657476Y-14836143D01*
X17686048Y-14836143D01*
X17705095Y-14845667D01*
X17714619Y-14855190D01*
X17724143Y-14874238D01*
X17724143Y-14931381D01*
X17714619Y-14950428D01*
X17705095Y-14959952D01*
X17686048Y-14969476D01*
X17657476Y-14969476D01*
X17838429Y-14969476D02*
X17819381Y-14959952D01*
X17809857Y-14940905D01*
X17809857Y-14769476D01*
X17990810Y-14959952D02*
X17971762Y-14969476D01*
X17933667Y-14969476D01*
X17914619Y-14959952D01*
X17905095Y-14940905D01*
X17905095Y-14864714D01*
X17914619Y-14845667D01*
X17933667Y-14836143D01*
X17971762Y-14836143D01*
X17990810Y-14845667D01*
X18000333Y-14864714D01*
X18000333Y-14883762D01*
X17905095Y-14902809D01*
X18076524Y-14959952D02*
X18095571Y-14969476D01*
X18133667Y-14969476D01*
X18152714Y-14959952D01*
X18162238Y-14940905D01*
X18162238Y-14931381D01*
X18152714Y-14912333D01*
X18133667Y-14902809D01*
X18105095Y-14902809D01*
X18086048Y-14893286D01*
X18076524Y-14874238D01*
X18076524Y-14864714D01*
X18086048Y-14845667D01*
X18105095Y-14836143D01*
X18133667Y-14836143D01*
X18152714Y-14845667D01*
X18228905Y-15045667D02*
X18238429Y-15036143D01*
X18257476Y-15007571D01*
X18267000Y-14988524D01*
X18276524Y-14959952D01*
X18286048Y-14912333D01*
X18286048Y-14874238D01*
X18276524Y-14826619D01*
X18267000Y-14798048D01*
X18257476Y-14779000D01*
X18238429Y-14750428D01*
X18228905Y-14740905D01*
D10*
X13407000Y-15093000D02*
X13407000Y-15193000D01*
X13357000Y-15143000D02*
X13457000Y-15143000D01*
D11*
X13819381Y-15233476D02*
X13705095Y-15233476D01*
X13762238Y-15233476D02*
X13762238Y-15033476D01*
X13743190Y-15062048D01*
X13724143Y-15081095D01*
X13705095Y-15090619D01*
X13905095Y-15214428D02*
X13914619Y-15223952D01*
X13905095Y-15233476D01*
X13895571Y-15223952D01*
X13905095Y-15214428D01*
X13905095Y-15233476D01*
X14038428Y-15033476D02*
X14057476Y-15033476D01*
X14076524Y-15043000D01*
X14086048Y-15052524D01*
X14095571Y-15071571D01*
X14105095Y-15109667D01*
X14105095Y-15157286D01*
X14095571Y-15195381D01*
X14086048Y-15214428D01*
X14076524Y-15223952D01*
X14057476Y-15233476D01*
X14038428Y-15233476D01*
X14019381Y-15223952D01*
X14009857Y-15214428D01*
X14000333Y-15195381D01*
X13990809Y-15157286D01*
X13990809Y-15109667D01*
X14000333Y-15071571D01*
X14009857Y-15052524D01*
X14019381Y-15043000D01*
X14038428Y-15033476D01*
X14228905Y-15033476D02*
X14247952Y-15033476D01*
X14267000Y-15043000D01*
X14276524Y-15052524D01*
X14286048Y-15071571D01*
X14295571Y-15109667D01*
X14295571Y-15157286D01*
X14286048Y-15195381D01*
X14276524Y-15214428D01*
X14267000Y-15223952D01*
X14247952Y-15233476D01*
X14228905Y-15233476D01*
X14209857Y-15223952D01*
X14200333Y-15214428D01*
X14190809Y-15195381D01*
X14181286Y-15157286D01*
X14181286Y-15109667D01*
X14190809Y-15071571D01*
X14200333Y-15052524D01*
X14209857Y-15043000D01*
X14228905Y-15033476D01*
X14419381Y-15033476D02*
X14438428Y-15033476D01*
X14457476Y-15043000D01*
X14467000Y-15052524D01*
X14476524Y-15071571D01*
X14486048Y-15109667D01*
X14486048Y-15157286D01*
X14476524Y-15195381D01*
X14467000Y-15214428D01*
X14457476Y-15223952D01*
X14438428Y-15233476D01*
X14419381Y-15233476D01*
X14400333Y-15223952D01*
X14390809Y-15214428D01*
X14381286Y-15195381D01*
X14371762Y-15157286D01*
X14371762Y-15109667D01*
X14381286Y-15071571D01*
X14390809Y-15052524D01*
X14400333Y-15043000D01*
X14419381Y-15033476D01*
X14571762Y-15233476D02*
X14571762Y-15100143D01*
X14571762Y-15119190D02*
X14581286Y-15109667D01*
X14600333Y-15100143D01*
X14628905Y-15100143D01*
X14647952Y-15109667D01*
X14657476Y-15128714D01*
X14657476Y-15233476D01*
X14657476Y-15128714D02*
X14667000Y-15109667D01*
X14686048Y-15100143D01*
X14714619Y-15100143D01*
X14733667Y-15109667D01*
X14743190Y-15128714D01*
X14743190Y-15233476D01*
X14838428Y-15233476D02*
X14838428Y-15100143D01*
X14838428Y-15119190D02*
X14847952Y-15109667D01*
X14867000Y-15100143D01*
X14895571Y-15100143D01*
X14914619Y-15109667D01*
X14924143Y-15128714D01*
X14924143Y-15233476D01*
X14924143Y-15128714D02*
X14933667Y-15109667D01*
X14952714Y-15100143D01*
X14981286Y-15100143D01*
X15000333Y-15109667D01*
X15009857Y-15128714D01*
X15009857Y-15233476D01*
X15400333Y-15023952D02*
X15228905Y-15281095D01*
X15657476Y-15033476D02*
X15676524Y-15033476D01*
X15695571Y-15043000D01*
X15705095Y-15052524D01*
X15714619Y-15071571D01*
X15724143Y-15109667D01*
X15724143Y-15157286D01*
X15714619Y-15195381D01*
X15705095Y-15214428D01*
X15695571Y-15223952D01*
X15676524Y-15233476D01*
X15657476Y-15233476D01*
X15638428Y-15223952D01*
X15628905Y-15214428D01*
X15619381Y-15195381D01*
X15609857Y-15157286D01*
X15609857Y-15109667D01*
X15619381Y-15071571D01*
X15628905Y-15052524D01*
X15638428Y-15043000D01*
X15657476Y-15033476D01*
X15809857Y-15214428D02*
X15819381Y-15223952D01*
X15809857Y-15233476D01*
X15800333Y-15223952D01*
X15809857Y-15214428D01*
X15809857Y-15233476D01*
X15943190Y-15033476D02*
X15962238Y-15033476D01*
X15981286Y-15043000D01*
X15990809Y-15052524D01*
X16000333Y-15071571D01*
X16009857Y-15109667D01*
X16009857Y-15157286D01*
X16000333Y-15195381D01*
X15990809Y-15214428D01*
X15981286Y-15223952D01*
X15962238Y-15233476D01*
X15943190Y-15233476D01*
X15924143Y-15223952D01*
X15914619Y-15214428D01*
X15905095Y-15195381D01*
X15895571Y-15157286D01*
X15895571Y-15109667D01*
X15905095Y-15071571D01*
X15914619Y-15052524D01*
X15924143Y-15043000D01*
X15943190Y-15033476D01*
X16076524Y-15033476D02*
X16200333Y-15033476D01*
X16133667Y-15109667D01*
X16162238Y-15109667D01*
X16181286Y-15119190D01*
X16190809Y-15128714D01*
X16200333Y-15147762D01*
X16200333Y-15195381D01*
X16190809Y-15214428D01*
X16181286Y-15223952D01*
X16162238Y-15233476D01*
X16105095Y-15233476D01*
X16086048Y-15223952D01*
X16076524Y-15214428D01*
X16295571Y-15233476D02*
X16333667Y-15233476D01*
X16352714Y-15223952D01*
X16362238Y-15214428D01*
X16381286Y-15185857D01*
X16390809Y-15147762D01*
X16390809Y-15071571D01*
X16381286Y-15052524D01*
X16371762Y-15043000D01*
X16352714Y-15033476D01*
X16314619Y-15033476D01*
X16295571Y-15043000D01*
X16286048Y-15052524D01*
X16276524Y-15071571D01*
X16276524Y-15119190D01*
X16286048Y-15138238D01*
X16295571Y-15147762D01*
X16314619Y-15157286D01*
X16352714Y-15157286D01*
X16371762Y-15147762D01*
X16381286Y-15138238D01*
X16390809Y-15119190D01*
X16562238Y-15100143D02*
X16562238Y-15233476D01*
X16514619Y-15023952D02*
X16467000Y-15166809D01*
X16590809Y-15166809D01*
X16657476Y-15033476D02*
X16657476Y-15071571D01*
X16733667Y-15033476D02*
X16733667Y-15071571D01*
X17028905Y-15309667D02*
X17019381Y-15300143D01*
X17000333Y-15271571D01*
X16990810Y-15252524D01*
X16981286Y-15223952D01*
X16971762Y-15176333D01*
X16971762Y-15138238D01*
X16981286Y-15090619D01*
X16990810Y-15062048D01*
X17000333Y-15043000D01*
X17019381Y-15014428D01*
X17028905Y-15004905D01*
X17200333Y-15033476D02*
X17105095Y-15033476D01*
X17095571Y-15128714D01*
X17105095Y-15119190D01*
X17124143Y-15109667D01*
X17171762Y-15109667D01*
X17190810Y-15119190D01*
X17200333Y-15128714D01*
X17209857Y-15147762D01*
X17209857Y-15195381D01*
X17200333Y-15214428D01*
X17190810Y-15223952D01*
X17171762Y-15233476D01*
X17124143Y-15233476D01*
X17105095Y-15223952D01*
X17095571Y-15214428D01*
X17447952Y-15233476D02*
X17447952Y-15033476D01*
X17533667Y-15233476D02*
X17533667Y-15128714D01*
X17524143Y-15109667D01*
X17505095Y-15100143D01*
X17476524Y-15100143D01*
X17457476Y-15109667D01*
X17447952Y-15119190D01*
X17657476Y-15233476D02*
X17638429Y-15223952D01*
X17628905Y-15214428D01*
X17619381Y-15195381D01*
X17619381Y-15138238D01*
X17628905Y-15119190D01*
X17638429Y-15109667D01*
X17657476Y-15100143D01*
X17686048Y-15100143D01*
X17705095Y-15109667D01*
X17714619Y-15119190D01*
X17724143Y-15138238D01*
X17724143Y-15195381D01*
X17714619Y-15214428D01*
X17705095Y-15223952D01*
X17686048Y-15233476D01*
X17657476Y-15233476D01*
X17838429Y-15233476D02*
X17819381Y-15223952D01*
X17809857Y-15204905D01*
X17809857Y-15033476D01*
X17990810Y-15223952D02*
X17971762Y-15233476D01*
X17933667Y-15233476D01*
X17914619Y-15223952D01*
X17905095Y-15204905D01*
X17905095Y-15128714D01*
X17914619Y-15109667D01*
X17933667Y-15100143D01*
X17971762Y-15100143D01*
X17990810Y-15109667D01*
X18000333Y-15128714D01*
X18000333Y-15147762D01*
X17905095Y-15166809D01*
X18076524Y-15223952D02*
X18095571Y-15233476D01*
X18133667Y-15233476D01*
X18152714Y-15223952D01*
X18162238Y-15204905D01*
X18162238Y-15195381D01*
X18152714Y-15176333D01*
X18133667Y-15166809D01*
X18105095Y-15166809D01*
X18086048Y-15157286D01*
X18076524Y-15138238D01*
X18076524Y-15128714D01*
X18086048Y-15109667D01*
X18105095Y-15100143D01*
X18133667Y-15100143D01*
X18152714Y-15109667D01*
X18228905Y-15309667D02*
X18238429Y-15300143D01*
X18257476Y-15271571D01*
X18267000Y-15252524D01*
X18276524Y-15223952D01*
X18286048Y-15176333D01*
X18286048Y-15138238D01*
X18276524Y-15090619D01*
X18267000Y-15062048D01*
X18257476Y-15043000D01*
X18238429Y-15014428D01*
X18228905Y-15004905D01*
D14*
X13440891Y-15445891D02*
X13440891Y-15368109D01*
X13363109Y-15368109D01*
X13363109Y-15445891D01*
X13440891Y-15445891D01*
D11*
X13819381Y-15497476D02*
X13705095Y-15497476D01*
X13762238Y-15497476D02*
X13762238Y-15297476D01*
X13743190Y-15326048D01*
X13724143Y-15345095D01*
X13705095Y-15354619D01*
X13905095Y-15478428D02*
X13914619Y-15487952D01*
X13905095Y-15497476D01*
X13895571Y-15487952D01*
X13905095Y-15478428D01*
X13905095Y-15497476D01*
X14105095Y-15497476D02*
X13990809Y-15497476D01*
X14047952Y-15497476D02*
X14047952Y-15297476D01*
X14028905Y-15326048D01*
X14009857Y-15345095D01*
X13990809Y-15354619D01*
X14228905Y-15297476D02*
X14247952Y-15297476D01*
X14267000Y-15307000D01*
X14276524Y-15316524D01*
X14286048Y-15335571D01*
X14295571Y-15373667D01*
X14295571Y-15421286D01*
X14286048Y-15459381D01*
X14276524Y-15478428D01*
X14267000Y-15487952D01*
X14247952Y-15497476D01*
X14228905Y-15497476D01*
X14209857Y-15487952D01*
X14200333Y-15478428D01*
X14190809Y-15459381D01*
X14181286Y-15421286D01*
X14181286Y-15373667D01*
X14190809Y-15335571D01*
X14200333Y-15316524D01*
X14209857Y-15307000D01*
X14228905Y-15297476D01*
X14419381Y-15297476D02*
X14438428Y-15297476D01*
X14457476Y-15307000D01*
X14467000Y-15316524D01*
X14476524Y-15335571D01*
X14486048Y-15373667D01*
X14486048Y-15421286D01*
X14476524Y-15459381D01*
X14467000Y-15478428D01*
X14457476Y-15487952D01*
X14438428Y-15497476D01*
X14419381Y-15497476D01*
X14400333Y-15487952D01*
X14390809Y-15478428D01*
X14381286Y-15459381D01*
X14371762Y-15421286D01*
X14371762Y-15373667D01*
X14381286Y-15335571D01*
X14390809Y-15316524D01*
X14400333Y-15307000D01*
X14419381Y-15297476D01*
X14571762Y-15497476D02*
X14571762Y-15364143D01*
X14571762Y-15383190D02*
X14581286Y-15373667D01*
X14600333Y-15364143D01*
X14628905Y-15364143D01*
X14647952Y-15373667D01*
X14657476Y-15392714D01*
X14657476Y-15497476D01*
X14657476Y-15392714D02*
X14667000Y-15373667D01*
X14686048Y-15364143D01*
X14714619Y-15364143D01*
X14733667Y-15373667D01*
X14743190Y-15392714D01*
X14743190Y-15497476D01*
X14838428Y-15497476D02*
X14838428Y-15364143D01*
X14838428Y-15383190D02*
X14847952Y-15373667D01*
X14867000Y-15364143D01*
X14895571Y-15364143D01*
X14914619Y-15373667D01*
X14924143Y-15392714D01*
X14924143Y-15497476D01*
X14924143Y-15392714D02*
X14933667Y-15373667D01*
X14952714Y-15364143D01*
X14981286Y-15364143D01*
X15000333Y-15373667D01*
X15009857Y-15392714D01*
X15009857Y-15497476D01*
X15400333Y-15287952D02*
X15228905Y-15545095D01*
X15657476Y-15297476D02*
X15676524Y-15297476D01*
X15695571Y-15307000D01*
X15705095Y-15316524D01*
X15714619Y-15335571D01*
X15724143Y-15373667D01*
X15724143Y-15421286D01*
X15714619Y-15459381D01*
X15705095Y-15478428D01*
X15695571Y-15487952D01*
X15676524Y-15497476D01*
X15657476Y-15497476D01*
X15638428Y-15487952D01*
X15628905Y-15478428D01*
X15619381Y-15459381D01*
X15609857Y-15421286D01*
X15609857Y-15373667D01*
X15619381Y-15335571D01*
X15628905Y-15316524D01*
X15638428Y-15307000D01*
X15657476Y-15297476D01*
X15809857Y-15478428D02*
X15819381Y-15487952D01*
X15809857Y-15497476D01*
X15800333Y-15487952D01*
X15809857Y-15478428D01*
X15809857Y-15497476D01*
X15943190Y-15297476D02*
X15962238Y-15297476D01*
X15981286Y-15307000D01*
X15990809Y-15316524D01*
X16000333Y-15335571D01*
X16009857Y-15373667D01*
X16009857Y-15421286D01*
X16000333Y-15459381D01*
X15990809Y-15478428D01*
X15981286Y-15487952D01*
X15962238Y-15497476D01*
X15943190Y-15497476D01*
X15924143Y-15487952D01*
X15914619Y-15478428D01*
X15905095Y-15459381D01*
X15895571Y-15421286D01*
X15895571Y-15373667D01*
X15905095Y-15335571D01*
X15914619Y-15316524D01*
X15924143Y-15307000D01*
X15943190Y-15297476D01*
X16181286Y-15364143D02*
X16181286Y-15497476D01*
X16133667Y-15287952D02*
X16086048Y-15430809D01*
X16209857Y-15430809D01*
X16267000Y-15297476D02*
X16390809Y-15297476D01*
X16324143Y-15373667D01*
X16352714Y-15373667D01*
X16371762Y-15383190D01*
X16381286Y-15392714D01*
X16390809Y-15411762D01*
X16390809Y-15459381D01*
X16381286Y-15478428D01*
X16371762Y-15487952D01*
X16352714Y-15497476D01*
X16295571Y-15497476D01*
X16276524Y-15487952D01*
X16267000Y-15478428D01*
X16457476Y-15297476D02*
X16581286Y-15297476D01*
X16514619Y-15373667D01*
X16543190Y-15373667D01*
X16562238Y-15383190D01*
X16571762Y-15392714D01*
X16581286Y-15411762D01*
X16581286Y-15459381D01*
X16571762Y-15478428D01*
X16562238Y-15487952D01*
X16543190Y-15497476D01*
X16486048Y-15497476D01*
X16467000Y-15487952D01*
X16457476Y-15478428D01*
X16657476Y-15297476D02*
X16657476Y-15335571D01*
X16733667Y-15297476D02*
X16733667Y-15335571D01*
X17028905Y-15573667D02*
X17019381Y-15564143D01*
X17000333Y-15535571D01*
X16990810Y-15516524D01*
X16981286Y-15487952D01*
X16971762Y-15440333D01*
X16971762Y-15402238D01*
X16981286Y-15354619D01*
X16990810Y-15326048D01*
X17000333Y-15307000D01*
X17019381Y-15278428D01*
X17028905Y-15268905D01*
X17190810Y-15364143D02*
X17190810Y-15497476D01*
X17143190Y-15287952D02*
X17095571Y-15430809D01*
X17219381Y-15430809D01*
X17447952Y-15497476D02*
X17447952Y-15297476D01*
X17533667Y-15497476D02*
X17533667Y-15392714D01*
X17524143Y-15373667D01*
X17505095Y-15364143D01*
X17476524Y-15364143D01*
X17457476Y-15373667D01*
X17447952Y-15383190D01*
X17657476Y-15497476D02*
X17638429Y-15487952D01*
X17628905Y-15478428D01*
X17619381Y-15459381D01*
X17619381Y-15402238D01*
X17628905Y-15383190D01*
X17638429Y-15373667D01*
X17657476Y-15364143D01*
X17686048Y-15364143D01*
X17705095Y-15373667D01*
X17714619Y-15383190D01*
X17724143Y-15402238D01*
X17724143Y-15459381D01*
X17714619Y-15478428D01*
X17705095Y-15487952D01*
X17686048Y-15497476D01*
X17657476Y-15497476D01*
X17838429Y-15497476D02*
X17819381Y-15487952D01*
X17809857Y-15468905D01*
X17809857Y-15297476D01*
X17990810Y-15487952D02*
X17971762Y-15497476D01*
X17933667Y-15497476D01*
X17914619Y-15487952D01*
X17905095Y-15468905D01*
X17905095Y-15392714D01*
X17914619Y-15373667D01*
X17933667Y-15364143D01*
X17971762Y-15364143D01*
X17990810Y-15373667D01*
X18000333Y-15392714D01*
X18000333Y-15411762D01*
X17905095Y-15430809D01*
X18076524Y-15487952D02*
X18095571Y-15497476D01*
X18133667Y-15497476D01*
X18152714Y-15487952D01*
X18162238Y-15468905D01*
X18162238Y-15459381D01*
X18152714Y-15440333D01*
X18133667Y-15430809D01*
X18105095Y-15430809D01*
X18086048Y-15421286D01*
X18076524Y-15402238D01*
X18076524Y-15392714D01*
X18086048Y-15373667D01*
X18105095Y-15364143D01*
X18133667Y-15364143D01*
X18152714Y-15373667D01*
X18228905Y-15573667D02*
X18238429Y-15564143D01*
X18257476Y-15535571D01*
X18267000Y-15516524D01*
X18276524Y-15487952D01*
X18286048Y-15440333D01*
X18286048Y-15402238D01*
X18276524Y-15354619D01*
X18267000Y-15326048D01*
X18257476Y-15307000D01*
X18238429Y-15278428D01*
X18228905Y-15268905D01*
D15*
X13392000Y-15736000D02*
X13457000Y-15671000D01*
X13392000Y-15606000D01*
X13327000Y-15671000D01*
X13392000Y-15736000D01*
D11*
X13819381Y-15761476D02*
X13705095Y-15761476D01*
X13762238Y-15761476D02*
X13762238Y-15561476D01*
X13743190Y-15590048D01*
X13724143Y-15609095D01*
X13705095Y-15618619D01*
X13905095Y-15742428D02*
X13914619Y-15751952D01*
X13905095Y-15761476D01*
X13895571Y-15751952D01*
X13905095Y-15742428D01*
X13905095Y-15761476D01*
X13981286Y-15561476D02*
X14105095Y-15561476D01*
X14038428Y-15637667D01*
X14067000Y-15637667D01*
X14086048Y-15647190D01*
X14095571Y-15656714D01*
X14105095Y-15675762D01*
X14105095Y-15723381D01*
X14095571Y-15742428D01*
X14086048Y-15751952D01*
X14067000Y-15761476D01*
X14009857Y-15761476D01*
X13990809Y-15751952D01*
X13981286Y-15742428D01*
X14228905Y-15561476D02*
X14247952Y-15561476D01*
X14267000Y-15571000D01*
X14276524Y-15580524D01*
X14286048Y-15599571D01*
X14295571Y-15637667D01*
X14295571Y-15685286D01*
X14286048Y-15723381D01*
X14276524Y-15742428D01*
X14267000Y-15751952D01*
X14247952Y-15761476D01*
X14228905Y-15761476D01*
X14209857Y-15751952D01*
X14200333Y-15742428D01*
X14190809Y-15723381D01*
X14181286Y-15685286D01*
X14181286Y-15637667D01*
X14190809Y-15599571D01*
X14200333Y-15580524D01*
X14209857Y-15571000D01*
X14228905Y-15561476D01*
X14419381Y-15561476D02*
X14438428Y-15561476D01*
X14457476Y-15571000D01*
X14467000Y-15580524D01*
X14476524Y-15599571D01*
X14486048Y-15637667D01*
X14486048Y-15685286D01*
X14476524Y-15723381D01*
X14467000Y-15742428D01*
X14457476Y-15751952D01*
X14438428Y-15761476D01*
X14419381Y-15761476D01*
X14400333Y-15751952D01*
X14390809Y-15742428D01*
X14381286Y-15723381D01*
X14371762Y-15685286D01*
X14371762Y-15637667D01*
X14381286Y-15599571D01*
X14390809Y-15580524D01*
X14400333Y-15571000D01*
X14419381Y-15561476D01*
X14571762Y-15761476D02*
X14571762Y-15628143D01*
X14571762Y-15647190D02*
X14581286Y-15637667D01*
X14600333Y-15628143D01*
X14628905Y-15628143D01*
X14647952Y-15637667D01*
X14657476Y-15656714D01*
X14657476Y-15761476D01*
X14657476Y-15656714D02*
X14667000Y-15637667D01*
X14686048Y-15628143D01*
X14714619Y-15628143D01*
X14733667Y-15637667D01*
X14743190Y-15656714D01*
X14743190Y-15761476D01*
X14838428Y-15761476D02*
X14838428Y-15628143D01*
X14838428Y-15647190D02*
X14847952Y-15637667D01*
X14867000Y-15628143D01*
X14895571Y-15628143D01*
X14914619Y-15637667D01*
X14924143Y-15656714D01*
X14924143Y-15761476D01*
X14924143Y-15656714D02*
X14933667Y-15637667D01*
X14952714Y-15628143D01*
X14981286Y-15628143D01*
X15000333Y-15637667D01*
X15009857Y-15656714D01*
X15009857Y-15761476D01*
X15400333Y-15551952D02*
X15228905Y-15809095D01*
X15657476Y-15561476D02*
X15676524Y-15561476D01*
X15695571Y-15571000D01*
X15705095Y-15580524D01*
X15714619Y-15599571D01*
X15724143Y-15637667D01*
X15724143Y-15685286D01*
X15714619Y-15723381D01*
X15705095Y-15742428D01*
X15695571Y-15751952D01*
X15676524Y-15761476D01*
X15657476Y-15761476D01*
X15638428Y-15751952D01*
X15628905Y-15742428D01*
X15619381Y-15723381D01*
X15609857Y-15685286D01*
X15609857Y-15637667D01*
X15619381Y-15599571D01*
X15628905Y-15580524D01*
X15638428Y-15571000D01*
X15657476Y-15561476D01*
X15809857Y-15742428D02*
X15819381Y-15751952D01*
X15809857Y-15761476D01*
X15800333Y-15751952D01*
X15809857Y-15742428D01*
X15809857Y-15761476D01*
X15943190Y-15561476D02*
X15962238Y-15561476D01*
X15981286Y-15571000D01*
X15990809Y-15580524D01*
X16000333Y-15599571D01*
X16009857Y-15637667D01*
X16009857Y-15685286D01*
X16000333Y-15723381D01*
X15990809Y-15742428D01*
X15981286Y-15751952D01*
X15962238Y-15761476D01*
X15943190Y-15761476D01*
X15924143Y-15751952D01*
X15914619Y-15742428D01*
X15905095Y-15723381D01*
X15895571Y-15685286D01*
X15895571Y-15637667D01*
X15905095Y-15599571D01*
X15914619Y-15580524D01*
X15924143Y-15571000D01*
X15943190Y-15561476D01*
X16190809Y-15561476D02*
X16095571Y-15561476D01*
X16086048Y-15656714D01*
X16095571Y-15647190D01*
X16114619Y-15637667D01*
X16162238Y-15637667D01*
X16181286Y-15647190D01*
X16190809Y-15656714D01*
X16200333Y-15675762D01*
X16200333Y-15723381D01*
X16190809Y-15742428D01*
X16181286Y-15751952D01*
X16162238Y-15761476D01*
X16114619Y-15761476D01*
X16095571Y-15751952D01*
X16086048Y-15742428D01*
X16390809Y-15761476D02*
X16276524Y-15761476D01*
X16333667Y-15761476D02*
X16333667Y-15561476D01*
X16314619Y-15590048D01*
X16295571Y-15609095D01*
X16276524Y-15618619D01*
X16467000Y-15580524D02*
X16476524Y-15571000D01*
X16495571Y-15561476D01*
X16543190Y-15561476D01*
X16562238Y-15571000D01*
X16571762Y-15580524D01*
X16581286Y-15599571D01*
X16581286Y-15618619D01*
X16571762Y-15647190D01*
X16457476Y-15761476D01*
X16581286Y-15761476D01*
X16657476Y-15561476D02*
X16657476Y-15599571D01*
X16733667Y-15561476D02*
X16733667Y-15599571D01*
X17028905Y-15837667D02*
X17019381Y-15828143D01*
X17000333Y-15799571D01*
X16990810Y-15780524D01*
X16981286Y-15751952D01*
X16971762Y-15704333D01*
X16971762Y-15666238D01*
X16981286Y-15618619D01*
X16990810Y-15590048D01*
X17000333Y-15571000D01*
X17019381Y-15542428D01*
X17028905Y-15532905D01*
X17095571Y-15580524D02*
X17105095Y-15571000D01*
X17124143Y-15561476D01*
X17171762Y-15561476D01*
X17190810Y-15571000D01*
X17200333Y-15580524D01*
X17209857Y-15599571D01*
X17209857Y-15618619D01*
X17200333Y-15647190D01*
X17086048Y-15761476D01*
X17209857Y-15761476D01*
X17447952Y-15761476D02*
X17447952Y-15561476D01*
X17533667Y-15761476D02*
X17533667Y-15656714D01*
X17524143Y-15637667D01*
X17505095Y-15628143D01*
X17476524Y-15628143D01*
X17457476Y-15637667D01*
X17447952Y-15647190D01*
X17657476Y-15761476D02*
X17638429Y-15751952D01*
X17628905Y-15742428D01*
X17619381Y-15723381D01*
X17619381Y-15666238D01*
X17628905Y-15647190D01*
X17638429Y-15637667D01*
X17657476Y-15628143D01*
X17686048Y-15628143D01*
X17705095Y-15637667D01*
X17714619Y-15647190D01*
X17724143Y-15666238D01*
X17724143Y-15723381D01*
X17714619Y-15742428D01*
X17705095Y-15751952D01*
X17686048Y-15761476D01*
X17657476Y-15761476D01*
X17838429Y-15761476D02*
X17819381Y-15751952D01*
X17809857Y-15732905D01*
X17809857Y-15561476D01*
X17990810Y-15751952D02*
X17971762Y-15761476D01*
X17933667Y-15761476D01*
X17914619Y-15751952D01*
X17905095Y-15732905D01*
X17905095Y-15656714D01*
X17914619Y-15637667D01*
X17933667Y-15628143D01*
X17971762Y-15628143D01*
X17990810Y-15637667D01*
X18000333Y-15656714D01*
X18000333Y-15675762D01*
X17905095Y-15694809D01*
X18076524Y-15751952D02*
X18095571Y-15761476D01*
X18133667Y-15761476D01*
X18152714Y-15751952D01*
X18162238Y-15732905D01*
X18162238Y-15723381D01*
X18152714Y-15704333D01*
X18133667Y-15694809D01*
X18105095Y-15694809D01*
X18086048Y-15685286D01*
X18076524Y-15666238D01*
X18076524Y-15656714D01*
X18086048Y-15637667D01*
X18105095Y-15628143D01*
X18133667Y-15628143D01*
X18152714Y-15637667D01*
X18228905Y-15837667D02*
X18238429Y-15828143D01*
X18257476Y-15799571D01*
X18267000Y-15780524D01*
X18276524Y-15751952D01*
X18286048Y-15704333D01*
X18286048Y-15666238D01*
X18276524Y-15618619D01*
X18267000Y-15590048D01*
X18257476Y-15571000D01*
X18238429Y-15542428D01*
X18228905Y-15532905D01*
X13257000Y-15835000D02*
X13457000Y-16035000D01*
X13457000Y-15835000D02*
X13257000Y-16035000D01*
X13457000Y-15935000D02*
G75*
G03*
X13457000Y-15935000I-100000J0D01*
G01*
X13695571Y-15825476D02*
X13819381Y-15825476D01*
X13752714Y-15901667D01*
X13781286Y-15901667D01*
X13800333Y-15911190D01*
X13809857Y-15920714D01*
X13819381Y-15939762D01*
X13819381Y-15987381D01*
X13809857Y-16006428D01*
X13800333Y-16015952D01*
X13781286Y-16025476D01*
X13724143Y-16025476D01*
X13705095Y-16015952D01*
X13695571Y-16006428D01*
X13905095Y-16006428D02*
X13914619Y-16015952D01*
X13905095Y-16025476D01*
X13895571Y-16015952D01*
X13905095Y-16006428D01*
X13905095Y-16025476D01*
X13990809Y-15844524D02*
X14000333Y-15835000D01*
X14019381Y-15825476D01*
X14067000Y-15825476D01*
X14086048Y-15835000D01*
X14095571Y-15844524D01*
X14105095Y-15863571D01*
X14105095Y-15882619D01*
X14095571Y-15911190D01*
X13981286Y-16025476D01*
X14105095Y-16025476D01*
X14228905Y-15825476D02*
X14247952Y-15825476D01*
X14267000Y-15835000D01*
X14276524Y-15844524D01*
X14286048Y-15863571D01*
X14295571Y-15901667D01*
X14295571Y-15949286D01*
X14286048Y-15987381D01*
X14276524Y-16006428D01*
X14267000Y-16015952D01*
X14247952Y-16025476D01*
X14228905Y-16025476D01*
X14209857Y-16015952D01*
X14200333Y-16006428D01*
X14190809Y-15987381D01*
X14181286Y-15949286D01*
X14181286Y-15901667D01*
X14190809Y-15863571D01*
X14200333Y-15844524D01*
X14209857Y-15835000D01*
X14228905Y-15825476D01*
X14419381Y-15825476D02*
X14438428Y-15825476D01*
X14457476Y-15835000D01*
X14467000Y-15844524D01*
X14476524Y-15863571D01*
X14486048Y-15901667D01*
X14486048Y-15949286D01*
X14476524Y-15987381D01*
X14467000Y-16006428D01*
X14457476Y-16015952D01*
X14438428Y-16025476D01*
X14419381Y-16025476D01*
X14400333Y-16015952D01*
X14390809Y-16006428D01*
X14381286Y-15987381D01*
X14371762Y-15949286D01*
X14371762Y-15901667D01*
X14381286Y-15863571D01*
X14390809Y-15844524D01*
X14400333Y-15835000D01*
X14419381Y-15825476D01*
X14571762Y-16025476D02*
X14571762Y-15892143D01*
X14571762Y-15911190D02*
X14581286Y-15901667D01*
X14600333Y-15892143D01*
X14628905Y-15892143D01*
X14647952Y-15901667D01*
X14657476Y-15920714D01*
X14657476Y-16025476D01*
X14657476Y-15920714D02*
X14667000Y-15901667D01*
X14686048Y-15892143D01*
X14714619Y-15892143D01*
X14733667Y-15901667D01*
X14743190Y-15920714D01*
X14743190Y-16025476D01*
X14838428Y-16025476D02*
X14838428Y-15892143D01*
X14838428Y-15911190D02*
X14847952Y-15901667D01*
X14867000Y-15892143D01*
X14895571Y-15892143D01*
X14914619Y-15901667D01*
X14924143Y-15920714D01*
X14924143Y-16025476D01*
X14924143Y-15920714D02*
X14933667Y-15901667D01*
X14952714Y-15892143D01*
X14981286Y-15892143D01*
X15000333Y-15901667D01*
X15009857Y-15920714D01*
X15009857Y-16025476D01*
X15400333Y-15815952D02*
X15228905Y-16073095D01*
X15657476Y-15825476D02*
X15676524Y-15825476D01*
X15695571Y-15835000D01*
X15705095Y-15844524D01*
X15714619Y-15863571D01*
X15724143Y-15901667D01*
X15724143Y-15949286D01*
X15714619Y-15987381D01*
X15705095Y-16006428D01*
X15695571Y-16015952D01*
X15676524Y-16025476D01*
X15657476Y-16025476D01*
X15638428Y-16015952D01*
X15628905Y-16006428D01*
X15619381Y-15987381D01*
X15609857Y-15949286D01*
X15609857Y-15901667D01*
X15619381Y-15863571D01*
X15628905Y-15844524D01*
X15638428Y-15835000D01*
X15657476Y-15825476D01*
X15809857Y-16006428D02*
X15819381Y-16015952D01*
X15809857Y-16025476D01*
X15800333Y-16015952D01*
X15809857Y-16006428D01*
X15809857Y-16025476D01*
X16009857Y-16025476D02*
X15895571Y-16025476D01*
X15952714Y-16025476D02*
X15952714Y-15825476D01*
X15933667Y-15854048D01*
X15914619Y-15873095D01*
X15895571Y-15882619D01*
X16086048Y-15844524D02*
X16095571Y-15835000D01*
X16114619Y-15825476D01*
X16162238Y-15825476D01*
X16181286Y-15835000D01*
X16190809Y-15844524D01*
X16200333Y-15863571D01*
X16200333Y-15882619D01*
X16190809Y-15911190D01*
X16076524Y-16025476D01*
X16200333Y-16025476D01*
X16371762Y-15825476D02*
X16333667Y-15825476D01*
X16314619Y-15835000D01*
X16305095Y-15844524D01*
X16286048Y-15873095D01*
X16276524Y-15911190D01*
X16276524Y-15987381D01*
X16286048Y-16006428D01*
X16295571Y-16015952D01*
X16314619Y-16025476D01*
X16352714Y-16025476D01*
X16371762Y-16015952D01*
X16381286Y-16006428D01*
X16390809Y-15987381D01*
X16390809Y-15939762D01*
X16381286Y-15920714D01*
X16371762Y-15911190D01*
X16352714Y-15901667D01*
X16314619Y-15901667D01*
X16295571Y-15911190D01*
X16286048Y-15920714D01*
X16276524Y-15939762D01*
X16514619Y-15825476D02*
X16533667Y-15825476D01*
X16552714Y-15835000D01*
X16562238Y-15844524D01*
X16571762Y-15863571D01*
X16581286Y-15901667D01*
X16581286Y-15949286D01*
X16571762Y-15987381D01*
X16562238Y-16006428D01*
X16552714Y-16015952D01*
X16533667Y-16025476D01*
X16514619Y-16025476D01*
X16495571Y-16015952D01*
X16486048Y-16006428D01*
X16476524Y-15987381D01*
X16467000Y-15949286D01*
X16467000Y-15901667D01*
X16476524Y-15863571D01*
X16486048Y-15844524D01*
X16495571Y-15835000D01*
X16514619Y-15825476D01*
X16657476Y-15825476D02*
X16657476Y-15863571D01*
X16733667Y-15825476D02*
X16733667Y-15863571D01*
X17028905Y-16101667D02*
X17019381Y-16092143D01*
X17000333Y-16063571D01*
X16990810Y-16044524D01*
X16981286Y-16015952D01*
X16971762Y-15968333D01*
X16971762Y-15930238D01*
X16981286Y-15882619D01*
X16990810Y-15854048D01*
X17000333Y-15835000D01*
X17019381Y-15806428D01*
X17028905Y-15796905D01*
X17209857Y-16025476D02*
X17095571Y-16025476D01*
X17152714Y-16025476D02*
X17152714Y-15825476D01*
X17133667Y-15854048D01*
X17114619Y-15873095D01*
X17095571Y-15882619D01*
X17447952Y-16025476D02*
X17447952Y-15825476D01*
X17533667Y-16025476D02*
X17533667Y-15920714D01*
X17524143Y-15901667D01*
X17505095Y-15892143D01*
X17476524Y-15892143D01*
X17457476Y-15901667D01*
X17447952Y-15911190D01*
X17657476Y-16025476D02*
X17638429Y-16015952D01*
X17628905Y-16006428D01*
X17619381Y-15987381D01*
X17619381Y-15930238D01*
X17628905Y-15911190D01*
X17638429Y-15901667D01*
X17657476Y-15892143D01*
X17686048Y-15892143D01*
X17705095Y-15901667D01*
X17714619Y-15911190D01*
X17724143Y-15930238D01*
X17724143Y-15987381D01*
X17714619Y-16006428D01*
X17705095Y-16015952D01*
X17686048Y-16025476D01*
X17657476Y-16025476D01*
X17838429Y-16025476D02*
X17819381Y-16015952D01*
X17809857Y-15996905D01*
X17809857Y-15825476D01*
X17990810Y-16015952D02*
X17971762Y-16025476D01*
X17933667Y-16025476D01*
X17914619Y-16015952D01*
X17905095Y-15996905D01*
X17905095Y-15920714D01*
X17914619Y-15901667D01*
X17933667Y-15892143D01*
X17971762Y-15892143D01*
X17990810Y-15901667D01*
X18000333Y-15920714D01*
X18000333Y-15939762D01*
X17905095Y-15958809D01*
X18067000Y-16101667D02*
X18076524Y-16092143D01*
X18095571Y-16063571D01*
X18105095Y-16044524D01*
X18114619Y-16015952D01*
X18124143Y-15968333D01*
X18124143Y-15930238D01*
X18114619Y-15882619D01*
X18105095Y-15854048D01*
X18095571Y-15835000D01*
X18076524Y-15806428D01*
X18067000Y-15796905D01*
M02*
