%TF.GenerationSoftware,KiCad,Pcbnew,(6.0.7)*%
%TF.CreationDate,2022-08-07T20:57:22-04:00*%
%TF.ProjectId,2022_generic,32303232-5f67-4656-9e65-7269632e6b69,rev?*%
%TF.SameCoordinates,Original*%
%TF.FileFunction,Drillmap*%
%TF.FilePolarity,Positive*%
%FSLAX45Y45*%
G04 Gerber Fmt 4.5, Leading zero omitted, Abs format (unit mm)*
G04 Created by KiCad (PCBNEW (6.0.7)) date 2022-08-07 20:57:22*
%MOMM*%
%LPD*%
G01*
G04 APERTURE LIST*
%ADD10C,0.100000*%
%ADD11C,0.200000*%
G04 APERTURE END LIST*
D10*
X18034000Y-13970000D02*
G75*
G03*
X18542000Y-13462000I0J508000D01*
G01*
X18542000Y-10160000D02*
G75*
G03*
X18034000Y-9652000I-508000J0D01*
G01*
X18542000Y-10160000D02*
X18542000Y-13462000D01*
X18034000Y-13970000D02*
X13970000Y-13970000D01*
X13970000Y-9652000D02*
G75*
G03*
X13462000Y-10160000I0J-508000D01*
G01*
X13970000Y-9652000D02*
X18034000Y-9652000D01*
X13462000Y-13462000D02*
X13462000Y-10160000D01*
X13462000Y-13462000D02*
G75*
G03*
X13970000Y-13970000I508000J0D01*
G01*
D11*
X17062200Y-13101400D02*
X17262200Y-13301400D01*
X17262200Y-13101400D02*
X17062200Y-13301400D01*
X17942200Y-13101400D02*
X18142200Y-13301400D01*
X18142200Y-13101400D02*
X17942200Y-13301400D01*
X13714619Y-14285476D02*
X13714619Y-14085476D01*
X13762238Y-14085476D01*
X13790809Y-14095000D01*
X13809857Y-14114048D01*
X13819381Y-14133095D01*
X13828905Y-14171190D01*
X13828905Y-14199762D01*
X13819381Y-14237857D01*
X13809857Y-14256905D01*
X13790809Y-14275952D01*
X13762238Y-14285476D01*
X13714619Y-14285476D01*
X13914619Y-14285476D02*
X13914619Y-14152143D01*
X13914619Y-14190238D02*
X13924143Y-14171190D01*
X13933667Y-14161667D01*
X13952714Y-14152143D01*
X13971762Y-14152143D01*
X14038428Y-14285476D02*
X14038428Y-14152143D01*
X14038428Y-14085476D02*
X14028905Y-14095000D01*
X14038428Y-14104524D01*
X14047952Y-14095000D01*
X14038428Y-14085476D01*
X14038428Y-14104524D01*
X14162238Y-14285476D02*
X14143190Y-14275952D01*
X14133667Y-14256905D01*
X14133667Y-14085476D01*
X14267000Y-14285476D02*
X14247952Y-14275952D01*
X14238428Y-14256905D01*
X14238428Y-14085476D01*
X14495571Y-14285476D02*
X14495571Y-14085476D01*
X14562238Y-14228333D01*
X14628905Y-14085476D01*
X14628905Y-14285476D01*
X14809857Y-14285476D02*
X14809857Y-14180714D01*
X14800333Y-14161667D01*
X14781286Y-14152143D01*
X14743190Y-14152143D01*
X14724143Y-14161667D01*
X14809857Y-14275952D02*
X14790809Y-14285476D01*
X14743190Y-14285476D01*
X14724143Y-14275952D01*
X14714619Y-14256905D01*
X14714619Y-14237857D01*
X14724143Y-14218809D01*
X14743190Y-14209286D01*
X14790809Y-14209286D01*
X14809857Y-14199762D01*
X14905095Y-14152143D02*
X14905095Y-14352143D01*
X14905095Y-14161667D02*
X14924143Y-14152143D01*
X14962238Y-14152143D01*
X14981286Y-14161667D01*
X14990809Y-14171190D01*
X15000333Y-14190238D01*
X15000333Y-14247381D01*
X14990809Y-14266428D01*
X14981286Y-14275952D01*
X14962238Y-14285476D01*
X14924143Y-14285476D01*
X14905095Y-14275952D01*
X15086048Y-14266428D02*
X15095571Y-14275952D01*
X15086048Y-14285476D01*
X15076524Y-14275952D01*
X15086048Y-14266428D01*
X15086048Y-14285476D01*
X15086048Y-14161667D02*
X15095571Y-14171190D01*
X15086048Y-14180714D01*
X15076524Y-14171190D01*
X15086048Y-14161667D01*
X15086048Y-14180714D01*
X13257000Y-14515000D02*
X13457000Y-14715000D01*
X13457000Y-14515000D02*
X13257000Y-14715000D01*
X13705095Y-14524524D02*
X13714619Y-14515000D01*
X13733667Y-14505476D01*
X13781286Y-14505476D01*
X13800333Y-14515000D01*
X13809857Y-14524524D01*
X13819381Y-14543571D01*
X13819381Y-14562619D01*
X13809857Y-14591190D01*
X13695571Y-14705476D01*
X13819381Y-14705476D01*
X13905095Y-14686428D02*
X13914619Y-14695952D01*
X13905095Y-14705476D01*
X13895571Y-14695952D01*
X13905095Y-14686428D01*
X13905095Y-14705476D01*
X14038428Y-14505476D02*
X14057476Y-14505476D01*
X14076524Y-14515000D01*
X14086048Y-14524524D01*
X14095571Y-14543571D01*
X14105095Y-14581667D01*
X14105095Y-14629286D01*
X14095571Y-14667381D01*
X14086048Y-14686428D01*
X14076524Y-14695952D01*
X14057476Y-14705476D01*
X14038428Y-14705476D01*
X14019381Y-14695952D01*
X14009857Y-14686428D01*
X14000333Y-14667381D01*
X13990809Y-14629286D01*
X13990809Y-14581667D01*
X14000333Y-14543571D01*
X14009857Y-14524524D01*
X14019381Y-14515000D01*
X14038428Y-14505476D01*
X14228905Y-14505476D02*
X14247952Y-14505476D01*
X14267000Y-14515000D01*
X14276524Y-14524524D01*
X14286048Y-14543571D01*
X14295571Y-14581667D01*
X14295571Y-14629286D01*
X14286048Y-14667381D01*
X14276524Y-14686428D01*
X14267000Y-14695952D01*
X14247952Y-14705476D01*
X14228905Y-14705476D01*
X14209857Y-14695952D01*
X14200333Y-14686428D01*
X14190809Y-14667381D01*
X14181286Y-14629286D01*
X14181286Y-14581667D01*
X14190809Y-14543571D01*
X14200333Y-14524524D01*
X14209857Y-14515000D01*
X14228905Y-14505476D01*
X14419381Y-14505476D02*
X14438428Y-14505476D01*
X14457476Y-14515000D01*
X14467000Y-14524524D01*
X14476524Y-14543571D01*
X14486048Y-14581667D01*
X14486048Y-14629286D01*
X14476524Y-14667381D01*
X14467000Y-14686428D01*
X14457476Y-14695952D01*
X14438428Y-14705476D01*
X14419381Y-14705476D01*
X14400333Y-14695952D01*
X14390809Y-14686428D01*
X14381286Y-14667381D01*
X14371762Y-14629286D01*
X14371762Y-14581667D01*
X14381286Y-14543571D01*
X14390809Y-14524524D01*
X14400333Y-14515000D01*
X14419381Y-14505476D01*
X14571762Y-14705476D02*
X14571762Y-14572143D01*
X14571762Y-14591190D02*
X14581286Y-14581667D01*
X14600333Y-14572143D01*
X14628905Y-14572143D01*
X14647952Y-14581667D01*
X14657476Y-14600714D01*
X14657476Y-14705476D01*
X14657476Y-14600714D02*
X14667000Y-14581667D01*
X14686048Y-14572143D01*
X14714619Y-14572143D01*
X14733667Y-14581667D01*
X14743190Y-14600714D01*
X14743190Y-14705476D01*
X14838428Y-14705476D02*
X14838428Y-14572143D01*
X14838428Y-14591190D02*
X14847952Y-14581667D01*
X14867000Y-14572143D01*
X14895571Y-14572143D01*
X14914619Y-14581667D01*
X14924143Y-14600714D01*
X14924143Y-14705476D01*
X14924143Y-14600714D02*
X14933667Y-14581667D01*
X14952714Y-14572143D01*
X14981286Y-14572143D01*
X15000333Y-14581667D01*
X15009857Y-14600714D01*
X15009857Y-14705476D01*
X15400333Y-14495952D02*
X15228905Y-14753095D01*
X15657476Y-14505476D02*
X15676524Y-14505476D01*
X15695571Y-14515000D01*
X15705095Y-14524524D01*
X15714619Y-14543571D01*
X15724143Y-14581667D01*
X15724143Y-14629286D01*
X15714619Y-14667381D01*
X15705095Y-14686428D01*
X15695571Y-14695952D01*
X15676524Y-14705476D01*
X15657476Y-14705476D01*
X15638428Y-14695952D01*
X15628905Y-14686428D01*
X15619381Y-14667381D01*
X15609857Y-14629286D01*
X15609857Y-14581667D01*
X15619381Y-14543571D01*
X15628905Y-14524524D01*
X15638428Y-14515000D01*
X15657476Y-14505476D01*
X15809857Y-14686428D02*
X15819381Y-14695952D01*
X15809857Y-14705476D01*
X15800333Y-14695952D01*
X15809857Y-14686428D01*
X15809857Y-14705476D01*
X15943190Y-14505476D02*
X15962238Y-14505476D01*
X15981286Y-14515000D01*
X15990809Y-14524524D01*
X16000333Y-14543571D01*
X16009857Y-14581667D01*
X16009857Y-14629286D01*
X16000333Y-14667381D01*
X15990809Y-14686428D01*
X15981286Y-14695952D01*
X15962238Y-14705476D01*
X15943190Y-14705476D01*
X15924143Y-14695952D01*
X15914619Y-14686428D01*
X15905095Y-14667381D01*
X15895571Y-14629286D01*
X15895571Y-14581667D01*
X15905095Y-14543571D01*
X15914619Y-14524524D01*
X15924143Y-14515000D01*
X15943190Y-14505476D01*
X16076524Y-14505476D02*
X16209857Y-14505476D01*
X16124143Y-14705476D01*
X16314619Y-14591190D02*
X16295571Y-14581667D01*
X16286048Y-14572143D01*
X16276524Y-14553095D01*
X16276524Y-14543571D01*
X16286048Y-14524524D01*
X16295571Y-14515000D01*
X16314619Y-14505476D01*
X16352714Y-14505476D01*
X16371762Y-14515000D01*
X16381286Y-14524524D01*
X16390809Y-14543571D01*
X16390809Y-14553095D01*
X16381286Y-14572143D01*
X16371762Y-14581667D01*
X16352714Y-14591190D01*
X16314619Y-14591190D01*
X16295571Y-14600714D01*
X16286048Y-14610238D01*
X16276524Y-14629286D01*
X16276524Y-14667381D01*
X16286048Y-14686428D01*
X16295571Y-14695952D01*
X16314619Y-14705476D01*
X16352714Y-14705476D01*
X16371762Y-14695952D01*
X16381286Y-14686428D01*
X16390809Y-14667381D01*
X16390809Y-14629286D01*
X16381286Y-14610238D01*
X16371762Y-14600714D01*
X16352714Y-14591190D01*
X16457476Y-14505476D02*
X16590809Y-14505476D01*
X16505095Y-14705476D01*
X16657476Y-14505476D02*
X16657476Y-14543571D01*
X16733667Y-14505476D02*
X16733667Y-14543571D01*
X17028905Y-14781667D02*
X17019381Y-14772143D01*
X17000333Y-14743571D01*
X16990810Y-14724524D01*
X16981286Y-14695952D01*
X16971762Y-14648333D01*
X16971762Y-14610238D01*
X16981286Y-14562619D01*
X16990810Y-14534048D01*
X17000333Y-14515000D01*
X17019381Y-14486428D01*
X17028905Y-14476905D01*
X17095571Y-14524524D02*
X17105095Y-14515000D01*
X17124143Y-14505476D01*
X17171762Y-14505476D01*
X17190810Y-14515000D01*
X17200333Y-14524524D01*
X17209857Y-14543571D01*
X17209857Y-14562619D01*
X17200333Y-14591190D01*
X17086048Y-14705476D01*
X17209857Y-14705476D01*
X17447952Y-14705476D02*
X17447952Y-14505476D01*
X17533667Y-14705476D02*
X17533667Y-14600714D01*
X17524143Y-14581667D01*
X17505095Y-14572143D01*
X17476524Y-14572143D01*
X17457476Y-14581667D01*
X17447952Y-14591190D01*
X17657476Y-14705476D02*
X17638429Y-14695952D01*
X17628905Y-14686428D01*
X17619381Y-14667381D01*
X17619381Y-14610238D01*
X17628905Y-14591190D01*
X17638429Y-14581667D01*
X17657476Y-14572143D01*
X17686048Y-14572143D01*
X17705095Y-14581667D01*
X17714619Y-14591190D01*
X17724143Y-14610238D01*
X17724143Y-14667381D01*
X17714619Y-14686428D01*
X17705095Y-14695952D01*
X17686048Y-14705476D01*
X17657476Y-14705476D01*
X17838429Y-14705476D02*
X17819381Y-14695952D01*
X17809857Y-14676905D01*
X17809857Y-14505476D01*
X17990810Y-14695952D02*
X17971762Y-14705476D01*
X17933667Y-14705476D01*
X17914619Y-14695952D01*
X17905095Y-14676905D01*
X17905095Y-14600714D01*
X17914619Y-14581667D01*
X17933667Y-14572143D01*
X17971762Y-14572143D01*
X17990810Y-14581667D01*
X18000333Y-14600714D01*
X18000333Y-14619762D01*
X17905095Y-14638809D01*
X18076524Y-14695952D02*
X18095571Y-14705476D01*
X18133667Y-14705476D01*
X18152714Y-14695952D01*
X18162238Y-14676905D01*
X18162238Y-14667381D01*
X18152714Y-14648333D01*
X18133667Y-14638809D01*
X18105095Y-14638809D01*
X18086048Y-14629286D01*
X18076524Y-14610238D01*
X18076524Y-14600714D01*
X18086048Y-14581667D01*
X18105095Y-14572143D01*
X18133667Y-14572143D01*
X18152714Y-14581667D01*
X18228905Y-14781667D02*
X18238429Y-14772143D01*
X18257476Y-14743571D01*
X18267000Y-14724524D01*
X18276524Y-14695952D01*
X18286048Y-14648333D01*
X18286048Y-14610238D01*
X18276524Y-14562619D01*
X18267000Y-14534048D01*
X18257476Y-14515000D01*
X18238429Y-14486428D01*
X18228905Y-14476905D01*
X18590810Y-14781667D02*
X18581286Y-14772143D01*
X18562238Y-14743571D01*
X18552714Y-14724524D01*
X18543190Y-14695952D01*
X18533667Y-14648333D01*
X18533667Y-14610238D01*
X18543190Y-14562619D01*
X18552714Y-14534048D01*
X18562238Y-14515000D01*
X18581286Y-14486428D01*
X18590810Y-14476905D01*
X18667000Y-14572143D02*
X18667000Y-14705476D01*
X18667000Y-14591190D02*
X18676524Y-14581667D01*
X18695571Y-14572143D01*
X18724143Y-14572143D01*
X18743190Y-14581667D01*
X18752714Y-14600714D01*
X18752714Y-14705476D01*
X18876524Y-14705476D02*
X18857476Y-14695952D01*
X18847952Y-14686428D01*
X18838429Y-14667381D01*
X18838429Y-14610238D01*
X18847952Y-14591190D01*
X18857476Y-14581667D01*
X18876524Y-14572143D01*
X18905095Y-14572143D01*
X18924143Y-14581667D01*
X18933667Y-14591190D01*
X18943190Y-14610238D01*
X18943190Y-14667381D01*
X18933667Y-14686428D01*
X18924143Y-14695952D01*
X18905095Y-14705476D01*
X18876524Y-14705476D01*
X19000333Y-14572143D02*
X19076524Y-14572143D01*
X19028905Y-14505476D02*
X19028905Y-14676905D01*
X19038429Y-14695952D01*
X19057476Y-14705476D01*
X19076524Y-14705476D01*
X19295571Y-14572143D02*
X19295571Y-14772143D01*
X19295571Y-14581667D02*
X19314619Y-14572143D01*
X19352714Y-14572143D01*
X19371762Y-14581667D01*
X19381286Y-14591190D01*
X19390810Y-14610238D01*
X19390810Y-14667381D01*
X19381286Y-14686428D01*
X19371762Y-14695952D01*
X19352714Y-14705476D01*
X19314619Y-14705476D01*
X19295571Y-14695952D01*
X19505095Y-14705476D02*
X19486048Y-14695952D01*
X19476524Y-14676905D01*
X19476524Y-14505476D01*
X19667000Y-14705476D02*
X19667000Y-14600714D01*
X19657476Y-14581667D01*
X19638429Y-14572143D01*
X19600333Y-14572143D01*
X19581286Y-14581667D01*
X19667000Y-14695952D02*
X19647952Y-14705476D01*
X19600333Y-14705476D01*
X19581286Y-14695952D01*
X19571762Y-14676905D01*
X19571762Y-14657857D01*
X19581286Y-14638809D01*
X19600333Y-14629286D01*
X19647952Y-14629286D01*
X19667000Y-14619762D01*
X19733667Y-14572143D02*
X19809857Y-14572143D01*
X19762238Y-14505476D02*
X19762238Y-14676905D01*
X19771762Y-14695952D01*
X19790810Y-14705476D01*
X19809857Y-14705476D01*
X19952714Y-14695952D02*
X19933667Y-14705476D01*
X19895571Y-14705476D01*
X19876524Y-14695952D01*
X19867000Y-14676905D01*
X19867000Y-14600714D01*
X19876524Y-14581667D01*
X19895571Y-14572143D01*
X19933667Y-14572143D01*
X19952714Y-14581667D01*
X19962238Y-14600714D01*
X19962238Y-14619762D01*
X19867000Y-14638809D01*
X20133667Y-14705476D02*
X20133667Y-14505476D01*
X20133667Y-14695952D02*
X20114619Y-14705476D01*
X20076524Y-14705476D01*
X20057476Y-14695952D01*
X20047952Y-14686428D01*
X20038429Y-14667381D01*
X20038429Y-14610238D01*
X20047952Y-14591190D01*
X20057476Y-14581667D01*
X20076524Y-14572143D01*
X20114619Y-14572143D01*
X20133667Y-14581667D01*
X20209857Y-14781667D02*
X20219381Y-14772143D01*
X20238429Y-14743571D01*
X20247952Y-14724524D01*
X20257476Y-14695952D01*
X20267000Y-14648333D01*
X20267000Y-14610238D01*
X20257476Y-14562619D01*
X20247952Y-14534048D01*
X20238429Y-14515000D01*
X20219381Y-14486428D01*
X20209857Y-14476905D01*
M02*
