%TF.GenerationSoftware,KiCad,Pcbnew,(6.0.7)*%
%TF.CreationDate,2022-08-07T20:56:25-04:00*%
%TF.ProjectId,2022_generic,32303232-5f67-4656-9e65-7269632e6b69,rev?*%
%TF.SameCoordinates,Original*%
%TF.FileFunction,Copper,L1,Top*%
%TF.FilePolarity,Positive*%
%FSLAX46Y46*%
G04 Gerber Fmt 4.6, Leading zero omitted, Abs format (unit mm)*
G04 Created by KiCad (PCBNEW (6.0.7)) date 2022-08-07 20:56:25*
%MOMM*%
%LPD*%
G01*
G04 APERTURE LIST*
G04 Aperture macros list*
%AMRoundRect*
0 Rectangle with rounded corners*
0 $1 Rounding radius*
0 $2 $3 $4 $5 $6 $7 $8 $9 X,Y pos of 4 corners*
0 Add a 4 corners polygon primitive as box body*
4,1,4,$2,$3,$4,$5,$6,$7,$8,$9,$2,$3,0*
0 Add four circle primitives for the rounded corners*
1,1,$1+$1,$2,$3*
1,1,$1+$1,$4,$5*
1,1,$1+$1,$6,$7*
1,1,$1+$1,$8,$9*
0 Add four rect primitives between the rounded corners*
20,1,$1+$1,$2,$3,$4,$5,0*
20,1,$1+$1,$4,$5,$6,$7,0*
20,1,$1+$1,$6,$7,$8,$9,0*
20,1,$1+$1,$8,$9,$2,$3,0*%
G04 Aperture macros list end*
%TA.AperFunction,ComponentPad*%
%ADD10C,6.400000*%
%TD*%
%TA.AperFunction,ComponentPad*%
%ADD11R,2.000000X2.000000*%
%TD*%
%TA.AperFunction,ComponentPad*%
%ADD12R,2.600000X2.600000*%
%TD*%
%TA.AperFunction,ComponentPad*%
%ADD13C,2.600000*%
%TD*%
%TA.AperFunction,WasherPad*%
%ADD14C,4.000000*%
%TD*%
%TA.AperFunction,ComponentPad*%
%ADD15C,1.800000*%
%TD*%
%TA.AperFunction,SMDPad,CuDef*%
%ADD16RoundRect,0.250001X0.624999X-0.462499X0.624999X0.462499X-0.624999X0.462499X-0.624999X-0.462499X0*%
%TD*%
%TA.AperFunction,SMDPad,CuDef*%
%ADD17RoundRect,0.250000X-0.450000X0.350000X-0.450000X-0.350000X0.450000X-0.350000X0.450000X0.350000X0*%
%TD*%
%TA.AperFunction,SMDPad,CuDef*%
%ADD18RoundRect,0.250000X-0.350000X-0.450000X0.350000X-0.450000X0.350000X0.450000X-0.350000X0.450000X0*%
%TD*%
%TA.AperFunction,ComponentPad*%
%ADD19C,1.600000*%
%TD*%
%TA.AperFunction,ComponentPad*%
%ADD20C,2.000000*%
%TD*%
%TA.AperFunction,SMDPad,CuDef*%
%ADD21RoundRect,0.250000X0.337500X0.475000X-0.337500X0.475000X-0.337500X-0.475000X0.337500X-0.475000X0*%
%TD*%
%TA.AperFunction,SMDPad,CuDef*%
%ADD22R,1.000000X2.000000*%
%TD*%
%TA.AperFunction,SMDPad,CuDef*%
%ADD23RoundRect,0.150000X-0.825000X-0.150000X0.825000X-0.150000X0.825000X0.150000X-0.825000X0.150000X0*%
%TD*%
%TA.AperFunction,ViaPad*%
%ADD24C,0.762000*%
%TD*%
%TA.AperFunction,Conductor*%
%ADD25C,0.203200*%
%TD*%
G04 APERTURE END LIST*
D10*
X180848000Y-118110000D03*
D11*
X166370000Y-137922000D03*
D12*
X141470000Y-104180000D03*
D13*
X141470000Y-109180000D03*
D14*
X180422000Y-132014000D03*
X171622000Y-132014000D03*
D15*
X173522000Y-125014000D03*
X176022000Y-125014000D03*
X178522000Y-125014000D03*
D16*
X154940000Y-136107500D03*
X154940000Y-133132500D03*
D11*
X151130000Y-137922000D03*
D17*
X162560000Y-127270000D03*
X162560000Y-129270000D03*
D18*
X149622000Y-114554000D03*
X151622000Y-114554000D03*
D19*
X177292000Y-109249216D03*
X177292000Y-104249216D03*
D20*
X147268000Y-132116000D03*
X140768000Y-132116000D03*
X140768000Y-136616000D03*
X147268000Y-136616000D03*
D21*
X159787500Y-114554000D03*
X157712500Y-114554000D03*
D16*
X162560000Y-136107500D03*
X162560000Y-133132500D03*
D17*
X154940000Y-127270000D03*
X154940000Y-129270000D03*
D22*
X153670000Y-107349500D03*
X156210000Y-107349500D03*
X158750000Y-107349500D03*
X161290000Y-107349500D03*
X163830000Y-107349500D03*
D18*
X166132000Y-114554000D03*
X168132000Y-114554000D03*
D23*
X156275000Y-118491000D03*
X156275000Y-119761000D03*
X156275000Y-121031000D03*
X156275000Y-122301000D03*
X161225000Y-122301000D03*
X161225000Y-121031000D03*
X161225000Y-119761000D03*
X161225000Y-118491000D03*
D24*
X156210000Y-109728000D03*
X147828000Y-114554000D03*
X156286200Y-116001800D03*
D25*
X153317600Y-128171600D02*
X165001600Y-128171600D01*
X165001600Y-128171600D02*
X167103400Y-128171600D01*
X166370000Y-137922000D02*
X166370000Y-129540000D01*
X166370000Y-129540000D02*
X165001600Y-128171600D01*
X168132000Y-114554000D02*
X173436784Y-109249216D01*
X173436784Y-109249216D02*
X177292000Y-109249216D01*
X157712500Y-114575500D02*
X156286200Y-116001800D01*
X156210000Y-107349500D02*
X156210000Y-109728000D01*
X156275000Y-116013000D02*
X156286200Y-116001800D01*
X157712500Y-114554000D02*
X157712500Y-114575500D01*
X156275000Y-118491000D02*
X156275000Y-116013000D01*
X149622000Y-114554000D02*
X147828000Y-114554000D01*
X162560000Y-133132500D02*
X162560000Y-129270000D01*
X154940000Y-129270000D02*
X154940000Y-133132500D01*
X159925000Y-123476000D02*
X162560000Y-126111000D01*
X163830000Y-119634000D02*
X163830000Y-107349500D01*
X160848249Y-121031000D02*
X159925000Y-121954249D01*
X162560000Y-126111000D02*
X162560000Y-127270000D01*
X162433000Y-121031000D02*
X163830000Y-119634000D01*
X161225000Y-121031000D02*
X162433000Y-121031000D01*
X161225000Y-121031000D02*
X160848249Y-121031000D01*
X159925000Y-121954249D02*
X159925000Y-123476000D01*
X159131000Y-121285000D02*
X159131000Y-123444000D01*
X155305000Y-127270000D02*
X154940000Y-127270000D01*
X160655000Y-119761000D02*
X159131000Y-121285000D01*
X163068000Y-119126000D02*
X163068000Y-109127500D01*
X161225000Y-119761000D02*
X160655000Y-119761000D01*
X161225000Y-119761000D02*
X162433000Y-119761000D01*
X159131000Y-123444000D02*
X155305000Y-127270000D01*
X163068000Y-109127500D02*
X161290000Y-107349500D01*
X162433000Y-119761000D02*
X163068000Y-119126000D01*
X151638000Y-114554000D02*
X153670000Y-112522000D01*
X151622000Y-114554000D02*
X151638000Y-114554000D01*
X153670000Y-107349500D02*
X153670000Y-112522000D01*
X155067000Y-122301000D02*
X153670000Y-120904000D01*
X156275000Y-122301000D02*
X155067000Y-122301000D01*
X153670000Y-120904000D02*
X153670000Y-112522000D01*
X161225000Y-122301000D02*
X162433000Y-122301000D01*
X162433000Y-122301000D02*
X164592000Y-120142000D01*
X164592000Y-120142000D02*
X164592000Y-116094000D01*
X164592000Y-116094000D02*
X166132000Y-114554000D01*
X157099000Y-124333000D02*
X153289000Y-124333000D01*
X152273000Y-125349000D02*
X152273000Y-127127000D01*
X172864400Y-128171600D02*
X176022000Y-125014000D01*
X156972000Y-119761000D02*
X158496000Y-121285000D01*
X158496000Y-121285000D02*
X158496000Y-122936000D01*
X153289000Y-124333000D02*
X152273000Y-125349000D01*
X152273000Y-127127000D02*
X153317600Y-128171600D01*
X167103400Y-128171600D02*
X172864400Y-128171600D01*
X156275000Y-119761000D02*
X156972000Y-119761000D01*
X158496000Y-122936000D02*
X157099000Y-124333000D01*
X157575000Y-122647751D02*
X156778751Y-123444000D01*
X144236000Y-132116000D02*
X147268000Y-132116000D01*
X140768000Y-132116000D02*
X143546000Y-132116000D01*
X152908000Y-123444000D02*
X144236000Y-132116000D01*
X143546000Y-132116000D02*
X144236000Y-132116000D01*
X156275000Y-121031000D02*
X156651751Y-121031000D01*
X156778751Y-123444000D02*
X152908000Y-123444000D01*
X157575000Y-121954249D02*
X157575000Y-122647751D01*
X156651751Y-121031000D02*
X157575000Y-121954249D01*
%TA.AperFunction,Conductor*%
G36*
X180310018Y-97030000D02*
G01*
X180324851Y-97032310D01*
X180324855Y-97032310D01*
X180333724Y-97033691D01*
X180354183Y-97031016D01*
X180376008Y-97030072D01*
X180732937Y-97045656D01*
X180743886Y-97046614D01*
X181128379Y-97097233D01*
X181139205Y-97099142D01*
X181517822Y-97183080D01*
X181528439Y-97185925D01*
X181698702Y-97239608D01*
X181898302Y-97302542D01*
X181908615Y-97306295D01*
X182266932Y-97454715D01*
X182276876Y-97459353D01*
X182620867Y-97638423D01*
X182630387Y-97643919D01*
X182957468Y-97852292D01*
X182966472Y-97858597D01*
X183274138Y-98094678D01*
X183282558Y-98101743D01*
X183568483Y-98363744D01*
X183576256Y-98371517D01*
X183838257Y-98657442D01*
X183845322Y-98665862D01*
X184081403Y-98973528D01*
X184087708Y-98982532D01*
X184296081Y-99309613D01*
X184301577Y-99319133D01*
X184480643Y-99663115D01*
X184485289Y-99673077D01*
X184633702Y-100031377D01*
X184637461Y-100041706D01*
X184754075Y-100411561D01*
X184756920Y-100422178D01*
X184840858Y-100800795D01*
X184842767Y-100811621D01*
X184893386Y-101196114D01*
X184894344Y-101207064D01*
X184909603Y-101556552D01*
X184908223Y-101581429D01*
X184906309Y-101593724D01*
X184907473Y-101602626D01*
X184907473Y-101602628D01*
X184910436Y-101625283D01*
X184911500Y-101641621D01*
X184911500Y-134570633D01*
X184910000Y-134590018D01*
X184907690Y-134604851D01*
X184907690Y-134604855D01*
X184906309Y-134613724D01*
X184908984Y-134634183D01*
X184909928Y-134656008D01*
X184896778Y-134957182D01*
X184894344Y-135012936D01*
X184893386Y-135023885D01*
X184880322Y-135123115D01*
X184842767Y-135408379D01*
X184840858Y-135419205D01*
X184756920Y-135797822D01*
X184754075Y-135808439D01*
X184700392Y-135978702D01*
X184645319Y-136153373D01*
X184637461Y-136178294D01*
X184633705Y-136188615D01*
X184516578Y-136471385D01*
X184485289Y-136546923D01*
X184480647Y-136556876D01*
X184317401Y-136870469D01*
X184301577Y-136900867D01*
X184296081Y-136910387D01*
X184087708Y-137237468D01*
X184081403Y-137246472D01*
X183845322Y-137554138D01*
X183838257Y-137562558D01*
X183576598Y-137848110D01*
X183576256Y-137848483D01*
X183568487Y-137856252D01*
X183383270Y-138025972D01*
X183282558Y-138118257D01*
X183274138Y-138125322D01*
X182966472Y-138361403D01*
X182957468Y-138367708D01*
X182630387Y-138576081D01*
X182620868Y-138581576D01*
X182276876Y-138760647D01*
X182266932Y-138765285D01*
X181908615Y-138913705D01*
X181898302Y-138917458D01*
X181742073Y-138966717D01*
X181528439Y-139034075D01*
X181517822Y-139036920D01*
X181139205Y-139120858D01*
X181128378Y-139122767D01*
X180808375Y-139164896D01*
X180743886Y-139173386D01*
X180732937Y-139174344D01*
X180383446Y-139189603D01*
X180358571Y-139188223D01*
X180346276Y-139186309D01*
X180337374Y-139187473D01*
X180337372Y-139187473D01*
X180322323Y-139189441D01*
X180314714Y-139190436D01*
X180298379Y-139191500D01*
X167992353Y-139191500D01*
X167924232Y-139171498D01*
X167877739Y-139117842D01*
X167867635Y-139047568D01*
X167869295Y-139038852D01*
X167871745Y-139032316D01*
X167878500Y-138970134D01*
X167878500Y-136873866D01*
X167871745Y-136811684D01*
X167820615Y-136675295D01*
X167733261Y-136558739D01*
X167616705Y-136471385D01*
X167480316Y-136420255D01*
X167418134Y-136413500D01*
X167106100Y-136413500D01*
X167037979Y-136393498D01*
X166991486Y-136339842D01*
X166980100Y-136287500D01*
X166980100Y-132014000D01*
X169108540Y-132014000D01*
X169128359Y-132329020D01*
X169187505Y-132639072D01*
X169285044Y-132939266D01*
X169286731Y-132942852D01*
X169286733Y-132942856D01*
X169417750Y-133221283D01*
X169417754Y-133221290D01*
X169419438Y-133224869D01*
X169588568Y-133491375D01*
X169789767Y-133734582D01*
X170019860Y-133950654D01*
X170275221Y-134136184D01*
X170278690Y-134138091D01*
X170278693Y-134138093D01*
X170541720Y-134282694D01*
X170551821Y-134288247D01*
X170555490Y-134289700D01*
X170555495Y-134289702D01*
X170841628Y-134402990D01*
X170845298Y-134404443D01*
X171151025Y-134482940D01*
X171464179Y-134522500D01*
X171779821Y-134522500D01*
X172092975Y-134482940D01*
X172398702Y-134404443D01*
X172402372Y-134402990D01*
X172688505Y-134289702D01*
X172688510Y-134289700D01*
X172692179Y-134288247D01*
X172702280Y-134282694D01*
X172965307Y-134138093D01*
X172965310Y-134138091D01*
X172968779Y-134136184D01*
X173224140Y-133950654D01*
X173454233Y-133734582D01*
X173655432Y-133491375D01*
X173824562Y-133224869D01*
X173826246Y-133221290D01*
X173826250Y-133221283D01*
X173957267Y-132942856D01*
X173957269Y-132942852D01*
X173958956Y-132939266D01*
X174056495Y-132639072D01*
X174115641Y-132329020D01*
X174135460Y-132014000D01*
X177908540Y-132014000D01*
X177928359Y-132329020D01*
X177987505Y-132639072D01*
X178085044Y-132939266D01*
X178086731Y-132942852D01*
X178086733Y-132942856D01*
X178217750Y-133221283D01*
X178217754Y-133221290D01*
X178219438Y-133224869D01*
X178388568Y-133491375D01*
X178589767Y-133734582D01*
X178819860Y-133950654D01*
X179075221Y-134136184D01*
X179078690Y-134138091D01*
X179078693Y-134138093D01*
X179341720Y-134282694D01*
X179351821Y-134288247D01*
X179355490Y-134289700D01*
X179355495Y-134289702D01*
X179641628Y-134402990D01*
X179645298Y-134404443D01*
X179951025Y-134482940D01*
X180264179Y-134522500D01*
X180579821Y-134522500D01*
X180892975Y-134482940D01*
X181198702Y-134404443D01*
X181202372Y-134402990D01*
X181488505Y-134289702D01*
X181488510Y-134289700D01*
X181492179Y-134288247D01*
X181502280Y-134282694D01*
X181765307Y-134138093D01*
X181765310Y-134138091D01*
X181768779Y-134136184D01*
X182024140Y-133950654D01*
X182254233Y-133734582D01*
X182455432Y-133491375D01*
X182624562Y-133224869D01*
X182626246Y-133221290D01*
X182626250Y-133221283D01*
X182757267Y-132942856D01*
X182757269Y-132942852D01*
X182758956Y-132939266D01*
X182856495Y-132639072D01*
X182915641Y-132329020D01*
X182935460Y-132014000D01*
X182915641Y-131698980D01*
X182856495Y-131388928D01*
X182758956Y-131088734D01*
X182666298Y-130891824D01*
X182626250Y-130806717D01*
X182626246Y-130806710D01*
X182624562Y-130803131D01*
X182455432Y-130536625D01*
X182266524Y-130308275D01*
X182256758Y-130296470D01*
X182256757Y-130296469D01*
X182254233Y-130293418D01*
X182024140Y-130077346D01*
X181768779Y-129891816D01*
X181683444Y-129844902D01*
X181495648Y-129741660D01*
X181495647Y-129741659D01*
X181492179Y-129739753D01*
X181488510Y-129738300D01*
X181488505Y-129738298D01*
X181202372Y-129625010D01*
X181202371Y-129625010D01*
X181198702Y-129623557D01*
X180892975Y-129545060D01*
X180579821Y-129505500D01*
X180264179Y-129505500D01*
X179951025Y-129545060D01*
X179645298Y-129623557D01*
X179641629Y-129625010D01*
X179641628Y-129625010D01*
X179355495Y-129738298D01*
X179355490Y-129738300D01*
X179351821Y-129739753D01*
X179348353Y-129741659D01*
X179348352Y-129741660D01*
X179160557Y-129844902D01*
X179075221Y-129891816D01*
X178819860Y-130077346D01*
X178589767Y-130293418D01*
X178587243Y-130296469D01*
X178587242Y-130296470D01*
X178577476Y-130308275D01*
X178388568Y-130536625D01*
X178219438Y-130803131D01*
X178217754Y-130806710D01*
X178217750Y-130806717D01*
X178177702Y-130891824D01*
X178085044Y-131088734D01*
X177987505Y-131388928D01*
X177928359Y-131698980D01*
X177908540Y-132014000D01*
X174135460Y-132014000D01*
X174115641Y-131698980D01*
X174056495Y-131388928D01*
X173958956Y-131088734D01*
X173866298Y-130891824D01*
X173826250Y-130806717D01*
X173826246Y-130806710D01*
X173824562Y-130803131D01*
X173655432Y-130536625D01*
X173466524Y-130308275D01*
X173456758Y-130296470D01*
X173456757Y-130296469D01*
X173454233Y-130293418D01*
X173224140Y-130077346D01*
X172968779Y-129891816D01*
X172883444Y-129844902D01*
X172695648Y-129741660D01*
X172695647Y-129741659D01*
X172692179Y-129739753D01*
X172688510Y-129738300D01*
X172688505Y-129738298D01*
X172402372Y-129625010D01*
X172402371Y-129625010D01*
X172398702Y-129623557D01*
X172092975Y-129545060D01*
X171779821Y-129505500D01*
X171464179Y-129505500D01*
X171151025Y-129545060D01*
X170845298Y-129623557D01*
X170841629Y-129625010D01*
X170841628Y-129625010D01*
X170555495Y-129738298D01*
X170555490Y-129738300D01*
X170551821Y-129739753D01*
X170548353Y-129741659D01*
X170548352Y-129741660D01*
X170360557Y-129844902D01*
X170275221Y-129891816D01*
X170019860Y-130077346D01*
X169789767Y-130293418D01*
X169787243Y-130296469D01*
X169787242Y-130296470D01*
X169777476Y-130308275D01*
X169588568Y-130536625D01*
X169419438Y-130803131D01*
X169417754Y-130806710D01*
X169417750Y-130806717D01*
X169377702Y-130891824D01*
X169285044Y-131088734D01*
X169187505Y-131388928D01*
X169128359Y-131698980D01*
X169108540Y-132014000D01*
X166980100Y-132014000D01*
X166980100Y-129615681D01*
X166980597Y-129605132D01*
X166982220Y-129597872D01*
X166980162Y-129532387D01*
X166980100Y-129528429D01*
X166980100Y-129501617D01*
X166979604Y-129497691D01*
X166979550Y-129496835D01*
X166978708Y-129486139D01*
X166977627Y-129451726D01*
X166977378Y-129443801D01*
X166972036Y-129425414D01*
X166968028Y-129406057D01*
X166966623Y-129394935D01*
X166966623Y-129394934D01*
X166965629Y-129387068D01*
X166961444Y-129376496D01*
X166950036Y-129347682D01*
X166946192Y-129336455D01*
X166936584Y-129303387D01*
X166936583Y-129303384D01*
X166934372Y-129295775D01*
X166924630Y-129279301D01*
X166915934Y-129261550D01*
X166911804Y-129251119D01*
X166911801Y-129251114D01*
X166908884Y-129243746D01*
X166883983Y-129209473D01*
X166877474Y-129199565D01*
X166855906Y-129163094D01*
X166842374Y-129149562D01*
X166829532Y-129134527D01*
X166818279Y-129119038D01*
X166785633Y-129092031D01*
X166776853Y-129084041D01*
X166689607Y-128996795D01*
X166655581Y-128934483D01*
X166660646Y-128863668D01*
X166703193Y-128806832D01*
X166769713Y-128782021D01*
X166778702Y-128781700D01*
X172788722Y-128781700D01*
X172799274Y-128782198D01*
X172806528Y-128783819D01*
X172871995Y-128781762D01*
X172875952Y-128781700D01*
X172902783Y-128781700D01*
X172906710Y-128781204D01*
X172907616Y-128781147D01*
X172918260Y-128780308D01*
X172960599Y-128778978D01*
X172978986Y-128773636D01*
X172998343Y-128769628D01*
X173009465Y-128768223D01*
X173009466Y-128768223D01*
X173017332Y-128767229D01*
X173030208Y-128762131D01*
X173056718Y-128751636D01*
X173067945Y-128747792D01*
X173101009Y-128738185D01*
X173101011Y-128738184D01*
X173108625Y-128735972D01*
X173125105Y-128726226D01*
X173142845Y-128717535D01*
X173160654Y-128710484D01*
X173194932Y-128685580D01*
X173204852Y-128679064D01*
X173234479Y-128661543D01*
X173234482Y-128661541D01*
X173241306Y-128657505D01*
X173254833Y-128643978D01*
X173269867Y-128631137D01*
X173278947Y-128624540D01*
X173278948Y-128624539D01*
X173285362Y-128619879D01*
X173312374Y-128587227D01*
X173320363Y-128578448D01*
X175497786Y-126401026D01*
X175560098Y-126367000D01*
X175622032Y-126369124D01*
X175622877Y-126369369D01*
X175627694Y-126371209D01*
X175632743Y-126372236D01*
X175632749Y-126372238D01*
X175742015Y-126394468D01*
X175854656Y-126417385D01*
X175985324Y-126422176D01*
X176080949Y-126425683D01*
X176080953Y-126425683D01*
X176086113Y-126425872D01*
X176091233Y-126425216D01*
X176091235Y-126425216D01*
X176164291Y-126415857D01*
X176315847Y-126396442D01*
X176320795Y-126394957D01*
X176320802Y-126394956D01*
X176532747Y-126331369D01*
X176537690Y-126329886D01*
X176543287Y-126327144D01*
X176741049Y-126230262D01*
X176741052Y-126230260D01*
X176745684Y-126227991D01*
X176819406Y-126175406D01*
X177725423Y-126175406D01*
X177730704Y-126182461D01*
X177907080Y-126285527D01*
X177916363Y-126289974D01*
X178123003Y-126368883D01*
X178132901Y-126371759D01*
X178349653Y-126415857D01*
X178359883Y-126417076D01*
X178580914Y-126425182D01*
X178591223Y-126424714D01*
X178810623Y-126396608D01*
X178820688Y-126394468D01*
X179032557Y-126330905D01*
X179042152Y-126327144D01*
X179240778Y-126229838D01*
X179249636Y-126224559D01*
X179307097Y-126183572D01*
X179315497Y-126172874D01*
X179308510Y-126159721D01*
X178534811Y-125386021D01*
X178520868Y-125378408D01*
X178519034Y-125378539D01*
X178512420Y-125382790D01*
X177732180Y-126163031D01*
X177725423Y-126175406D01*
X176819406Y-126175406D01*
X176934243Y-126093494D01*
X177098303Y-125930005D01*
X177172714Y-125826451D01*
X177228709Y-125782803D01*
X177299412Y-125776357D01*
X177359572Y-125806543D01*
X177362555Y-125809242D01*
X177371330Y-125805459D01*
X178149979Y-125026811D01*
X178156356Y-125015132D01*
X178886408Y-125015132D01*
X178886539Y-125016966D01*
X178890790Y-125023580D01*
X179668307Y-125801096D01*
X179680313Y-125807652D01*
X179692052Y-125798684D01*
X179730010Y-125745859D01*
X179735321Y-125737020D01*
X179833318Y-125538737D01*
X179837117Y-125529142D01*
X179901415Y-125317517D01*
X179903594Y-125307436D01*
X179932702Y-125086338D01*
X179933221Y-125079663D01*
X179934744Y-125017364D01*
X179934550Y-125010646D01*
X179916279Y-124788400D01*
X179914596Y-124778238D01*
X179860710Y-124563708D01*
X179857389Y-124553953D01*
X179769193Y-124351118D01*
X179764315Y-124342020D01*
X179691224Y-124229038D01*
X179680538Y-124219835D01*
X179670973Y-124224238D01*
X178894021Y-125001189D01*
X178886408Y-125015132D01*
X178156356Y-125015132D01*
X178157592Y-125012868D01*
X178157461Y-125011034D01*
X178153210Y-125004420D01*
X177375862Y-124227073D01*
X177364331Y-124220776D01*
X177354877Y-124228183D01*
X177288918Y-124254450D01*
X177219229Y-124240887D01*
X177171377Y-124197440D01*
X177144571Y-124156004D01*
X177141764Y-124151665D01*
X176985887Y-123980358D01*
X176981836Y-123977159D01*
X176981832Y-123977155D01*
X176826790Y-123854711D01*
X177727508Y-123854711D01*
X177734251Y-123867040D01*
X178509189Y-124641979D01*
X178523132Y-124649592D01*
X178524966Y-124649461D01*
X178531580Y-124645210D01*
X179310994Y-123865795D01*
X179318011Y-123852944D01*
X179310237Y-123842274D01*
X179307902Y-123840430D01*
X179299320Y-123834729D01*
X179105678Y-123727833D01*
X179096272Y-123723606D01*
X178887772Y-123649772D01*
X178877809Y-123647140D01*
X178660047Y-123608350D01*
X178649796Y-123607381D01*
X178428616Y-123604679D01*
X178418332Y-123605399D01*
X178199693Y-123638855D01*
X178189666Y-123641244D01*
X177979426Y-123709961D01*
X177969916Y-123713958D01*
X177773725Y-123816089D01*
X177765007Y-123821578D01*
X177735961Y-123843386D01*
X177727508Y-123854711D01*
X176826790Y-123854711D01*
X176808177Y-123840011D01*
X176808172Y-123840008D01*
X176804123Y-123836810D01*
X176799607Y-123834317D01*
X176799604Y-123834315D01*
X176605879Y-123727373D01*
X176605875Y-123727371D01*
X176601355Y-123724876D01*
X176596486Y-123723152D01*
X176596482Y-123723150D01*
X176387903Y-123649288D01*
X176387899Y-123649287D01*
X176383028Y-123647562D01*
X176377935Y-123646655D01*
X176377932Y-123646654D01*
X176160095Y-123607851D01*
X176160089Y-123607850D01*
X176155006Y-123606945D01*
X176082096Y-123606054D01*
X175928581Y-123604179D01*
X175928579Y-123604179D01*
X175923411Y-123604116D01*
X175694464Y-123639150D01*
X175474314Y-123711106D01*
X175469726Y-123713494D01*
X175469722Y-123713496D01*
X175273461Y-123815663D01*
X175268872Y-123818052D01*
X175264739Y-123821155D01*
X175264736Y-123821157D01*
X175087790Y-123954012D01*
X175083655Y-123957117D01*
X174923639Y-124124564D01*
X174876836Y-124193174D01*
X174821927Y-124238175D01*
X174751402Y-124246346D01*
X174687655Y-124215092D01*
X174666959Y-124190609D01*
X174644577Y-124156013D01*
X174644576Y-124156012D01*
X174641764Y-124151665D01*
X174485887Y-123980358D01*
X174481836Y-123977159D01*
X174481832Y-123977155D01*
X174308177Y-123840011D01*
X174308172Y-123840008D01*
X174304123Y-123836810D01*
X174299607Y-123834317D01*
X174299604Y-123834315D01*
X174105879Y-123727373D01*
X174105875Y-123727371D01*
X174101355Y-123724876D01*
X174096486Y-123723152D01*
X174096482Y-123723150D01*
X173887903Y-123649288D01*
X173887899Y-123649287D01*
X173883028Y-123647562D01*
X173877935Y-123646655D01*
X173877932Y-123646654D01*
X173660095Y-123607851D01*
X173660089Y-123607850D01*
X173655006Y-123606945D01*
X173582096Y-123606054D01*
X173428581Y-123604179D01*
X173428579Y-123604179D01*
X173423411Y-123604116D01*
X173194464Y-123639150D01*
X172974314Y-123711106D01*
X172969726Y-123713494D01*
X172969722Y-123713496D01*
X172773461Y-123815663D01*
X172768872Y-123818052D01*
X172764739Y-123821155D01*
X172764736Y-123821157D01*
X172587790Y-123954012D01*
X172583655Y-123957117D01*
X172423639Y-124124564D01*
X172420730Y-124128829D01*
X172420724Y-124128837D01*
X172405152Y-124151665D01*
X172293119Y-124315899D01*
X172195602Y-124525981D01*
X172133707Y-124749169D01*
X172109095Y-124979469D01*
X172109392Y-124984622D01*
X172109392Y-124984625D01*
X172114872Y-125079663D01*
X172122427Y-125210697D01*
X172123564Y-125215743D01*
X172123565Y-125215749D01*
X172144228Y-125307436D01*
X172173346Y-125436642D01*
X172175288Y-125441424D01*
X172175289Y-125441428D01*
X172258540Y-125646450D01*
X172260484Y-125651237D01*
X172381501Y-125848719D01*
X172533147Y-126023784D01*
X172685785Y-126150507D01*
X172704020Y-126165645D01*
X172711349Y-126171730D01*
X172911322Y-126288584D01*
X172916147Y-126290426D01*
X172916148Y-126290427D01*
X172985353Y-126316854D01*
X173127694Y-126371209D01*
X173132760Y-126372240D01*
X173132761Y-126372240D01*
X173185846Y-126383040D01*
X173354656Y-126417385D01*
X173419805Y-126419774D01*
X173452719Y-126420981D01*
X173520061Y-126443466D01*
X173564557Y-126498789D01*
X173572079Y-126569386D01*
X173537197Y-126635991D01*
X172648593Y-127524595D01*
X172586281Y-127558621D01*
X172559498Y-127561500D01*
X165059536Y-127561500D01*
X165039825Y-127559949D01*
X165020916Y-127556954D01*
X165007799Y-127558194D01*
X164978739Y-127560941D01*
X164966881Y-127561500D01*
X163894500Y-127561500D01*
X163826379Y-127541498D01*
X163779886Y-127487842D01*
X163768500Y-127435500D01*
X163768500Y-126869600D01*
X163768163Y-126866350D01*
X163758238Y-126770692D01*
X163758237Y-126770688D01*
X163757526Y-126763834D01*
X163701550Y-126596054D01*
X163608478Y-126445652D01*
X163588664Y-126425872D01*
X163488483Y-126325866D01*
X163483303Y-126320695D01*
X163477072Y-126316854D01*
X163338968Y-126231725D01*
X163338966Y-126231724D01*
X163332738Y-126227885D01*
X163256432Y-126202575D01*
X163198073Y-126162146D01*
X163170836Y-126096582D01*
X163170100Y-126082983D01*
X163170100Y-126072617D01*
X163169604Y-126068691D01*
X163169550Y-126067835D01*
X163168708Y-126057139D01*
X163167627Y-126022721D01*
X163167627Y-126022720D01*
X163167378Y-126014801D01*
X163165167Y-126007189D01*
X163165166Y-126007185D01*
X163162036Y-125996408D01*
X163158028Y-125977056D01*
X163157891Y-125975969D01*
X163155629Y-125958068D01*
X163140035Y-125918683D01*
X163136197Y-125907475D01*
X163124373Y-125866775D01*
X163120340Y-125859955D01*
X163120337Y-125859949D01*
X163114628Y-125850297D01*
X163105933Y-125832550D01*
X163098884Y-125814746D01*
X163094220Y-125808326D01*
X163094218Y-125808323D01*
X163073983Y-125780471D01*
X163067475Y-125770566D01*
X163045906Y-125734094D01*
X163032374Y-125720562D01*
X163019532Y-125705527D01*
X163008279Y-125690038D01*
X162975633Y-125663031D01*
X162966853Y-125655041D01*
X160636407Y-123324595D01*
X160602381Y-123262283D01*
X160607446Y-123191468D01*
X160649993Y-123134632D01*
X160716513Y-123109821D01*
X160725502Y-123109500D01*
X162116502Y-123109500D01*
X162118950Y-123109307D01*
X162118958Y-123109307D01*
X162147421Y-123107067D01*
X162147426Y-123107066D01*
X162153831Y-123106562D01*
X162253769Y-123077528D01*
X162305988Y-123062357D01*
X162305990Y-123062356D01*
X162313601Y-123060145D01*
X162422536Y-122995721D01*
X162449980Y-122979491D01*
X162449983Y-122979489D01*
X162456807Y-122975453D01*
X162497853Y-122934407D01*
X162560165Y-122900381D01*
X162571153Y-122898496D01*
X162578066Y-122897623D01*
X162578068Y-122897622D01*
X162585932Y-122896629D01*
X162604264Y-122889371D01*
X162625318Y-122881036D01*
X162636545Y-122877192D01*
X162669609Y-122867585D01*
X162669611Y-122867584D01*
X162677225Y-122865372D01*
X162693705Y-122855626D01*
X162711445Y-122846935D01*
X162729254Y-122839884D01*
X162763532Y-122814980D01*
X162773452Y-122808464D01*
X162803079Y-122790943D01*
X162803082Y-122790941D01*
X162809906Y-122786905D01*
X162823433Y-122773378D01*
X162838467Y-122760537D01*
X162847547Y-122753940D01*
X162847548Y-122753939D01*
X162853962Y-122749279D01*
X162880974Y-122716627D01*
X162888963Y-122707848D01*
X164969890Y-120626922D01*
X164977705Y-120619810D01*
X164983983Y-120615826D01*
X165028830Y-120568069D01*
X165031585Y-120565227D01*
X165050547Y-120546265D01*
X165052973Y-120543138D01*
X165053538Y-120542497D01*
X165060507Y-120534337D01*
X165084075Y-120509239D01*
X165089504Y-120503458D01*
X165098728Y-120486681D01*
X165109575Y-120470168D01*
X165116452Y-120461302D01*
X165116455Y-120461297D01*
X165121313Y-120455034D01*
X165138139Y-120416150D01*
X165143354Y-120405505D01*
X165163765Y-120368378D01*
X165168525Y-120349838D01*
X165174928Y-120331136D01*
X165179384Y-120320839D01*
X165182532Y-120313565D01*
X165189159Y-120271722D01*
X165191566Y-120260098D01*
X165200129Y-120226750D01*
X165202100Y-120219074D01*
X165202100Y-120199936D01*
X165203651Y-120180225D01*
X165205406Y-120169144D01*
X165206646Y-120161316D01*
X165202659Y-120119139D01*
X165202100Y-120107281D01*
X165202100Y-118110000D01*
X177134411Y-118110000D01*
X177154754Y-118498176D01*
X177215562Y-118882099D01*
X177316167Y-119257562D01*
X177455468Y-119620453D01*
X177456966Y-119623393D01*
X177561025Y-119827619D01*
X177631938Y-119966794D01*
X177633734Y-119969560D01*
X177633736Y-119969563D01*
X177783341Y-120199936D01*
X177843643Y-120292793D01*
X177874693Y-120331136D01*
X178065402Y-120566641D01*
X178088266Y-120594876D01*
X178363124Y-120869734D01*
X178365682Y-120871806D01*
X178365686Y-120871809D01*
X178452838Y-120942383D01*
X178665207Y-121114357D01*
X178667970Y-121116152D01*
X178667971Y-121116152D01*
X178921671Y-121280906D01*
X178991205Y-121326062D01*
X178994139Y-121327557D01*
X178994146Y-121327561D01*
X179057739Y-121359963D01*
X179337547Y-121502532D01*
X179700438Y-121641833D01*
X180075901Y-121742438D01*
X180279793Y-121774732D01*
X180456576Y-121802732D01*
X180456584Y-121802733D01*
X180459824Y-121803246D01*
X180848000Y-121823589D01*
X181236176Y-121803246D01*
X181239416Y-121802733D01*
X181239424Y-121802732D01*
X181416207Y-121774732D01*
X181620099Y-121742438D01*
X181995562Y-121641833D01*
X182358453Y-121502532D01*
X182638261Y-121359963D01*
X182701854Y-121327561D01*
X182701861Y-121327557D01*
X182704795Y-121326062D01*
X182774330Y-121280906D01*
X183028029Y-121116152D01*
X183028030Y-121116152D01*
X183030793Y-121114357D01*
X183243162Y-120942383D01*
X183330314Y-120871809D01*
X183330318Y-120871806D01*
X183332876Y-120869734D01*
X183607734Y-120594876D01*
X183630599Y-120566641D01*
X183821307Y-120331136D01*
X183852357Y-120292793D01*
X183912659Y-120199936D01*
X184062264Y-119969563D01*
X184062266Y-119969560D01*
X184064062Y-119966794D01*
X184134976Y-119827619D01*
X184239034Y-119623393D01*
X184240532Y-119620453D01*
X184379833Y-119257562D01*
X184480438Y-118882099D01*
X184541246Y-118498176D01*
X184561589Y-118110000D01*
X184541246Y-117721824D01*
X184537967Y-117701116D01*
X184480954Y-117341162D01*
X184480438Y-117337901D01*
X184379833Y-116962438D01*
X184240532Y-116599547D01*
X184118120Y-116359300D01*
X184065561Y-116256147D01*
X184065557Y-116256140D01*
X184064062Y-116253206D01*
X183852357Y-115927207D01*
X183681518Y-115716239D01*
X183609809Y-115627686D01*
X183609806Y-115627682D01*
X183607734Y-115625124D01*
X183332876Y-115350266D01*
X183325850Y-115344576D01*
X183118805Y-115176914D01*
X183030793Y-115105643D01*
X182989608Y-115078897D01*
X182707564Y-114895736D01*
X182707561Y-114895734D01*
X182704795Y-114893938D01*
X182701861Y-114892443D01*
X182701854Y-114892439D01*
X182361393Y-114718966D01*
X182358453Y-114717468D01*
X181995562Y-114578167D01*
X181620099Y-114477562D01*
X181416207Y-114445268D01*
X181239424Y-114417268D01*
X181239416Y-114417267D01*
X181236176Y-114416754D01*
X180848000Y-114396411D01*
X180459824Y-114416754D01*
X180456584Y-114417267D01*
X180456576Y-114417268D01*
X180279793Y-114445268D01*
X180075901Y-114477562D01*
X179700438Y-114578167D01*
X179337547Y-114717468D01*
X179334607Y-114718966D01*
X178994147Y-114892439D01*
X178994140Y-114892443D01*
X178991206Y-114893938D01*
X178988440Y-114895734D01*
X178988437Y-114895736D01*
X178667971Y-115103848D01*
X178665207Y-115105643D01*
X178577195Y-115176914D01*
X178370151Y-115344576D01*
X178363124Y-115350266D01*
X178088266Y-115625124D01*
X178086194Y-115627682D01*
X178086191Y-115627686D01*
X178014482Y-115716239D01*
X177843643Y-115927207D01*
X177631938Y-116253206D01*
X177630443Y-116256140D01*
X177630439Y-116256147D01*
X177577880Y-116359300D01*
X177455468Y-116599547D01*
X177316167Y-116962438D01*
X177215562Y-117337901D01*
X177215046Y-117341162D01*
X177158034Y-117701116D01*
X177154754Y-117721824D01*
X177134411Y-118110000D01*
X165202100Y-118110000D01*
X165202100Y-116398902D01*
X165222102Y-116330781D01*
X165239005Y-116309806D01*
X165749408Y-115799404D01*
X165811720Y-115765379D01*
X165838503Y-115762500D01*
X166532400Y-115762500D01*
X166535646Y-115762163D01*
X166535650Y-115762163D01*
X166631308Y-115752238D01*
X166631312Y-115752237D01*
X166638166Y-115751526D01*
X166644702Y-115749345D01*
X166644704Y-115749345D01*
X166776806Y-115705272D01*
X166805946Y-115695550D01*
X166956348Y-115602478D01*
X167042784Y-115515891D01*
X167105066Y-115481812D01*
X167175886Y-115486815D01*
X167220976Y-115515736D01*
X167308697Y-115603305D01*
X167314927Y-115607145D01*
X167314928Y-115607146D01*
X167452090Y-115691694D01*
X167459262Y-115696115D01*
X167519934Y-115716239D01*
X167620611Y-115749632D01*
X167620613Y-115749632D01*
X167627139Y-115751797D01*
X167633975Y-115752497D01*
X167633978Y-115752498D01*
X167677031Y-115756909D01*
X167731600Y-115762500D01*
X168532400Y-115762500D01*
X168535646Y-115762163D01*
X168535650Y-115762163D01*
X168631308Y-115752238D01*
X168631312Y-115752237D01*
X168638166Y-115751526D01*
X168644702Y-115749345D01*
X168644704Y-115749345D01*
X168776806Y-115705272D01*
X168805946Y-115695550D01*
X168956348Y-115602478D01*
X169081305Y-115477303D01*
X169160891Y-115348191D01*
X169170275Y-115332968D01*
X169170276Y-115332966D01*
X169174115Y-115326738D01*
X169229797Y-115158861D01*
X169240500Y-115054400D01*
X169240500Y-114360501D01*
X169260502Y-114292380D01*
X169277405Y-114271406D01*
X173652590Y-109896221D01*
X173714902Y-109862195D01*
X173741685Y-109859316D01*
X176056221Y-109859316D01*
X176124342Y-109879318D01*
X176159434Y-109913045D01*
X176252083Y-110045361D01*
X176285802Y-110093516D01*
X176447700Y-110255414D01*
X176452208Y-110258571D01*
X176452211Y-110258573D01*
X176475596Y-110274947D01*
X176635251Y-110386739D01*
X176640233Y-110389062D01*
X176640238Y-110389065D01*
X176837775Y-110481177D01*
X176842757Y-110483500D01*
X176848065Y-110484922D01*
X176848067Y-110484923D01*
X177058598Y-110541335D01*
X177058600Y-110541335D01*
X177063913Y-110542759D01*
X177292000Y-110562714D01*
X177520087Y-110542759D01*
X177525400Y-110541335D01*
X177525402Y-110541335D01*
X177735933Y-110484923D01*
X177735935Y-110484922D01*
X177741243Y-110483500D01*
X177746225Y-110481177D01*
X177943762Y-110389065D01*
X177943767Y-110389062D01*
X177948749Y-110386739D01*
X178108404Y-110274947D01*
X178131789Y-110258573D01*
X178131792Y-110258571D01*
X178136300Y-110255414D01*
X178298198Y-110093516D01*
X178429523Y-109905965D01*
X178431846Y-109900983D01*
X178431849Y-109900978D01*
X178523961Y-109703441D01*
X178523961Y-109703440D01*
X178526284Y-109698459D01*
X178585543Y-109477303D01*
X178605498Y-109249216D01*
X178585543Y-109021129D01*
X178555064Y-108907379D01*
X178527707Y-108805283D01*
X178527706Y-108805281D01*
X178526284Y-108799973D01*
X178511805Y-108768922D01*
X178431849Y-108597454D01*
X178431846Y-108597449D01*
X178429523Y-108592467D01*
X178298198Y-108404916D01*
X178136300Y-108243018D01*
X178131792Y-108239861D01*
X178131789Y-108239859D01*
X178020873Y-108162195D01*
X177948749Y-108111693D01*
X177943767Y-108109370D01*
X177943762Y-108109367D01*
X177746225Y-108017255D01*
X177746224Y-108017255D01*
X177741243Y-108014932D01*
X177735935Y-108013510D01*
X177735933Y-108013509D01*
X177525402Y-107957097D01*
X177525400Y-107957097D01*
X177520087Y-107955673D01*
X177292000Y-107935718D01*
X177063913Y-107955673D01*
X177058600Y-107957097D01*
X177058598Y-107957097D01*
X176848067Y-108013509D01*
X176848065Y-108013510D01*
X176842757Y-108014932D01*
X176837776Y-108017255D01*
X176837775Y-108017255D01*
X176640238Y-108109367D01*
X176640233Y-108109370D01*
X176635251Y-108111693D01*
X176563127Y-108162195D01*
X176452211Y-108239859D01*
X176452208Y-108239861D01*
X176447700Y-108243018D01*
X176285802Y-108404916D01*
X176282645Y-108409424D01*
X176282643Y-108409427D01*
X176159434Y-108585387D01*
X176103977Y-108629715D01*
X176056221Y-108639116D01*
X173512461Y-108639116D01*
X173501909Y-108638618D01*
X173494655Y-108636997D01*
X173432235Y-108638958D01*
X173429189Y-108639054D01*
X173425232Y-108639116D01*
X173398401Y-108639116D01*
X173394474Y-108639612D01*
X173393568Y-108639669D01*
X173382924Y-108640508D01*
X173340585Y-108641838D01*
X173322198Y-108647180D01*
X173302841Y-108651188D01*
X173283852Y-108653587D01*
X173244464Y-108669181D01*
X173233241Y-108673023D01*
X173200174Y-108682631D01*
X173200172Y-108682632D01*
X173192558Y-108684844D01*
X173176077Y-108694591D01*
X173158335Y-108703283D01*
X173140530Y-108710332D01*
X173134116Y-108714992D01*
X173106256Y-108735233D01*
X173096336Y-108741749D01*
X173066704Y-108759273D01*
X173066701Y-108759275D01*
X173059877Y-108763311D01*
X173046346Y-108776842D01*
X173031314Y-108789681D01*
X173015822Y-108800937D01*
X173010769Y-108807045D01*
X172988815Y-108833583D01*
X172980825Y-108842363D01*
X168514593Y-113308595D01*
X168452281Y-113342621D01*
X168425498Y-113345500D01*
X167731600Y-113345500D01*
X167728354Y-113345837D01*
X167728350Y-113345837D01*
X167632692Y-113355762D01*
X167632688Y-113355763D01*
X167625834Y-113356474D01*
X167619298Y-113358655D01*
X167619296Y-113358655D01*
X167521796Y-113391184D01*
X167458054Y-113412450D01*
X167307652Y-113505522D01*
X167302479Y-113510704D01*
X167221216Y-113592109D01*
X167158934Y-113626188D01*
X167088114Y-113621185D01*
X167043025Y-113592264D01*
X166960483Y-113509866D01*
X166955303Y-113504695D01*
X166924494Y-113485704D01*
X166810968Y-113415725D01*
X166810966Y-113415724D01*
X166804738Y-113411885D01*
X166644254Y-113358655D01*
X166643389Y-113358368D01*
X166643387Y-113358368D01*
X166636861Y-113356203D01*
X166630025Y-113355503D01*
X166630022Y-113355502D01*
X166586969Y-113351091D01*
X166532400Y-113345500D01*
X165731600Y-113345500D01*
X165728354Y-113345837D01*
X165728350Y-113345837D01*
X165632692Y-113355762D01*
X165632688Y-113355763D01*
X165625834Y-113356474D01*
X165619298Y-113358655D01*
X165619296Y-113358655D01*
X165521796Y-113391184D01*
X165458054Y-113412450D01*
X165307652Y-113505522D01*
X165182695Y-113630697D01*
X165178855Y-113636927D01*
X165178854Y-113636928D01*
X165109136Y-113750032D01*
X165089885Y-113781262D01*
X165034203Y-113949139D01*
X165023500Y-114053600D01*
X165023500Y-114747498D01*
X165003498Y-114815619D01*
X164986595Y-114836594D01*
X164655195Y-115167993D01*
X164592883Y-115202018D01*
X164522067Y-115196953D01*
X164465232Y-115154406D01*
X164440421Y-115087886D01*
X164440100Y-115078897D01*
X164440100Y-108938654D01*
X164460102Y-108870533D01*
X164513758Y-108824040D01*
X164521870Y-108820672D01*
X164568297Y-108803267D01*
X164576705Y-108800115D01*
X164693261Y-108712761D01*
X164780615Y-108596205D01*
X164831745Y-108459816D01*
X164838500Y-108397634D01*
X164838500Y-106301366D01*
X164831745Y-106239184D01*
X164780615Y-106102795D01*
X164693261Y-105986239D01*
X164576705Y-105898885D01*
X164440316Y-105847755D01*
X164378134Y-105841000D01*
X163281866Y-105841000D01*
X163219684Y-105847755D01*
X163083295Y-105898885D01*
X162966739Y-105986239D01*
X162879385Y-106102795D01*
X162828255Y-106239184D01*
X162821500Y-106301366D01*
X162821500Y-107713998D01*
X162801498Y-107782119D01*
X162747842Y-107828612D01*
X162677568Y-107838716D01*
X162612988Y-107809222D01*
X162606405Y-107803093D01*
X162335405Y-107532093D01*
X162301379Y-107469781D01*
X162298500Y-107442998D01*
X162298500Y-106301366D01*
X162291745Y-106239184D01*
X162240615Y-106102795D01*
X162153261Y-105986239D01*
X162036705Y-105898885D01*
X161900316Y-105847755D01*
X161838134Y-105841000D01*
X160741866Y-105841000D01*
X160679684Y-105847755D01*
X160543295Y-105898885D01*
X160426739Y-105986239D01*
X160339385Y-106102795D01*
X160288255Y-106239184D01*
X160281500Y-106301366D01*
X160281500Y-108397634D01*
X160288255Y-108459816D01*
X160339385Y-108596205D01*
X160426739Y-108712761D01*
X160543295Y-108800115D01*
X160679684Y-108851245D01*
X160741866Y-108858000D01*
X161838134Y-108858000D01*
X161841524Y-108857632D01*
X161841538Y-108857631D01*
X161866117Y-108854961D01*
X161935999Y-108867490D01*
X161968817Y-108891129D01*
X162420995Y-109343307D01*
X162455021Y-109405619D01*
X162457900Y-109432402D01*
X162457900Y-117606482D01*
X162437898Y-117674603D01*
X162384242Y-117721096D01*
X162313968Y-117731200D01*
X162296747Y-117727479D01*
X162159938Y-117687732D01*
X162147333Y-117685430D01*
X162118916Y-117683193D01*
X162113986Y-117683000D01*
X161497115Y-117683000D01*
X161481876Y-117687475D01*
X161480671Y-117688865D01*
X161479000Y-117696548D01*
X161479000Y-118619000D01*
X161458998Y-118687121D01*
X161405342Y-118733614D01*
X161353000Y-118745000D01*
X159763122Y-118745000D01*
X159749591Y-118748973D01*
X159748456Y-118756871D01*
X159789107Y-118896790D01*
X159795352Y-118911221D01*
X159871911Y-119040677D01*
X159877871Y-119048360D01*
X159903820Y-119114444D01*
X159889922Y-119184067D01*
X159879579Y-119200161D01*
X159875547Y-119204193D01*
X159790855Y-119347399D01*
X159744438Y-119507169D01*
X159741500Y-119544498D01*
X159741500Y-119759498D01*
X159721498Y-119827619D01*
X159704595Y-119848593D01*
X158902595Y-120650593D01*
X158840283Y-120684619D01*
X158769468Y-120679554D01*
X158724405Y-120650593D01*
X157795405Y-119721593D01*
X157761379Y-119659281D01*
X157758500Y-119632498D01*
X157758500Y-119544498D01*
X157755562Y-119507169D01*
X157709145Y-119347399D01*
X157624453Y-119204193D01*
X157621771Y-119201511D01*
X157596498Y-119137139D01*
X157610400Y-119067516D01*
X157620572Y-119051688D01*
X157624453Y-119047807D01*
X157709145Y-118904601D01*
X157711415Y-118896790D01*
X157753767Y-118751008D01*
X157755562Y-118744831D01*
X157758500Y-118707502D01*
X157758500Y-118274498D01*
X157755562Y-118237169D01*
X157750459Y-118219605D01*
X159750061Y-118219605D01*
X159750101Y-118233706D01*
X159757370Y-118237000D01*
X160952885Y-118237000D01*
X160968124Y-118232525D01*
X160969329Y-118231135D01*
X160971000Y-118223452D01*
X160971000Y-117701116D01*
X160966525Y-117685877D01*
X160965135Y-117684672D01*
X160957452Y-117683001D01*
X160336017Y-117683001D01*
X160331080Y-117683195D01*
X160302664Y-117685430D01*
X160290069Y-117687730D01*
X160144210Y-117730107D01*
X160129779Y-117736352D01*
X160000322Y-117812911D01*
X159987896Y-117822551D01*
X159881551Y-117928896D01*
X159871911Y-117941322D01*
X159795352Y-118070779D01*
X159789107Y-118085210D01*
X159750061Y-118219605D01*
X157750459Y-118219605D01*
X157717657Y-118106699D01*
X157711357Y-118085012D01*
X157711356Y-118085010D01*
X157709145Y-118077399D01*
X157692107Y-118048589D01*
X157628491Y-117941020D01*
X157628489Y-117941017D01*
X157624453Y-117934193D01*
X157506807Y-117816547D01*
X157499983Y-117812511D01*
X157499980Y-117812509D01*
X157370427Y-117735892D01*
X157370428Y-117735892D01*
X157363601Y-117731855D01*
X157355990Y-117729644D01*
X157355988Y-117729643D01*
X157303769Y-117714472D01*
X157203831Y-117685438D01*
X157197426Y-117684934D01*
X157197421Y-117684933D01*
X157168958Y-117682693D01*
X157168950Y-117682693D01*
X157166502Y-117682500D01*
X157011100Y-117682500D01*
X156942979Y-117662498D01*
X156896486Y-117608842D01*
X156885100Y-117556500D01*
X156885100Y-116714358D01*
X156905102Y-116646237D01*
X156917464Y-116630047D01*
X156939865Y-116605169D01*
X157009785Y-116527515D01*
X157017734Y-116513747D01*
X157099971Y-116371308D01*
X157099972Y-116371307D01*
X157103275Y-116365585D01*
X157127339Y-116291522D01*
X157159015Y-116194035D01*
X157159015Y-116194034D01*
X157161055Y-116187756D01*
X157179646Y-116010876D01*
X157206659Y-115945220D01*
X157215860Y-115934952D01*
X157326406Y-115824405D01*
X157388718Y-115790380D01*
X157415502Y-115787500D01*
X158100400Y-115787500D01*
X158103646Y-115787163D01*
X158103650Y-115787163D01*
X158199308Y-115777238D01*
X158199312Y-115777237D01*
X158206166Y-115776526D01*
X158212702Y-115774345D01*
X158212704Y-115774345D01*
X158366998Y-115722868D01*
X158373946Y-115720550D01*
X158524348Y-115627478D01*
X158649305Y-115502303D01*
X158652102Y-115497765D01*
X158709353Y-115457176D01*
X158780276Y-115453946D01*
X158841687Y-115489572D01*
X158849062Y-115498068D01*
X158857098Y-115508207D01*
X158971829Y-115622739D01*
X158983240Y-115631751D01*
X159121243Y-115716816D01*
X159134424Y-115722963D01*
X159288710Y-115774138D01*
X159302086Y-115777005D01*
X159396438Y-115786672D01*
X159402854Y-115787000D01*
X159515385Y-115787000D01*
X159530624Y-115782525D01*
X159531829Y-115781135D01*
X159533500Y-115773452D01*
X159533500Y-115768884D01*
X160041500Y-115768884D01*
X160045975Y-115784123D01*
X160047365Y-115785328D01*
X160055048Y-115786999D01*
X160172095Y-115786999D01*
X160178614Y-115786662D01*
X160274206Y-115776743D01*
X160287600Y-115773851D01*
X160441784Y-115722412D01*
X160454962Y-115716239D01*
X160592807Y-115630937D01*
X160604208Y-115621901D01*
X160718739Y-115507171D01*
X160727751Y-115495760D01*
X160812816Y-115357757D01*
X160818963Y-115344576D01*
X160870138Y-115190290D01*
X160873005Y-115176914D01*
X160882672Y-115082562D01*
X160883000Y-115076146D01*
X160883000Y-114826115D01*
X160878525Y-114810876D01*
X160877135Y-114809671D01*
X160869452Y-114808000D01*
X160059615Y-114808000D01*
X160044376Y-114812475D01*
X160043171Y-114813865D01*
X160041500Y-114821548D01*
X160041500Y-115768884D01*
X159533500Y-115768884D01*
X159533500Y-114281885D01*
X160041500Y-114281885D01*
X160045975Y-114297124D01*
X160047365Y-114298329D01*
X160055048Y-114300000D01*
X160864884Y-114300000D01*
X160880123Y-114295525D01*
X160881328Y-114294135D01*
X160882999Y-114286452D01*
X160882999Y-114031905D01*
X160882662Y-114025386D01*
X160872743Y-113929794D01*
X160869851Y-113916400D01*
X160818412Y-113762216D01*
X160812239Y-113749038D01*
X160726937Y-113611193D01*
X160717901Y-113599792D01*
X160603171Y-113485261D01*
X160591760Y-113476249D01*
X160453757Y-113391184D01*
X160440576Y-113385037D01*
X160286290Y-113333862D01*
X160272914Y-113330995D01*
X160178562Y-113321328D01*
X160172145Y-113321000D01*
X160059615Y-113321000D01*
X160044376Y-113325475D01*
X160043171Y-113326865D01*
X160041500Y-113334548D01*
X160041500Y-114281885D01*
X159533500Y-114281885D01*
X159533500Y-113339116D01*
X159529025Y-113323877D01*
X159527635Y-113322672D01*
X159519952Y-113321001D01*
X159402905Y-113321001D01*
X159396386Y-113321338D01*
X159300794Y-113331257D01*
X159287400Y-113334149D01*
X159133216Y-113385588D01*
X159120038Y-113391761D01*
X158982193Y-113477063D01*
X158970792Y-113486099D01*
X158856262Y-113600828D01*
X158849206Y-113609762D01*
X158791288Y-113650823D01*
X158720365Y-113654053D01*
X158658954Y-113618426D01*
X158652154Y-113610593D01*
X158648478Y-113604652D01*
X158523303Y-113479695D01*
X158517072Y-113475854D01*
X158378968Y-113390725D01*
X158378966Y-113390724D01*
X158372738Y-113386885D01*
X158278121Y-113355502D01*
X158211389Y-113333368D01*
X158211387Y-113333368D01*
X158204861Y-113331203D01*
X158198025Y-113330503D01*
X158198022Y-113330502D01*
X158154969Y-113326091D01*
X158100400Y-113320500D01*
X157324600Y-113320500D01*
X157321354Y-113320837D01*
X157321350Y-113320837D01*
X157225692Y-113330762D01*
X157225688Y-113330763D01*
X157218834Y-113331474D01*
X157212298Y-113333655D01*
X157212296Y-113333655D01*
X157146034Y-113355762D01*
X157051054Y-113387450D01*
X156900652Y-113480522D01*
X156775695Y-113605697D01*
X156682885Y-113756262D01*
X156680581Y-113763209D01*
X156641775Y-113880207D01*
X156627203Y-113924139D01*
X156626503Y-113930975D01*
X156626502Y-113930978D01*
X156623941Y-113955978D01*
X156616500Y-114028600D01*
X156616500Y-114756498D01*
X156596498Y-114824619D01*
X156579595Y-114845593D01*
X156349793Y-115075395D01*
X156287481Y-115109421D01*
X156260698Y-115112300D01*
X156192710Y-115112300D01*
X156186257Y-115113672D01*
X156186253Y-115113672D01*
X156101262Y-115131738D01*
X156009815Y-115151175D01*
X156003786Y-115153860D01*
X156003784Y-115153860D01*
X155845030Y-115224542D01*
X155845028Y-115224543D01*
X155839000Y-115227227D01*
X155687730Y-115337131D01*
X155683317Y-115342033D01*
X155683315Y-115342034D01*
X155593190Y-115442128D01*
X155562615Y-115476085D01*
X155559312Y-115481806D01*
X155472742Y-115631751D01*
X155469125Y-115638015D01*
X155467083Y-115644300D01*
X155420555Y-115787500D01*
X155411345Y-115815844D01*
X155391800Y-116001800D01*
X155411345Y-116187756D01*
X155413385Y-116194034D01*
X155413385Y-116194035D01*
X155445061Y-116291522D01*
X155469125Y-116365585D01*
X155472428Y-116371307D01*
X155472429Y-116371308D01*
X155504719Y-116427236D01*
X155562615Y-116527515D01*
X155632537Y-116605171D01*
X155663253Y-116669177D01*
X155664900Y-116689480D01*
X155664900Y-117556500D01*
X155644898Y-117624621D01*
X155591242Y-117671114D01*
X155538900Y-117682500D01*
X155383498Y-117682500D01*
X155381050Y-117682693D01*
X155381042Y-117682693D01*
X155352579Y-117684933D01*
X155352574Y-117684934D01*
X155346169Y-117685438D01*
X155246231Y-117714472D01*
X155194012Y-117729643D01*
X155194010Y-117729644D01*
X155186399Y-117731855D01*
X155179572Y-117735892D01*
X155179573Y-117735892D01*
X155050020Y-117812509D01*
X155050017Y-117812511D01*
X155043193Y-117816547D01*
X154925547Y-117934193D01*
X154921511Y-117941017D01*
X154921509Y-117941020D01*
X154857893Y-118048589D01*
X154840855Y-118077399D01*
X154838644Y-118085010D01*
X154838643Y-118085012D01*
X154832343Y-118106699D01*
X154794438Y-118237169D01*
X154791500Y-118274498D01*
X154791500Y-118707502D01*
X154794438Y-118744831D01*
X154796233Y-118751008D01*
X154838586Y-118896790D01*
X154840855Y-118904601D01*
X154925547Y-119047807D01*
X154928229Y-119050489D01*
X154953502Y-119114861D01*
X154939600Y-119184484D01*
X154929428Y-119200312D01*
X154925547Y-119204193D01*
X154840855Y-119347399D01*
X154794438Y-119507169D01*
X154791500Y-119544498D01*
X154791500Y-119977502D01*
X154794438Y-120014831D01*
X154840855Y-120174601D01*
X154925547Y-120317807D01*
X154928229Y-120320489D01*
X154953502Y-120384861D01*
X154939600Y-120454484D01*
X154929428Y-120470312D01*
X154925547Y-120474193D01*
X154840855Y-120617399D01*
X154794438Y-120777169D01*
X154791500Y-120814498D01*
X154791500Y-120858498D01*
X154771498Y-120926619D01*
X154717842Y-120973112D01*
X154647568Y-120983216D01*
X154582988Y-120953722D01*
X154576405Y-120947593D01*
X154317005Y-120688193D01*
X154282979Y-120625881D01*
X154280100Y-120599098D01*
X154280100Y-112579936D01*
X154281651Y-112560225D01*
X154283406Y-112549144D01*
X154284646Y-112541316D01*
X154280659Y-112499139D01*
X154280100Y-112487281D01*
X154280100Y-108938654D01*
X154300102Y-108870533D01*
X154353758Y-108824040D01*
X154361870Y-108820672D01*
X154408297Y-108803267D01*
X154416705Y-108800115D01*
X154533261Y-108712761D01*
X154620615Y-108596205D01*
X154671745Y-108459816D01*
X154678500Y-108397634D01*
X155201500Y-108397634D01*
X155208255Y-108459816D01*
X155259385Y-108596205D01*
X155346739Y-108712761D01*
X155463295Y-108800115D01*
X155471703Y-108803267D01*
X155518130Y-108820672D01*
X155574894Y-108863314D01*
X155599594Y-108929876D01*
X155599900Y-108938654D01*
X155599900Y-109027881D01*
X155579898Y-109096002D01*
X155567536Y-109112190D01*
X155486415Y-109202285D01*
X155392925Y-109364215D01*
X155335145Y-109542044D01*
X155315600Y-109728000D01*
X155316290Y-109734565D01*
X155322724Y-109795775D01*
X155335145Y-109913956D01*
X155392925Y-110091785D01*
X155396228Y-110097507D01*
X155396229Y-110097508D01*
X155431255Y-110158175D01*
X155486415Y-110253715D01*
X155490833Y-110258622D01*
X155490834Y-110258623D01*
X155606191Y-110386739D01*
X155611530Y-110392669D01*
X155762800Y-110502573D01*
X155768828Y-110505257D01*
X155768830Y-110505258D01*
X155897878Y-110562714D01*
X155933615Y-110578625D01*
X156025062Y-110598062D01*
X156110053Y-110616128D01*
X156110057Y-110616128D01*
X156116510Y-110617500D01*
X156303490Y-110617500D01*
X156309943Y-110616128D01*
X156309947Y-110616128D01*
X156394937Y-110598063D01*
X156486385Y-110578625D01*
X156522122Y-110562714D01*
X156651170Y-110505258D01*
X156651172Y-110505257D01*
X156657200Y-110502573D01*
X156808470Y-110392669D01*
X156813810Y-110386739D01*
X156929166Y-110258623D01*
X156929167Y-110258622D01*
X156933585Y-110253715D01*
X156988745Y-110158175D01*
X157023771Y-110097508D01*
X157023772Y-110097507D01*
X157027075Y-110091785D01*
X157084855Y-109913956D01*
X157097277Y-109795775D01*
X157103710Y-109734565D01*
X157104400Y-109728000D01*
X157084855Y-109542044D01*
X157027075Y-109364215D01*
X156933585Y-109202285D01*
X156852464Y-109112191D01*
X156821747Y-109048184D01*
X156820100Y-109027881D01*
X156820100Y-108938654D01*
X156840102Y-108870533D01*
X156893758Y-108824040D01*
X156901870Y-108820672D01*
X156948297Y-108803267D01*
X156956705Y-108800115D01*
X157073261Y-108712761D01*
X157160615Y-108596205D01*
X157211745Y-108459816D01*
X157218500Y-108397634D01*
X157218500Y-108394169D01*
X157742001Y-108394169D01*
X157742371Y-108400990D01*
X157747895Y-108451852D01*
X157751521Y-108467104D01*
X157796676Y-108587554D01*
X157805214Y-108603149D01*
X157881715Y-108705224D01*
X157894276Y-108717785D01*
X157996351Y-108794286D01*
X158011946Y-108802824D01*
X158132394Y-108847978D01*
X158147649Y-108851605D01*
X158198514Y-108857131D01*
X158205328Y-108857500D01*
X158477885Y-108857500D01*
X158493124Y-108853025D01*
X158494329Y-108851635D01*
X158496000Y-108843952D01*
X158496000Y-108839384D01*
X159004000Y-108839384D01*
X159008475Y-108854623D01*
X159009865Y-108855828D01*
X159017548Y-108857499D01*
X159294669Y-108857499D01*
X159301490Y-108857129D01*
X159352352Y-108851605D01*
X159367604Y-108847979D01*
X159488054Y-108802824D01*
X159503649Y-108794286D01*
X159605724Y-108717785D01*
X159618285Y-108705224D01*
X159694786Y-108603149D01*
X159703324Y-108587554D01*
X159748478Y-108467106D01*
X159752105Y-108451851D01*
X159757631Y-108400986D01*
X159758000Y-108394172D01*
X159758000Y-107621615D01*
X159753525Y-107606376D01*
X159752135Y-107605171D01*
X159744452Y-107603500D01*
X159022115Y-107603500D01*
X159006876Y-107607975D01*
X159005671Y-107609365D01*
X159004000Y-107617048D01*
X159004000Y-108839384D01*
X158496000Y-108839384D01*
X158496000Y-107621615D01*
X158491525Y-107606376D01*
X158490135Y-107605171D01*
X158482452Y-107603500D01*
X157760116Y-107603500D01*
X157744877Y-107607975D01*
X157743672Y-107609365D01*
X157742001Y-107617048D01*
X157742001Y-108394169D01*
X157218500Y-108394169D01*
X157218500Y-107077385D01*
X157742000Y-107077385D01*
X157746475Y-107092624D01*
X157747865Y-107093829D01*
X157755548Y-107095500D01*
X158477885Y-107095500D01*
X158493124Y-107091025D01*
X158494329Y-107089635D01*
X158496000Y-107081952D01*
X158496000Y-107077385D01*
X159004000Y-107077385D01*
X159008475Y-107092624D01*
X159009865Y-107093829D01*
X159017548Y-107095500D01*
X159739884Y-107095500D01*
X159755123Y-107091025D01*
X159756328Y-107089635D01*
X159757999Y-107081952D01*
X159757999Y-106304831D01*
X159757629Y-106298010D01*
X159752105Y-106247148D01*
X159748479Y-106231896D01*
X159703324Y-106111446D01*
X159694786Y-106095851D01*
X159618285Y-105993776D01*
X159605724Y-105981215D01*
X159503649Y-105904714D01*
X159488054Y-105896176D01*
X159367606Y-105851022D01*
X159352351Y-105847395D01*
X159301486Y-105841869D01*
X159294672Y-105841500D01*
X159022115Y-105841500D01*
X159006876Y-105845975D01*
X159005671Y-105847365D01*
X159004000Y-105855048D01*
X159004000Y-107077385D01*
X158496000Y-107077385D01*
X158496000Y-105859616D01*
X158491525Y-105844377D01*
X158490135Y-105843172D01*
X158482452Y-105841501D01*
X158205331Y-105841501D01*
X158198510Y-105841871D01*
X158147648Y-105847395D01*
X158132396Y-105851021D01*
X158011946Y-105896176D01*
X157996351Y-105904714D01*
X157894276Y-105981215D01*
X157881715Y-105993776D01*
X157805214Y-106095851D01*
X157796676Y-106111446D01*
X157751522Y-106231894D01*
X157747895Y-106247149D01*
X157742369Y-106298014D01*
X157742000Y-106304828D01*
X157742000Y-107077385D01*
X157218500Y-107077385D01*
X157218500Y-106301366D01*
X157211745Y-106239184D01*
X157160615Y-106102795D01*
X157073261Y-105986239D01*
X156956705Y-105898885D01*
X156820316Y-105847755D01*
X156758134Y-105841000D01*
X155661866Y-105841000D01*
X155599684Y-105847755D01*
X155463295Y-105898885D01*
X155346739Y-105986239D01*
X155259385Y-106102795D01*
X155208255Y-106239184D01*
X155201500Y-106301366D01*
X155201500Y-108397634D01*
X154678500Y-108397634D01*
X154678500Y-106301366D01*
X154671745Y-106239184D01*
X154620615Y-106102795D01*
X154533261Y-105986239D01*
X154416705Y-105898885D01*
X154280316Y-105847755D01*
X154218134Y-105841000D01*
X153121866Y-105841000D01*
X153059684Y-105847755D01*
X152923295Y-105898885D01*
X152806739Y-105986239D01*
X152719385Y-106102795D01*
X152668255Y-106239184D01*
X152661500Y-106301366D01*
X152661500Y-108397634D01*
X152668255Y-108459816D01*
X152719385Y-108596205D01*
X152806739Y-108712761D01*
X152923295Y-108800115D01*
X152931703Y-108803267D01*
X152978130Y-108820672D01*
X153034894Y-108863314D01*
X153059594Y-108929876D01*
X153059900Y-108938654D01*
X153059900Y-112217099D01*
X153039898Y-112285220D01*
X153022995Y-112306194D01*
X152020593Y-113308595D01*
X151958281Y-113342621D01*
X151931498Y-113345500D01*
X151221600Y-113345500D01*
X151218354Y-113345837D01*
X151218350Y-113345837D01*
X151122692Y-113355762D01*
X151122688Y-113355763D01*
X151115834Y-113356474D01*
X151109298Y-113358655D01*
X151109296Y-113358655D01*
X151011796Y-113391184D01*
X150948054Y-113412450D01*
X150797652Y-113505522D01*
X150792479Y-113510704D01*
X150711216Y-113592109D01*
X150648934Y-113626188D01*
X150578114Y-113621185D01*
X150533025Y-113592264D01*
X150450483Y-113509866D01*
X150445303Y-113504695D01*
X150414494Y-113485704D01*
X150300968Y-113415725D01*
X150300966Y-113415724D01*
X150294738Y-113411885D01*
X150134254Y-113358655D01*
X150133389Y-113358368D01*
X150133387Y-113358368D01*
X150126861Y-113356203D01*
X150120025Y-113355503D01*
X150120022Y-113355502D01*
X150076969Y-113351091D01*
X150022400Y-113345500D01*
X149221600Y-113345500D01*
X149218354Y-113345837D01*
X149218350Y-113345837D01*
X149122692Y-113355762D01*
X149122688Y-113355763D01*
X149115834Y-113356474D01*
X149109298Y-113358655D01*
X149109296Y-113358655D01*
X149011796Y-113391184D01*
X148948054Y-113412450D01*
X148797652Y-113505522D01*
X148672695Y-113630697D01*
X148668855Y-113636927D01*
X148668854Y-113636928D01*
X148599136Y-113750032D01*
X148579885Y-113781262D01*
X148575458Y-113794610D01*
X148535030Y-113852968D01*
X148469466Y-113880207D01*
X148399584Y-113867675D01*
X148381804Y-113856879D01*
X148280542Y-113783308D01*
X148280541Y-113783307D01*
X148275200Y-113779427D01*
X148269172Y-113776743D01*
X148269170Y-113776742D01*
X148110416Y-113706060D01*
X148110414Y-113706060D01*
X148104385Y-113703375D01*
X148012938Y-113683938D01*
X147927947Y-113665872D01*
X147927943Y-113665872D01*
X147921490Y-113664500D01*
X147734510Y-113664500D01*
X147728057Y-113665872D01*
X147728053Y-113665872D01*
X147643062Y-113683938D01*
X147551615Y-113703375D01*
X147545586Y-113706060D01*
X147545584Y-113706060D01*
X147386830Y-113776742D01*
X147386828Y-113776743D01*
X147380800Y-113779427D01*
X147375459Y-113783307D01*
X147375458Y-113783308D01*
X147359905Y-113794608D01*
X147229530Y-113889331D01*
X147225117Y-113894233D01*
X147225115Y-113894234D01*
X147134465Y-113994911D01*
X147104415Y-114028285D01*
X147101112Y-114034006D01*
X147019144Y-114175980D01*
X147010925Y-114190215D01*
X147008883Y-114196500D01*
X146984545Y-114271406D01*
X146953145Y-114368044D01*
X146933600Y-114554000D01*
X146953145Y-114739956D01*
X146955185Y-114746234D01*
X146955185Y-114746235D01*
X146986861Y-114843722D01*
X147010925Y-114917785D01*
X147104415Y-115079715D01*
X147108833Y-115084622D01*
X147108834Y-115084623D01*
X147209977Y-115196953D01*
X147229530Y-115218669D01*
X147240249Y-115226457D01*
X147368713Y-115319791D01*
X147380800Y-115328573D01*
X147386828Y-115331257D01*
X147386830Y-115331258D01*
X147429523Y-115350266D01*
X147551615Y-115404625D01*
X147643063Y-115424063D01*
X147728053Y-115442128D01*
X147728057Y-115442128D01*
X147734510Y-115443500D01*
X147921490Y-115443500D01*
X147927943Y-115442128D01*
X147927947Y-115442128D01*
X148012937Y-115424063D01*
X148104385Y-115404625D01*
X148226477Y-115350266D01*
X148269170Y-115331258D01*
X148269172Y-115331257D01*
X148275200Y-115328573D01*
X148287288Y-115319791D01*
X148322542Y-115294177D01*
X148381914Y-115251040D01*
X148448780Y-115227183D01*
X148517932Y-115243263D01*
X148567412Y-115294177D01*
X148575495Y-115313093D01*
X148580450Y-115327946D01*
X148673522Y-115478348D01*
X148798697Y-115603305D01*
X148804927Y-115607145D01*
X148804928Y-115607146D01*
X148942090Y-115691694D01*
X148949262Y-115696115D01*
X149009934Y-115716239D01*
X149110611Y-115749632D01*
X149110613Y-115749632D01*
X149117139Y-115751797D01*
X149123975Y-115752497D01*
X149123978Y-115752498D01*
X149167031Y-115756909D01*
X149221600Y-115762500D01*
X150022400Y-115762500D01*
X150025646Y-115762163D01*
X150025650Y-115762163D01*
X150121308Y-115752238D01*
X150121312Y-115752237D01*
X150128166Y-115751526D01*
X150134702Y-115749345D01*
X150134704Y-115749345D01*
X150266806Y-115705272D01*
X150295946Y-115695550D01*
X150446348Y-115602478D01*
X150532784Y-115515891D01*
X150595066Y-115481812D01*
X150665886Y-115486815D01*
X150710976Y-115515736D01*
X150798697Y-115603305D01*
X150804927Y-115607145D01*
X150804928Y-115607146D01*
X150942090Y-115691694D01*
X150949262Y-115696115D01*
X151009934Y-115716239D01*
X151110611Y-115749632D01*
X151110613Y-115749632D01*
X151117139Y-115751797D01*
X151123975Y-115752497D01*
X151123978Y-115752498D01*
X151167031Y-115756909D01*
X151221600Y-115762500D01*
X152022400Y-115762500D01*
X152025646Y-115762163D01*
X152025650Y-115762163D01*
X152121308Y-115752238D01*
X152121312Y-115752237D01*
X152128166Y-115751526D01*
X152134702Y-115749345D01*
X152134704Y-115749345D01*
X152266806Y-115705272D01*
X152295946Y-115695550D01*
X152446348Y-115602478D01*
X152571305Y-115477303D01*
X152650891Y-115348191D01*
X152660275Y-115332968D01*
X152660276Y-115332966D01*
X152664115Y-115326738D01*
X152719797Y-115158861D01*
X152730500Y-115054400D01*
X152730500Y-114376501D01*
X152750502Y-114308380D01*
X152767405Y-114287406D01*
X152844805Y-114210006D01*
X152907117Y-114175980D01*
X152977932Y-114181045D01*
X153034768Y-114223592D01*
X153059579Y-114290112D01*
X153059900Y-114299101D01*
X153059900Y-120828322D01*
X153059402Y-120838874D01*
X153057781Y-120846128D01*
X153058030Y-120854049D01*
X153059838Y-120911595D01*
X153059900Y-120915552D01*
X153059900Y-120942383D01*
X153060396Y-120946310D01*
X153060453Y-120947216D01*
X153061292Y-120957860D01*
X153062622Y-121000199D01*
X153064834Y-121007812D01*
X153067964Y-121018586D01*
X153071972Y-121037943D01*
X153074371Y-121056932D01*
X153077291Y-121064307D01*
X153089964Y-121096318D01*
X153093808Y-121107545D01*
X153103415Y-121140609D01*
X153105628Y-121148225D01*
X153115374Y-121164705D01*
X153124065Y-121182445D01*
X153131116Y-121200254D01*
X153155558Y-121233896D01*
X153156020Y-121234532D01*
X153162536Y-121244452D01*
X153184095Y-121280906D01*
X153197622Y-121294433D01*
X153210463Y-121309467D01*
X153221721Y-121324962D01*
X153227829Y-121330015D01*
X153254372Y-121351973D01*
X153263152Y-121359963D01*
X154521994Y-122618805D01*
X154556020Y-122681117D01*
X154550955Y-122751932D01*
X154508408Y-122808768D01*
X154441888Y-122833579D01*
X154432899Y-122833900D01*
X152983678Y-122833900D01*
X152973126Y-122833402D01*
X152965872Y-122831781D01*
X152903761Y-122833733D01*
X152900405Y-122833838D01*
X152896448Y-122833900D01*
X152869617Y-122833900D01*
X152865690Y-122834396D01*
X152864784Y-122834453D01*
X152854140Y-122835292D01*
X152811801Y-122836622D01*
X152793904Y-122841822D01*
X152793414Y-122841964D01*
X152774057Y-122845972D01*
X152762935Y-122847377D01*
X152762934Y-122847377D01*
X152755068Y-122848371D01*
X152747692Y-122851291D01*
X152747693Y-122851291D01*
X152715682Y-122863964D01*
X152704455Y-122867808D01*
X152671391Y-122877415D01*
X152671389Y-122877416D01*
X152663775Y-122879628D01*
X152647295Y-122889374D01*
X152629555Y-122898065D01*
X152611746Y-122905116D01*
X152578104Y-122929558D01*
X152577468Y-122930020D01*
X152567548Y-122936536D01*
X152537921Y-122954057D01*
X152537918Y-122954059D01*
X152531094Y-122958095D01*
X152517567Y-122971622D01*
X152502533Y-122984463D01*
X152487038Y-122995721D01*
X152481985Y-123001829D01*
X152460027Y-123028372D01*
X152452037Y-123037152D01*
X144020193Y-131468995D01*
X143957881Y-131503021D01*
X143931098Y-131505900D01*
X142232180Y-131505900D01*
X142164059Y-131485898D01*
X142119910Y-131437097D01*
X142118137Y-131433616D01*
X142116240Y-131429037D01*
X142089347Y-131385152D01*
X141994759Y-131230798D01*
X141994755Y-131230792D01*
X141992176Y-131226584D01*
X141837969Y-131046031D01*
X141657416Y-130891824D01*
X141653208Y-130889245D01*
X141653202Y-130889241D01*
X141459183Y-130770346D01*
X141454963Y-130767760D01*
X141450393Y-130765867D01*
X141450389Y-130765865D01*
X141240167Y-130678789D01*
X141240165Y-130678788D01*
X141235594Y-130676895D01*
X141131820Y-130651981D01*
X141009524Y-130622620D01*
X141009518Y-130622619D01*
X141004711Y-130621465D01*
X140768000Y-130602835D01*
X140531289Y-130621465D01*
X140526482Y-130622619D01*
X140526476Y-130622620D01*
X140404180Y-130651981D01*
X140300406Y-130676895D01*
X140295835Y-130678788D01*
X140295833Y-130678789D01*
X140085611Y-130765865D01*
X140085607Y-130765867D01*
X140081037Y-130767760D01*
X140076817Y-130770346D01*
X139882798Y-130889241D01*
X139882792Y-130889245D01*
X139878584Y-130891824D01*
X139698031Y-131046031D01*
X139543824Y-131226584D01*
X139541245Y-131230792D01*
X139541241Y-131230798D01*
X139446653Y-131385152D01*
X139419760Y-131429037D01*
X139417867Y-131433607D01*
X139417865Y-131433611D01*
X139330789Y-131643833D01*
X139328895Y-131648406D01*
X139327740Y-131653218D01*
X139278278Y-131859243D01*
X139273465Y-131879289D01*
X139254835Y-132116000D01*
X139273465Y-132352711D01*
X139328895Y-132583594D01*
X139330788Y-132588165D01*
X139330789Y-132588167D01*
X139396208Y-132746102D01*
X139419760Y-132802963D01*
X139422346Y-132807183D01*
X139541241Y-133001202D01*
X139541245Y-133001208D01*
X139543824Y-133005416D01*
X139698031Y-133185969D01*
X139878584Y-133340176D01*
X139882792Y-133342755D01*
X139882798Y-133342759D01*
X140076817Y-133461654D01*
X140081037Y-133464240D01*
X140085607Y-133466133D01*
X140085611Y-133466135D01*
X140153915Y-133494427D01*
X140300406Y-133555105D01*
X140380609Y-133574360D01*
X140526476Y-133609380D01*
X140526482Y-133609381D01*
X140531289Y-133610535D01*
X140768000Y-133629165D01*
X141004711Y-133610535D01*
X141009518Y-133609381D01*
X141009524Y-133609380D01*
X141155391Y-133574360D01*
X141235594Y-133555105D01*
X141382085Y-133494427D01*
X141450389Y-133466135D01*
X141450393Y-133466133D01*
X141454963Y-133464240D01*
X141459183Y-133461654D01*
X141653202Y-133342759D01*
X141653208Y-133342755D01*
X141657416Y-133340176D01*
X141837969Y-133185969D01*
X141992176Y-133005416D01*
X141994755Y-133001208D01*
X141994759Y-133001202D01*
X142113653Y-132807185D01*
X142113654Y-132807183D01*
X142116240Y-132802963D01*
X142118137Y-132798384D01*
X142119910Y-132794903D01*
X142168656Y-132743285D01*
X142232180Y-132726100D01*
X144160322Y-132726100D01*
X144170874Y-132726598D01*
X144178128Y-132728219D01*
X144243595Y-132726162D01*
X144247552Y-132726100D01*
X145803820Y-132726100D01*
X145871941Y-132746102D01*
X145916090Y-132794903D01*
X145917863Y-132798384D01*
X145919760Y-132802963D01*
X145922346Y-132807183D01*
X145922347Y-132807185D01*
X146041241Y-133001202D01*
X146041245Y-133001208D01*
X146043824Y-133005416D01*
X146198031Y-133185969D01*
X146378584Y-133340176D01*
X146382792Y-133342755D01*
X146382798Y-133342759D01*
X146576817Y-133461654D01*
X146581037Y-133464240D01*
X146585607Y-133466133D01*
X146585611Y-133466135D01*
X146653915Y-133494427D01*
X146800406Y-133555105D01*
X146880609Y-133574360D01*
X147026476Y-133609380D01*
X147026482Y-133609381D01*
X147031289Y-133610535D01*
X147268000Y-133629165D01*
X147504711Y-133610535D01*
X147509518Y-133609381D01*
X147509524Y-133609380D01*
X147655391Y-133574360D01*
X147735594Y-133555105D01*
X147882085Y-133494427D01*
X147950389Y-133466135D01*
X147950393Y-133466133D01*
X147954963Y-133464240D01*
X147959183Y-133461654D01*
X148153202Y-133342759D01*
X148153208Y-133342755D01*
X148157416Y-133340176D01*
X148337969Y-133185969D01*
X148492176Y-133005416D01*
X148494755Y-133001208D01*
X148494759Y-133001202D01*
X148613654Y-132807183D01*
X148616240Y-132802963D01*
X148639793Y-132746102D01*
X148705211Y-132588167D01*
X148705212Y-132588165D01*
X148707105Y-132583594D01*
X148762535Y-132352711D01*
X148781165Y-132116000D01*
X148762535Y-131879289D01*
X148757723Y-131859243D01*
X148708260Y-131653218D01*
X148707105Y-131648406D01*
X148705211Y-131643833D01*
X148618135Y-131433611D01*
X148618133Y-131433607D01*
X148616240Y-131429037D01*
X148589347Y-131385152D01*
X148494759Y-131230798D01*
X148494755Y-131230792D01*
X148492176Y-131226584D01*
X148337969Y-131046031D01*
X148157416Y-130891824D01*
X148153208Y-130889245D01*
X148153202Y-130889241D01*
X147959183Y-130770346D01*
X147954963Y-130767760D01*
X147950393Y-130765867D01*
X147950389Y-130765865D01*
X147740167Y-130678789D01*
X147740165Y-130678788D01*
X147735594Y-130676895D01*
X147631820Y-130651981D01*
X147509524Y-130622620D01*
X147509518Y-130622619D01*
X147504711Y-130621465D01*
X147268000Y-130602835D01*
X147031289Y-130621465D01*
X147026482Y-130622619D01*
X147026476Y-130622620D01*
X146889406Y-130655528D01*
X146818498Y-130651981D01*
X146760764Y-130610661D01*
X146734534Y-130544687D01*
X146748136Y-130475006D01*
X146770897Y-130443914D01*
X151447805Y-125767007D01*
X151510117Y-125732981D01*
X151580932Y-125738046D01*
X151637768Y-125780593D01*
X151662579Y-125847113D01*
X151662900Y-125856102D01*
X151662900Y-127051322D01*
X151662402Y-127061874D01*
X151660781Y-127069128D01*
X151661030Y-127077049D01*
X151662838Y-127134595D01*
X151662900Y-127138552D01*
X151662900Y-127165383D01*
X151663396Y-127169310D01*
X151663453Y-127170216D01*
X151664292Y-127180860D01*
X151665622Y-127223199D01*
X151667834Y-127230812D01*
X151670964Y-127241586D01*
X151674972Y-127260943D01*
X151677371Y-127279932D01*
X151680291Y-127287307D01*
X151692964Y-127319318D01*
X151696808Y-127330545D01*
X151706415Y-127363609D01*
X151708628Y-127371225D01*
X151718374Y-127387705D01*
X151727065Y-127405445D01*
X151734116Y-127423254D01*
X151758558Y-127456896D01*
X151759020Y-127457532D01*
X151765536Y-127467452D01*
X151777595Y-127487842D01*
X151787095Y-127503906D01*
X151800622Y-127517433D01*
X151813463Y-127532467D01*
X151820060Y-127541547D01*
X151824721Y-127547962D01*
X151830829Y-127553015D01*
X151857372Y-127574973D01*
X151866152Y-127582963D01*
X152832672Y-128549483D01*
X152839788Y-128557301D01*
X152843774Y-128563583D01*
X152849554Y-128569011D01*
X152849555Y-128569012D01*
X152891547Y-128608445D01*
X152894389Y-128611200D01*
X152913335Y-128630146D01*
X152916474Y-128632581D01*
X152917124Y-128633154D01*
X152925255Y-128640101D01*
X152950359Y-128663674D01*
X152950362Y-128663676D01*
X152956142Y-128669104D01*
X152963087Y-128672922D01*
X152963090Y-128672924D01*
X152972920Y-128678328D01*
X152989447Y-128689184D01*
X153004566Y-128700912D01*
X153033427Y-128713401D01*
X153043435Y-128717732D01*
X153054096Y-128722954D01*
X153091222Y-128743365D01*
X153098901Y-128745337D01*
X153098902Y-128745337D01*
X153109761Y-128748125D01*
X153128466Y-128754529D01*
X153146034Y-128762131D01*
X153153866Y-128763371D01*
X153153871Y-128763373D01*
X153187879Y-128768760D01*
X153199492Y-128771164D01*
X153240526Y-128781700D01*
X153259663Y-128781700D01*
X153279374Y-128783251D01*
X153290454Y-128785006D01*
X153290456Y-128785006D01*
X153298284Y-128786246D01*
X153340460Y-128782259D01*
X153352319Y-128781700D01*
X153605500Y-128781700D01*
X153673621Y-128801702D01*
X153720114Y-128855358D01*
X153731500Y-128907700D01*
X153731500Y-129670400D01*
X153731837Y-129673646D01*
X153731837Y-129673650D01*
X153740362Y-129755807D01*
X153742474Y-129776166D01*
X153744655Y-129782702D01*
X153744655Y-129782704D01*
X153765406Y-129844902D01*
X153798450Y-129943946D01*
X153891522Y-130094348D01*
X154016697Y-130219305D01*
X154167262Y-130312115D01*
X154229034Y-130332603D01*
X154243567Y-130337424D01*
X154301927Y-130377854D01*
X154329164Y-130443418D01*
X154329900Y-130457017D01*
X154329900Y-131791122D01*
X154309898Y-131859243D01*
X154256242Y-131905736D01*
X154216903Y-131916449D01*
X154165694Y-131921762D01*
X154165691Y-131921763D01*
X154158835Y-131922474D01*
X154152299Y-131924655D01*
X154152297Y-131924655D01*
X154020195Y-131968728D01*
X153991055Y-131978450D01*
X153840652Y-132071522D01*
X153715695Y-132196697D01*
X153711855Y-132202927D01*
X153711854Y-132202928D01*
X153634130Y-132329020D01*
X153622885Y-132347262D01*
X153567203Y-132515139D01*
X153556500Y-132619600D01*
X153556500Y-133645400D01*
X153556837Y-133648646D01*
X153556837Y-133648650D01*
X153565437Y-133731530D01*
X153567474Y-133751165D01*
X153623450Y-133918945D01*
X153716522Y-134069348D01*
X153841697Y-134194305D01*
X153847927Y-134198145D01*
X153847928Y-134198146D01*
X153985090Y-134282694D01*
X153992262Y-134287115D01*
X154000062Y-134289702D01*
X154153611Y-134340632D01*
X154153613Y-134340632D01*
X154160139Y-134342797D01*
X154166975Y-134343497D01*
X154166978Y-134343498D01*
X154210031Y-134347909D01*
X154264600Y-134353500D01*
X155615400Y-134353500D01*
X155618646Y-134353163D01*
X155618650Y-134353163D01*
X155714307Y-134343238D01*
X155714311Y-134343237D01*
X155721165Y-134342526D01*
X155727701Y-134340345D01*
X155727703Y-134340345D01*
X155879497Y-134289702D01*
X155888945Y-134286550D01*
X156039348Y-134193478D01*
X156164305Y-134068303D01*
X156236825Y-133950654D01*
X156253275Y-133923968D01*
X156253276Y-133923966D01*
X156257115Y-133917738D01*
X156312797Y-133749861D01*
X156314085Y-133737297D01*
X156323172Y-133648598D01*
X156323500Y-133645400D01*
X156323500Y-132619600D01*
X156312526Y-132513835D01*
X156256550Y-132346055D01*
X156163478Y-132195652D01*
X156038303Y-132070695D01*
X155939906Y-132010042D01*
X155893968Y-131981725D01*
X155893966Y-131981724D01*
X155887738Y-131977885D01*
X155727254Y-131924655D01*
X155726389Y-131924368D01*
X155726387Y-131924368D01*
X155719861Y-131922203D01*
X155713025Y-131921503D01*
X155713022Y-131921502D01*
X155663256Y-131916403D01*
X155597529Y-131889561D01*
X155556748Y-131831446D01*
X155550100Y-131791059D01*
X155550100Y-130457004D01*
X155570102Y-130388883D01*
X155623758Y-130342390D01*
X155636223Y-130337481D01*
X155707002Y-130313867D01*
X155707004Y-130313866D01*
X155713946Y-130311550D01*
X155864348Y-130218478D01*
X155989305Y-130093303D01*
X156082115Y-129942738D01*
X156137797Y-129774861D01*
X156148500Y-129670400D01*
X156148500Y-128907700D01*
X156168502Y-128839579D01*
X156222158Y-128793086D01*
X156274500Y-128781700D01*
X161225500Y-128781700D01*
X161293621Y-128801702D01*
X161340114Y-128855358D01*
X161351500Y-128907700D01*
X161351500Y-129670400D01*
X161351837Y-129673646D01*
X161351837Y-129673650D01*
X161360362Y-129755807D01*
X161362474Y-129776166D01*
X161364655Y-129782702D01*
X161364655Y-129782704D01*
X161385406Y-129844902D01*
X161418450Y-129943946D01*
X161511522Y-130094348D01*
X161636697Y-130219305D01*
X161787262Y-130312115D01*
X161849034Y-130332603D01*
X161863567Y-130337424D01*
X161921927Y-130377854D01*
X161949164Y-130443418D01*
X161949900Y-130457017D01*
X161949900Y-131791122D01*
X161929898Y-131859243D01*
X161876242Y-131905736D01*
X161836903Y-131916449D01*
X161785694Y-131921762D01*
X161785691Y-131921763D01*
X161778835Y-131922474D01*
X161772299Y-131924655D01*
X161772297Y-131924655D01*
X161640195Y-131968728D01*
X161611055Y-131978450D01*
X161460652Y-132071522D01*
X161335695Y-132196697D01*
X161331855Y-132202927D01*
X161331854Y-132202928D01*
X161254130Y-132329020D01*
X161242885Y-132347262D01*
X161187203Y-132515139D01*
X161176500Y-132619600D01*
X161176500Y-133645400D01*
X161176837Y-133648646D01*
X161176837Y-133648650D01*
X161185437Y-133731530D01*
X161187474Y-133751165D01*
X161243450Y-133918945D01*
X161336522Y-134069348D01*
X161461697Y-134194305D01*
X161467927Y-134198145D01*
X161467928Y-134198146D01*
X161605090Y-134282694D01*
X161612262Y-134287115D01*
X161620062Y-134289702D01*
X161773611Y-134340632D01*
X161773613Y-134340632D01*
X161780139Y-134342797D01*
X161786975Y-134343497D01*
X161786978Y-134343498D01*
X161830031Y-134347909D01*
X161884600Y-134353500D01*
X163235400Y-134353500D01*
X163238646Y-134353163D01*
X163238650Y-134353163D01*
X163334307Y-134343238D01*
X163334311Y-134343237D01*
X163341165Y-134342526D01*
X163347701Y-134340345D01*
X163347703Y-134340345D01*
X163499497Y-134289702D01*
X163508945Y-134286550D01*
X163659348Y-134193478D01*
X163784305Y-134068303D01*
X163856825Y-133950654D01*
X163873275Y-133923968D01*
X163873276Y-133923966D01*
X163877115Y-133917738D01*
X163932797Y-133749861D01*
X163934085Y-133737297D01*
X163943172Y-133648598D01*
X163943500Y-133645400D01*
X163943500Y-132619600D01*
X163932526Y-132513835D01*
X163876550Y-132346055D01*
X163783478Y-132195652D01*
X163658303Y-132070695D01*
X163559906Y-132010042D01*
X163513968Y-131981725D01*
X163513966Y-131981724D01*
X163507738Y-131977885D01*
X163347254Y-131924655D01*
X163346389Y-131924368D01*
X163346387Y-131924368D01*
X163339861Y-131922203D01*
X163333025Y-131921503D01*
X163333022Y-131921502D01*
X163283256Y-131916403D01*
X163217529Y-131889561D01*
X163176748Y-131831446D01*
X163170100Y-131791059D01*
X163170100Y-130457004D01*
X163190102Y-130388883D01*
X163243758Y-130342390D01*
X163256223Y-130337481D01*
X163327002Y-130313867D01*
X163327004Y-130313866D01*
X163333946Y-130311550D01*
X163484348Y-130218478D01*
X163609305Y-130093303D01*
X163702115Y-129942738D01*
X163757797Y-129774861D01*
X163768500Y-129670400D01*
X163768500Y-128907700D01*
X163788502Y-128839579D01*
X163842158Y-128793086D01*
X163894500Y-128781700D01*
X164696699Y-128781700D01*
X164764820Y-128801702D01*
X164785790Y-128818601D01*
X165722997Y-129755809D01*
X165757021Y-129818119D01*
X165759900Y-129844902D01*
X165759900Y-136287500D01*
X165739898Y-136355621D01*
X165686242Y-136402114D01*
X165633900Y-136413500D01*
X165321866Y-136413500D01*
X165259684Y-136420255D01*
X165123295Y-136471385D01*
X165006739Y-136558739D01*
X164919385Y-136675295D01*
X164868255Y-136811684D01*
X164861500Y-136873866D01*
X164861500Y-138970134D01*
X164868255Y-139032316D01*
X164870173Y-139037431D01*
X164866529Y-139107251D01*
X164825084Y-139164896D01*
X164759054Y-139190983D01*
X164747647Y-139191500D01*
X152751834Y-139191500D01*
X152683713Y-139171498D01*
X152637220Y-139117842D01*
X152627116Y-139047568D01*
X152629252Y-139036351D01*
X152632105Y-139024352D01*
X152637631Y-138973486D01*
X152638000Y-138966672D01*
X152638000Y-138194115D01*
X152633525Y-138178876D01*
X152632135Y-138177671D01*
X152624452Y-138176000D01*
X149640116Y-138176000D01*
X149624877Y-138180475D01*
X149623672Y-138181865D01*
X149622001Y-138189548D01*
X149622001Y-138966669D01*
X149622371Y-138973490D01*
X149627895Y-139024349D01*
X149630749Y-139036355D01*
X149627046Y-139107255D01*
X149585600Y-139164898D01*
X149519569Y-139190983D01*
X149508166Y-139191500D01*
X139749367Y-139191500D01*
X139729982Y-139190000D01*
X139715149Y-139187690D01*
X139715145Y-139187690D01*
X139706276Y-139186309D01*
X139685817Y-139188984D01*
X139663992Y-139189928D01*
X139307063Y-139174344D01*
X139296114Y-139173386D01*
X139231626Y-139164896D01*
X138911622Y-139122767D01*
X138900795Y-139120858D01*
X138522178Y-139036920D01*
X138511561Y-139034075D01*
X138297927Y-138966717D01*
X138141698Y-138917458D01*
X138131385Y-138913705D01*
X137773068Y-138765285D01*
X137763124Y-138760647D01*
X137419132Y-138581576D01*
X137409613Y-138576081D01*
X137082532Y-138367708D01*
X137073528Y-138361403D01*
X136765862Y-138125322D01*
X136757442Y-138118257D01*
X136656730Y-138025972D01*
X136471513Y-137856252D01*
X136463931Y-137848670D01*
X139900160Y-137848670D01*
X139905887Y-137856320D01*
X140077042Y-137961205D01*
X140085837Y-137965687D01*
X140295988Y-138052734D01*
X140305373Y-138055783D01*
X140526554Y-138108885D01*
X140536301Y-138110428D01*
X140763070Y-138128275D01*
X140772930Y-138128275D01*
X140999699Y-138110428D01*
X141009446Y-138108885D01*
X141230627Y-138055783D01*
X141240012Y-138052734D01*
X141450163Y-137965687D01*
X141458958Y-137961205D01*
X141626445Y-137858568D01*
X141635400Y-137848670D01*
X146400160Y-137848670D01*
X146405887Y-137856320D01*
X146577042Y-137961205D01*
X146585837Y-137965687D01*
X146795988Y-138052734D01*
X146805373Y-138055783D01*
X147026554Y-138108885D01*
X147036301Y-138110428D01*
X147263070Y-138128275D01*
X147272930Y-138128275D01*
X147499699Y-138110428D01*
X147509446Y-138108885D01*
X147730627Y-138055783D01*
X147740012Y-138052734D01*
X147950163Y-137965687D01*
X147958958Y-137961205D01*
X148126445Y-137858568D01*
X148135907Y-137848110D01*
X148132124Y-137839334D01*
X147942675Y-137649885D01*
X149622000Y-137649885D01*
X149626475Y-137665124D01*
X149627865Y-137666329D01*
X149635548Y-137668000D01*
X150857885Y-137668000D01*
X150873124Y-137663525D01*
X150874329Y-137662135D01*
X150876000Y-137654452D01*
X150876000Y-137649885D01*
X151384000Y-137649885D01*
X151388475Y-137665124D01*
X151389865Y-137666329D01*
X151397548Y-137668000D01*
X152619884Y-137668000D01*
X152635123Y-137663525D01*
X152636328Y-137662135D01*
X152637999Y-137654452D01*
X152637999Y-136877331D01*
X152637629Y-136870510D01*
X152632105Y-136819648D01*
X152628479Y-136804396D01*
X152583324Y-136683946D01*
X152574786Y-136668351D01*
X152536372Y-136617096D01*
X153557000Y-136617096D01*
X153557337Y-136623611D01*
X153567256Y-136719203D01*
X153570150Y-136732602D01*
X153621588Y-136886783D01*
X153627762Y-136899962D01*
X153713063Y-137037807D01*
X153722099Y-137049208D01*
X153836830Y-137163739D01*
X153848241Y-137172751D01*
X153986245Y-137257818D01*
X153999423Y-137263962D01*
X154153716Y-137315139D01*
X154167081Y-137318005D01*
X154261439Y-137327672D01*
X154267855Y-137328000D01*
X154667885Y-137328000D01*
X154683124Y-137323525D01*
X154684329Y-137322135D01*
X154686000Y-137314452D01*
X154686000Y-137309885D01*
X155194000Y-137309885D01*
X155198475Y-137325124D01*
X155199865Y-137326329D01*
X155207548Y-137328000D01*
X155612096Y-137328000D01*
X155618611Y-137327663D01*
X155714203Y-137317744D01*
X155727602Y-137314850D01*
X155881783Y-137263412D01*
X155894962Y-137257238D01*
X156032807Y-137171937D01*
X156044208Y-137162901D01*
X156158739Y-137048170D01*
X156167751Y-137036759D01*
X156252818Y-136898755D01*
X156258962Y-136885577D01*
X156310139Y-136731284D01*
X156313005Y-136717919D01*
X156322672Y-136623561D01*
X156323000Y-136617145D01*
X156323000Y-136617096D01*
X161177000Y-136617096D01*
X161177337Y-136623611D01*
X161187256Y-136719203D01*
X161190150Y-136732602D01*
X161241588Y-136886783D01*
X161247762Y-136899962D01*
X161333063Y-137037807D01*
X161342099Y-137049208D01*
X161456830Y-137163739D01*
X161468241Y-137172751D01*
X161606245Y-137257818D01*
X161619423Y-137263962D01*
X161773716Y-137315139D01*
X161787081Y-137318005D01*
X161881439Y-137327672D01*
X161887855Y-137328000D01*
X162287885Y-137328000D01*
X162303124Y-137323525D01*
X162304329Y-137322135D01*
X162306000Y-137314452D01*
X162306000Y-137309885D01*
X162814000Y-137309885D01*
X162818475Y-137325124D01*
X162819865Y-137326329D01*
X162827548Y-137328000D01*
X163232096Y-137328000D01*
X163238611Y-137327663D01*
X163334203Y-137317744D01*
X163347602Y-137314850D01*
X163501783Y-137263412D01*
X163514962Y-137257238D01*
X163652807Y-137171937D01*
X163664208Y-137162901D01*
X163778739Y-137048170D01*
X163787751Y-137036759D01*
X163872818Y-136898755D01*
X163878962Y-136885577D01*
X163930139Y-136731284D01*
X163933005Y-136717919D01*
X163942672Y-136623561D01*
X163943000Y-136617145D01*
X163943000Y-136379615D01*
X163938525Y-136364376D01*
X163937135Y-136363171D01*
X163929452Y-136361500D01*
X162832115Y-136361500D01*
X162816876Y-136365975D01*
X162815671Y-136367365D01*
X162814000Y-136375048D01*
X162814000Y-137309885D01*
X162306000Y-137309885D01*
X162306000Y-136379615D01*
X162301525Y-136364376D01*
X162300135Y-136363171D01*
X162292452Y-136361500D01*
X161195115Y-136361500D01*
X161179876Y-136365975D01*
X161178671Y-136367365D01*
X161177000Y-136375048D01*
X161177000Y-136617096D01*
X156323000Y-136617096D01*
X156323000Y-136379615D01*
X156318525Y-136364376D01*
X156317135Y-136363171D01*
X156309452Y-136361500D01*
X155212115Y-136361500D01*
X155196876Y-136365975D01*
X155195671Y-136367365D01*
X155194000Y-136375048D01*
X155194000Y-137309885D01*
X154686000Y-137309885D01*
X154686000Y-136379615D01*
X154681525Y-136364376D01*
X154680135Y-136363171D01*
X154672452Y-136361500D01*
X153575115Y-136361500D01*
X153559876Y-136365975D01*
X153558671Y-136367365D01*
X153557000Y-136375048D01*
X153557000Y-136617096D01*
X152536372Y-136617096D01*
X152498285Y-136566276D01*
X152485724Y-136553715D01*
X152383649Y-136477214D01*
X152368054Y-136468676D01*
X152247606Y-136423522D01*
X152232351Y-136419895D01*
X152181486Y-136414369D01*
X152174672Y-136414000D01*
X151402115Y-136414000D01*
X151386876Y-136418475D01*
X151385671Y-136419865D01*
X151384000Y-136427548D01*
X151384000Y-137649885D01*
X150876000Y-137649885D01*
X150876000Y-136432116D01*
X150871525Y-136416877D01*
X150870135Y-136415672D01*
X150862452Y-136414001D01*
X150085331Y-136414001D01*
X150078510Y-136414371D01*
X150027648Y-136419895D01*
X150012396Y-136423521D01*
X149891946Y-136468676D01*
X149876351Y-136477214D01*
X149774276Y-136553715D01*
X149761715Y-136566276D01*
X149685214Y-136668351D01*
X149676676Y-136683946D01*
X149631522Y-136804394D01*
X149627895Y-136819649D01*
X149622369Y-136870514D01*
X149622000Y-136877328D01*
X149622000Y-137649885D01*
X147942675Y-137649885D01*
X147280812Y-136988022D01*
X147266868Y-136980408D01*
X147265035Y-136980539D01*
X147258420Y-136984790D01*
X146406920Y-137836290D01*
X146400160Y-137848670D01*
X141635400Y-137848670D01*
X141635907Y-137848110D01*
X141632124Y-137839334D01*
X140780812Y-136988022D01*
X140766868Y-136980408D01*
X140765035Y-136980539D01*
X140758420Y-136984790D01*
X139906920Y-137836290D01*
X139900160Y-137848670D01*
X136463931Y-137848670D01*
X136463744Y-137848483D01*
X136463403Y-137848110D01*
X136201743Y-137562558D01*
X136194678Y-137554138D01*
X135958597Y-137246472D01*
X135952292Y-137237468D01*
X135743919Y-136910387D01*
X135738423Y-136900867D01*
X135722599Y-136870469D01*
X135592697Y-136620930D01*
X139255725Y-136620930D01*
X139273572Y-136847699D01*
X139275115Y-136857446D01*
X139328217Y-137078627D01*
X139331266Y-137088012D01*
X139418313Y-137298163D01*
X139422795Y-137306958D01*
X139525432Y-137474445D01*
X139535890Y-137483907D01*
X139544666Y-137480124D01*
X140395978Y-136628812D01*
X140402356Y-136617132D01*
X141132408Y-136617132D01*
X141132539Y-136618965D01*
X141136790Y-136625580D01*
X141988290Y-137477080D01*
X142000670Y-137483840D01*
X142008320Y-137478113D01*
X142113205Y-137306958D01*
X142117687Y-137298163D01*
X142204734Y-137088012D01*
X142207783Y-137078627D01*
X142260885Y-136857446D01*
X142262428Y-136847699D01*
X142280275Y-136620930D01*
X145755725Y-136620930D01*
X145773572Y-136847699D01*
X145775115Y-136857446D01*
X145828217Y-137078627D01*
X145831266Y-137088012D01*
X145918313Y-137298163D01*
X145922795Y-137306958D01*
X146025432Y-137474445D01*
X146035890Y-137483907D01*
X146044666Y-137480124D01*
X146895978Y-136628812D01*
X146902356Y-136617132D01*
X147632408Y-136617132D01*
X147632539Y-136618965D01*
X147636790Y-136625580D01*
X148488290Y-137477080D01*
X148500670Y-137483840D01*
X148508320Y-137478113D01*
X148613205Y-137306958D01*
X148617687Y-137298163D01*
X148704734Y-137088012D01*
X148707783Y-137078627D01*
X148760885Y-136857446D01*
X148762428Y-136847699D01*
X148780275Y-136620930D01*
X148780275Y-136611070D01*
X148762428Y-136384301D01*
X148760885Y-136374554D01*
X148707783Y-136153373D01*
X148704734Y-136143988D01*
X148617687Y-135933837D01*
X148613205Y-135925042D01*
X148558263Y-135835385D01*
X153557000Y-135835385D01*
X153561475Y-135850624D01*
X153562865Y-135851829D01*
X153570548Y-135853500D01*
X154667885Y-135853500D01*
X154683124Y-135849025D01*
X154684329Y-135847635D01*
X154686000Y-135839952D01*
X154686000Y-135835385D01*
X155194000Y-135835385D01*
X155198475Y-135850624D01*
X155199865Y-135851829D01*
X155207548Y-135853500D01*
X156304885Y-135853500D01*
X156320124Y-135849025D01*
X156321329Y-135847635D01*
X156323000Y-135839952D01*
X156323000Y-135835385D01*
X161177000Y-135835385D01*
X161181475Y-135850624D01*
X161182865Y-135851829D01*
X161190548Y-135853500D01*
X162287885Y-135853500D01*
X162303124Y-135849025D01*
X162304329Y-135847635D01*
X162306000Y-135839952D01*
X162306000Y-135835385D01*
X162814000Y-135835385D01*
X162818475Y-135850624D01*
X162819865Y-135851829D01*
X162827548Y-135853500D01*
X163924885Y-135853500D01*
X163940124Y-135849025D01*
X163941329Y-135847635D01*
X163943000Y-135839952D01*
X163943000Y-135597904D01*
X163942663Y-135591389D01*
X163932744Y-135495797D01*
X163929850Y-135482398D01*
X163878412Y-135328217D01*
X163872238Y-135315038D01*
X163786937Y-135177193D01*
X163777901Y-135165792D01*
X163663170Y-135051261D01*
X163651759Y-135042249D01*
X163513755Y-134957182D01*
X163500577Y-134951038D01*
X163346284Y-134899861D01*
X163332919Y-134896995D01*
X163238561Y-134887328D01*
X163232144Y-134887000D01*
X162832115Y-134887000D01*
X162816876Y-134891475D01*
X162815671Y-134892865D01*
X162814000Y-134900548D01*
X162814000Y-135835385D01*
X162306000Y-135835385D01*
X162306000Y-134905115D01*
X162301525Y-134889876D01*
X162300135Y-134888671D01*
X162292452Y-134887000D01*
X161887904Y-134887000D01*
X161881389Y-134887337D01*
X161785797Y-134897256D01*
X161772398Y-134900150D01*
X161618217Y-134951588D01*
X161605038Y-134957762D01*
X161467193Y-135043063D01*
X161455792Y-135052099D01*
X161341261Y-135166830D01*
X161332249Y-135178241D01*
X161247182Y-135316245D01*
X161241038Y-135329423D01*
X161189861Y-135483716D01*
X161186995Y-135497081D01*
X161177328Y-135591439D01*
X161177000Y-135597856D01*
X161177000Y-135835385D01*
X156323000Y-135835385D01*
X156323000Y-135597904D01*
X156322663Y-135591389D01*
X156312744Y-135495797D01*
X156309850Y-135482398D01*
X156258412Y-135328217D01*
X156252238Y-135315038D01*
X156166937Y-135177193D01*
X156157901Y-135165792D01*
X156043170Y-135051261D01*
X156031759Y-135042249D01*
X155893755Y-134957182D01*
X155880577Y-134951038D01*
X155726284Y-134899861D01*
X155712919Y-134896995D01*
X155618561Y-134887328D01*
X155612144Y-134887000D01*
X155212115Y-134887000D01*
X155196876Y-134891475D01*
X155195671Y-134892865D01*
X155194000Y-134900548D01*
X155194000Y-135835385D01*
X154686000Y-135835385D01*
X154686000Y-134905115D01*
X154681525Y-134889876D01*
X154680135Y-134888671D01*
X154672452Y-134887000D01*
X154267904Y-134887000D01*
X154261389Y-134887337D01*
X154165797Y-134897256D01*
X154152398Y-134900150D01*
X153998217Y-134951588D01*
X153985038Y-134957762D01*
X153847193Y-135043063D01*
X153835792Y-135052099D01*
X153721261Y-135166830D01*
X153712249Y-135178241D01*
X153627182Y-135316245D01*
X153621038Y-135329423D01*
X153569861Y-135483716D01*
X153566995Y-135497081D01*
X153557328Y-135591439D01*
X153557000Y-135597856D01*
X153557000Y-135835385D01*
X148558263Y-135835385D01*
X148510568Y-135757555D01*
X148500110Y-135748093D01*
X148491334Y-135751876D01*
X147640022Y-136603188D01*
X147632408Y-136617132D01*
X146902356Y-136617132D01*
X146903592Y-136614868D01*
X146903461Y-136613035D01*
X146899210Y-136606420D01*
X146047710Y-135754920D01*
X146035330Y-135748160D01*
X146027680Y-135753887D01*
X145922795Y-135925042D01*
X145918313Y-135933837D01*
X145831266Y-136143988D01*
X145828217Y-136153373D01*
X145775115Y-136374554D01*
X145773572Y-136384301D01*
X145755725Y-136611070D01*
X145755725Y-136620930D01*
X142280275Y-136620930D01*
X142280275Y-136611070D01*
X142262428Y-136384301D01*
X142260885Y-136374554D01*
X142207783Y-136153373D01*
X142204734Y-136143988D01*
X142117687Y-135933837D01*
X142113205Y-135925042D01*
X142010568Y-135757555D01*
X142000110Y-135748093D01*
X141991334Y-135751876D01*
X141140022Y-136603188D01*
X141132408Y-136617132D01*
X140402356Y-136617132D01*
X140403592Y-136614868D01*
X140403461Y-136613035D01*
X140399210Y-136606420D01*
X139547710Y-135754920D01*
X139535330Y-135748160D01*
X139527680Y-135753887D01*
X139422795Y-135925042D01*
X139418313Y-135933837D01*
X139331266Y-136143988D01*
X139328217Y-136153373D01*
X139275115Y-136374554D01*
X139273572Y-136384301D01*
X139255725Y-136611070D01*
X139255725Y-136620930D01*
X135592697Y-136620930D01*
X135559353Y-136556876D01*
X135554711Y-136546923D01*
X135523423Y-136471385D01*
X135406295Y-136188615D01*
X135402539Y-136178294D01*
X135394682Y-136153373D01*
X135339608Y-135978702D01*
X135285925Y-135808439D01*
X135283080Y-135797822D01*
X135199142Y-135419205D01*
X135197233Y-135408379D01*
X135194009Y-135383890D01*
X139900093Y-135383890D01*
X139903876Y-135392666D01*
X140755188Y-136243978D01*
X140769132Y-136251592D01*
X140770965Y-136251461D01*
X140777580Y-136247210D01*
X141629080Y-135395710D01*
X141635534Y-135383890D01*
X146400093Y-135383890D01*
X146403876Y-135392666D01*
X147255188Y-136243978D01*
X147269132Y-136251592D01*
X147270965Y-136251461D01*
X147277580Y-136247210D01*
X148129080Y-135395710D01*
X148135840Y-135383330D01*
X148130113Y-135375680D01*
X147958958Y-135270795D01*
X147950163Y-135266313D01*
X147740012Y-135179266D01*
X147730627Y-135176217D01*
X147509446Y-135123115D01*
X147499699Y-135121572D01*
X147272930Y-135103725D01*
X147263070Y-135103725D01*
X147036301Y-135121572D01*
X147026554Y-135123115D01*
X146805373Y-135176217D01*
X146795988Y-135179266D01*
X146585837Y-135266313D01*
X146577042Y-135270795D01*
X146409555Y-135373432D01*
X146400093Y-135383890D01*
X141635534Y-135383890D01*
X141635840Y-135383330D01*
X141630113Y-135375680D01*
X141458958Y-135270795D01*
X141450163Y-135266313D01*
X141240012Y-135179266D01*
X141230627Y-135176217D01*
X141009446Y-135123115D01*
X140999699Y-135121572D01*
X140772930Y-135103725D01*
X140763070Y-135103725D01*
X140536301Y-135121572D01*
X140526554Y-135123115D01*
X140305373Y-135176217D01*
X140295988Y-135179266D01*
X140085837Y-135266313D01*
X140077042Y-135270795D01*
X139909555Y-135373432D01*
X139900093Y-135383890D01*
X135194009Y-135383890D01*
X135159678Y-135123115D01*
X135146614Y-135023885D01*
X135145656Y-135012936D01*
X135143222Y-134957182D01*
X135130561Y-134667206D01*
X135132188Y-134640805D01*
X135132769Y-134637352D01*
X135132770Y-134637345D01*
X135133576Y-134632552D01*
X135133729Y-134620000D01*
X135129773Y-134592376D01*
X135128500Y-134574514D01*
X135128500Y-109132526D01*
X139657050Y-109132526D01*
X139657274Y-109137192D01*
X139657274Y-109137197D01*
X139662392Y-109243741D01*
X139669947Y-109401019D01*
X139722388Y-109664656D01*
X139813220Y-109917646D01*
X139940450Y-110154431D01*
X139943241Y-110158168D01*
X139943245Y-110158175D01*
X140018216Y-110258573D01*
X140101281Y-110369810D01*
X140104590Y-110373090D01*
X140104595Y-110373096D01*
X140275746Y-110542759D01*
X140292180Y-110559050D01*
X140295942Y-110561808D01*
X140295945Y-110561811D01*
X140371896Y-110617500D01*
X140508954Y-110717995D01*
X140513089Y-110720171D01*
X140513093Y-110720173D01*
X140742698Y-110840975D01*
X140746840Y-110843154D01*
X141000613Y-110931775D01*
X141005206Y-110932647D01*
X141260109Y-110981042D01*
X141260112Y-110981042D01*
X141264698Y-110981913D01*
X141392370Y-110986929D01*
X141528625Y-110992283D01*
X141528630Y-110992283D01*
X141533293Y-110992466D01*
X141637607Y-110981042D01*
X141795844Y-110963713D01*
X141795850Y-110963712D01*
X141800497Y-110963203D01*
X141805021Y-110962012D01*
X142055918Y-110895956D01*
X142055920Y-110895955D01*
X142060441Y-110894765D01*
X142064738Y-110892919D01*
X142303120Y-110790502D01*
X142303122Y-110790501D01*
X142307414Y-110788657D01*
X142426071Y-110715230D01*
X142532017Y-110649669D01*
X142532021Y-110649666D01*
X142535990Y-110647210D01*
X142741149Y-110473530D01*
X142918382Y-110271434D01*
X142926623Y-110258623D01*
X143061269Y-110049291D01*
X143063797Y-110045361D01*
X143174199Y-109800278D01*
X143211209Y-109669051D01*
X143245893Y-109546072D01*
X143245894Y-109546069D01*
X143247163Y-109541568D01*
X143265043Y-109401019D01*
X143280688Y-109278045D01*
X143280688Y-109278041D01*
X143281086Y-109274915D01*
X143281616Y-109254691D01*
X143282838Y-109208003D01*
X143283571Y-109180000D01*
X143271370Y-109015814D01*
X143263996Y-108916592D01*
X143263996Y-108916591D01*
X143263650Y-108911937D01*
X143258942Y-108891129D01*
X143205361Y-108654331D01*
X143205360Y-108654326D01*
X143204327Y-108649763D01*
X143106902Y-108399238D01*
X142973518Y-108165864D01*
X142807105Y-107954769D01*
X142611317Y-107770591D01*
X142454751Y-107661976D01*
X142394299Y-107620039D01*
X142394296Y-107620037D01*
X142390457Y-107617374D01*
X142386264Y-107615306D01*
X142153564Y-107500551D01*
X142153561Y-107500550D01*
X142149376Y-107498486D01*
X142101745Y-107483239D01*
X141976031Y-107442998D01*
X141893370Y-107416538D01*
X141888763Y-107415788D01*
X141888760Y-107415787D01*
X141632674Y-107374081D01*
X141632675Y-107374081D01*
X141628063Y-107373330D01*
X141497719Y-107371624D01*
X141363961Y-107369873D01*
X141363958Y-107369873D01*
X141359284Y-107369812D01*
X141092937Y-107406060D01*
X140834874Y-107481278D01*
X140590763Y-107593815D01*
X140567045Y-107609365D01*
X140369881Y-107738631D01*
X140369876Y-107738635D01*
X140365968Y-107741197D01*
X140165426Y-107920188D01*
X139993544Y-108126854D01*
X139854096Y-108356656D01*
X139852287Y-108360970D01*
X139852285Y-108360974D01*
X139807781Y-108467106D01*
X139750148Y-108604545D01*
X139683981Y-108865077D01*
X139657050Y-109132526D01*
X135128500Y-109132526D01*
X135128500Y-105524669D01*
X139662001Y-105524669D01*
X139662371Y-105531490D01*
X139667895Y-105582352D01*
X139671521Y-105597604D01*
X139716676Y-105718054D01*
X139725214Y-105733649D01*
X139801715Y-105835724D01*
X139814276Y-105848285D01*
X139916351Y-105924786D01*
X139931946Y-105933324D01*
X140052394Y-105978478D01*
X140067649Y-105982105D01*
X140118514Y-105987631D01*
X140125328Y-105988000D01*
X141197885Y-105988000D01*
X141213124Y-105983525D01*
X141214329Y-105982135D01*
X141216000Y-105974452D01*
X141216000Y-105969884D01*
X141724000Y-105969884D01*
X141728475Y-105985123D01*
X141729865Y-105986328D01*
X141737548Y-105987999D01*
X142814669Y-105987999D01*
X142821490Y-105987629D01*
X142872352Y-105982105D01*
X142887604Y-105978479D01*
X143008054Y-105933324D01*
X143023649Y-105924786D01*
X143125724Y-105848285D01*
X143138285Y-105835724D01*
X143214786Y-105733649D01*
X143223324Y-105718054D01*
X143268478Y-105597606D01*
X143272105Y-105582351D01*
X143277631Y-105531486D01*
X143278000Y-105524672D01*
X143278000Y-105335278D01*
X176570493Y-105335278D01*
X176579789Y-105347293D01*
X176630994Y-105383147D01*
X176640489Y-105388630D01*
X176837947Y-105480706D01*
X176848239Y-105484452D01*
X177058688Y-105540841D01*
X177069481Y-105542744D01*
X177286525Y-105561733D01*
X177297475Y-105561733D01*
X177514519Y-105542744D01*
X177525312Y-105540841D01*
X177735761Y-105484452D01*
X177746053Y-105480706D01*
X177943511Y-105388630D01*
X177953006Y-105383147D01*
X178005048Y-105346707D01*
X178013424Y-105336228D01*
X178006356Y-105322782D01*
X177304812Y-104621238D01*
X177290868Y-104613624D01*
X177289035Y-104613755D01*
X177282420Y-104618006D01*
X176576923Y-105323503D01*
X176570493Y-105335278D01*
X143278000Y-105335278D01*
X143278000Y-104452115D01*
X143273525Y-104436876D01*
X143272135Y-104435671D01*
X143264452Y-104434000D01*
X141742115Y-104434000D01*
X141726876Y-104438475D01*
X141725671Y-104439865D01*
X141724000Y-104447548D01*
X141724000Y-105969884D01*
X141216000Y-105969884D01*
X141216000Y-104452115D01*
X141211525Y-104436876D01*
X141210135Y-104435671D01*
X141202452Y-104434000D01*
X139680116Y-104434000D01*
X139664877Y-104438475D01*
X139663672Y-104439865D01*
X139662001Y-104447548D01*
X139662001Y-105524669D01*
X135128500Y-105524669D01*
X135128500Y-104254691D01*
X175979483Y-104254691D01*
X175998472Y-104471735D01*
X176000375Y-104482528D01*
X176056764Y-104692977D01*
X176060510Y-104703269D01*
X176152586Y-104900727D01*
X176158069Y-104910222D01*
X176194509Y-104962264D01*
X176204988Y-104970640D01*
X176218434Y-104963572D01*
X176919978Y-104262028D01*
X176926356Y-104250348D01*
X177656408Y-104250348D01*
X177656539Y-104252181D01*
X177660790Y-104258796D01*
X178366287Y-104964293D01*
X178378062Y-104970723D01*
X178390077Y-104961427D01*
X178425931Y-104910222D01*
X178431414Y-104900727D01*
X178523490Y-104703269D01*
X178527236Y-104692977D01*
X178583625Y-104482528D01*
X178585528Y-104471735D01*
X178604517Y-104254691D01*
X178604517Y-104243741D01*
X178585528Y-104026697D01*
X178583625Y-104015904D01*
X178527236Y-103805455D01*
X178523490Y-103795163D01*
X178431414Y-103597705D01*
X178425931Y-103588210D01*
X178389491Y-103536168D01*
X178379012Y-103527792D01*
X178365566Y-103534860D01*
X177664022Y-104236404D01*
X177656408Y-104250348D01*
X176926356Y-104250348D01*
X176927592Y-104248084D01*
X176927461Y-104246251D01*
X176923210Y-104239636D01*
X176217713Y-103534139D01*
X176205938Y-103527709D01*
X176193923Y-103537005D01*
X176158069Y-103588210D01*
X176152586Y-103597705D01*
X176060510Y-103795163D01*
X176056764Y-103805455D01*
X176000375Y-104015904D01*
X175998472Y-104026697D01*
X175979483Y-104243741D01*
X175979483Y-104254691D01*
X135128500Y-104254691D01*
X135128500Y-103907885D01*
X139662000Y-103907885D01*
X139666475Y-103923124D01*
X139667865Y-103924329D01*
X139675548Y-103926000D01*
X141197885Y-103926000D01*
X141213124Y-103921525D01*
X141214329Y-103920135D01*
X141216000Y-103912452D01*
X141216000Y-103907885D01*
X141724000Y-103907885D01*
X141728475Y-103923124D01*
X141729865Y-103924329D01*
X141737548Y-103926000D01*
X143259884Y-103926000D01*
X143275123Y-103921525D01*
X143276328Y-103920135D01*
X143277999Y-103912452D01*
X143277999Y-103162204D01*
X176570576Y-103162204D01*
X176577644Y-103175650D01*
X177279188Y-103877194D01*
X177293132Y-103884808D01*
X177294965Y-103884677D01*
X177301580Y-103880426D01*
X178007077Y-103174929D01*
X178013507Y-103163154D01*
X178004211Y-103151139D01*
X177953006Y-103115285D01*
X177943511Y-103109802D01*
X177746053Y-103017726D01*
X177735761Y-103013980D01*
X177525312Y-102957591D01*
X177514519Y-102955688D01*
X177297475Y-102936699D01*
X177286525Y-102936699D01*
X177069481Y-102955688D01*
X177058688Y-102957591D01*
X176848239Y-103013980D01*
X176837947Y-103017726D01*
X176640489Y-103109802D01*
X176630994Y-103115285D01*
X176578952Y-103151725D01*
X176570576Y-103162204D01*
X143277999Y-103162204D01*
X143277999Y-102835331D01*
X143277629Y-102828510D01*
X143272105Y-102777648D01*
X143268479Y-102762396D01*
X143223324Y-102641946D01*
X143214786Y-102626351D01*
X143138285Y-102524276D01*
X143125724Y-102511715D01*
X143023649Y-102435214D01*
X143008054Y-102426676D01*
X142887606Y-102381522D01*
X142872351Y-102377895D01*
X142821486Y-102372369D01*
X142814672Y-102372000D01*
X141742115Y-102372000D01*
X141726876Y-102376475D01*
X141725671Y-102377865D01*
X141724000Y-102385548D01*
X141724000Y-103907885D01*
X141216000Y-103907885D01*
X141216000Y-102390116D01*
X141211525Y-102374877D01*
X141210135Y-102373672D01*
X141202452Y-102372001D01*
X140125331Y-102372001D01*
X140118510Y-102372371D01*
X140067648Y-102377895D01*
X140052396Y-102381521D01*
X139931946Y-102426676D01*
X139916351Y-102435214D01*
X139814276Y-102511715D01*
X139801715Y-102524276D01*
X139725214Y-102626351D01*
X139716676Y-102641946D01*
X139671522Y-102762394D01*
X139667895Y-102777649D01*
X139662369Y-102828514D01*
X139662000Y-102835328D01*
X139662000Y-103907885D01*
X135128500Y-103907885D01*
X135128500Y-101653250D01*
X135130246Y-101632345D01*
X135132770Y-101617344D01*
X135132770Y-101617341D01*
X135133576Y-101612552D01*
X135133729Y-101600000D01*
X135133039Y-101595184D01*
X135133039Y-101595178D01*
X135131387Y-101583644D01*
X135130234Y-101560284D01*
X135145656Y-101207064D01*
X135146614Y-101196114D01*
X135197233Y-100811621D01*
X135199142Y-100800795D01*
X135283080Y-100422178D01*
X135285925Y-100411561D01*
X135402539Y-100041706D01*
X135406298Y-100031377D01*
X135554711Y-99673077D01*
X135559357Y-99663115D01*
X135738423Y-99319133D01*
X135743919Y-99309613D01*
X135952292Y-98982532D01*
X135958597Y-98973528D01*
X136194678Y-98665862D01*
X136201743Y-98657442D01*
X136463744Y-98371517D01*
X136471517Y-98363744D01*
X136757442Y-98101743D01*
X136765862Y-98094678D01*
X137073528Y-97858597D01*
X137082532Y-97852292D01*
X137409613Y-97643919D01*
X137419133Y-97638423D01*
X137763124Y-97459353D01*
X137773068Y-97454715D01*
X138131385Y-97306295D01*
X138141698Y-97302542D01*
X138341298Y-97239608D01*
X138511561Y-97185925D01*
X138522178Y-97183080D01*
X138900795Y-97099142D01*
X138911621Y-97097233D01*
X139296114Y-97046614D01*
X139307063Y-97045656D01*
X139656554Y-97030397D01*
X139681429Y-97031777D01*
X139693724Y-97033691D01*
X139702626Y-97032527D01*
X139702628Y-97032527D01*
X139721399Y-97030072D01*
X139725286Y-97029564D01*
X139741621Y-97028500D01*
X180290633Y-97028500D01*
X180310018Y-97030000D01*
G37*
%TD.AperFunction*%
%TA.AperFunction,NonConductor*%
G36*
X156533019Y-124963102D02*
G01*
X156579512Y-125016758D01*
X156589616Y-125087032D01*
X156560122Y-125151612D01*
X156553993Y-125158195D01*
X155582792Y-126129396D01*
X155520480Y-126163422D01*
X155480854Y-126165645D01*
X155440400Y-126161500D01*
X154439600Y-126161500D01*
X154436354Y-126161837D01*
X154436350Y-126161837D01*
X154340692Y-126171762D01*
X154340688Y-126171763D01*
X154333834Y-126172474D01*
X154327298Y-126174655D01*
X154327296Y-126174655D01*
X154195194Y-126218728D01*
X154166054Y-126228450D01*
X154015652Y-126321522D01*
X153890695Y-126446697D01*
X153797885Y-126597262D01*
X153742203Y-126765139D01*
X153731500Y-126869600D01*
X153731500Y-127418498D01*
X153711498Y-127486619D01*
X153657842Y-127533112D01*
X153587568Y-127543216D01*
X153522988Y-127513722D01*
X153516405Y-127507593D01*
X152920005Y-126911193D01*
X152885979Y-126848881D01*
X152883100Y-126822098D01*
X152883100Y-125653902D01*
X152903102Y-125585781D01*
X152920005Y-125564806D01*
X153504808Y-124980004D01*
X153567120Y-124945979D01*
X153593903Y-124943100D01*
X156464898Y-124943100D01*
X156533019Y-124963102D01*
G37*
%TD.AperFunction*%
%TA.AperFunction,NonConductor*%
G36*
X159556033Y-123985946D02*
G01*
X159601095Y-124014907D01*
X161691201Y-126105013D01*
X161725227Y-126167325D01*
X161720162Y-126238140D01*
X161677615Y-126294976D01*
X161668415Y-126301248D01*
X161652992Y-126310791D01*
X161641881Y-126317667D01*
X161641880Y-126317668D01*
X161635652Y-126321522D01*
X161510695Y-126446697D01*
X161417885Y-126597262D01*
X161362203Y-126765139D01*
X161351500Y-126869600D01*
X161351500Y-127435500D01*
X161331498Y-127503621D01*
X161277842Y-127550114D01*
X161225500Y-127561500D01*
X156274500Y-127561500D01*
X156206379Y-127541498D01*
X156159886Y-127487842D01*
X156148500Y-127435500D01*
X156148500Y-127341501D01*
X156168502Y-127273380D01*
X156185405Y-127252406D01*
X159422905Y-124014907D01*
X159485217Y-123980881D01*
X159556033Y-123985946D01*
G37*
%TD.AperFunction*%
M02*
